<svg width="65" height="65" viewBox="0 0 65 65" fill="none" xmlns="http://www.w3.org/2000/svg">
<rect width="65" height="65" fill="black"/>
<path d="M7.06299 23.8637H14.1623V26.3118H9.75583V41H7.06299V23.8637ZM21.9773 41L21.5121 37.891H18.2073L17.7422 41H15.2696L18.0114 23.8637H21.9528L24.6946 41H21.9773ZM21.1449 35.5654L19.8475 26.8993L18.55 35.5654H21.1449ZM29.9145 23.8637C31.2527 23.8637 32.2564 24.2228 32.9255 24.9409C33.5947 25.659 33.9292 26.7116 33.9292 28.0988V30.3266C33.9292 31.7138 33.5947 32.7664 32.9255 33.4845C32.2564 34.2026 31.2527 34.5617 29.9145 34.5617H28.6415V41H25.9486V23.8637H29.9145ZM28.6415 32.1136H29.9145C30.3551 32.1136 30.6815 31.9912 30.8937 31.7464C31.1222 31.5016 31.2364 31.0855 31.2364 30.4979V27.9275C31.2364 27.34 31.1222 26.9238 30.8937 26.679C30.6815 26.4342 30.3551 26.3118 29.9145 26.3118H28.6415V32.1136ZM41.1743 41L40.7091 37.891H37.4043L36.9392 41H34.4667L37.2085 23.8637H41.1498L43.8916 41H41.1743ZM40.3419 35.5654L39.0445 26.8993L37.747 35.5654H40.3419ZM56.0884 23.8637H58.7812L55.4764 30.8162L58.7812 41H56.0149L53.5669 33.4111L52.9059 34.7085V41H50.2376V34.7085L49.5766 33.3866L47.1286 41H44.3623L47.6916 30.8896L44.3623 23.8637H47.0551L50.2376 30.7917V23.8637H52.9059V30.7917L56.0884 23.8637Z" fill="white"/>
</svg>
