<svg width="576" height="320" viewBox="0 0 576 320" fill="none" xmlns="http://www.w3.org/2000/svg">
<path d="M478.61 99.8826V105.249H471.71V111.766H464.81V118.666H458.293V125.566H451.393V132.083H444.493V138.983H437.593V145.883H431.077V152.4H424.177V159.3H417.277V166.2H410.76V172.716H403.86V186.516H396.96V199.933H390.443V211.433L397.726 218.717H409.993L490.494 138.599V124.799L503.91 111.383V98.7326L497.777 92.5992H485.894L478.61 99.8826ZM560.261 23.5989H553.361V30.4989H526.144V23.5989H505.444V18.9988L493.56 31.2656V50.049L513.11 69.5991H519.627L526.91 77.2658V92.2159L506.594 112.533V112.916H506.21L493.177 125.949V139.749L421.11 212.2L418.043 214.883L411.143 221.783H396.576L388.143 213.35H383.543V186.516H390.443V172.716H396.96V159.3H403.86V152.4H410.76V145.883H417.277V138.983H424.177V132.083H431.077V125.566H437.593V118.666H451.393V111.766H458.293V105.249H471.71V98.3493H476.31L484.744 89.9159H498.927L506.594 97.5826V108.699L524.61 91.0659V78.4158L518.477 72.6658H511.577L490.494 51.5824V29.7322L505.06 15.5488H526.144V23.5989H553.361V17.0822H560.261V23.5989Z" fill="#427569"/>
<path d="M273.429 247.468H280.329V240.185H287.229V227.918H281.095L274.195 235.201H267.295L260.395 241.718H239.695L232.795 249.001H212.095L198.678 262.418H191.395L185.261 268.551V293.852H191.395L198.678 301.135H224.745L266.529 258.968V253.985H273.429V247.468ZM280.329 253.985H273.429V261.268H268.445L225.895 303.818H197.145L190.245 296.918H182.578V267.401L190.245 259.735H197.145L210.945 245.935H231.645L238.545 239.035H258.862L266.145 232.135H272.662L279.945 225.235H294.129V219.868H301.029V212.968H307.929V199.168H314.829V193.418H309.079L294.895 207.601H287.995L274.195 221.401H266.145L258.479 213.734V185.368H266.529V178.468H273.429V171.568H280.329V164.667H287.229V150.867H294.129V143.967H301.029V137.067H307.929V130.551H314.829V123.267H321.729V116.751H328.629V109.467H335.529V102.95H342.429V96.0504H347.796V89.1504H350.862V109.467H342.429V116.751H335.529V123.267H328.629V137.067H321.729V143.967H314.829V150.867H307.929V157.767H301.029V164.667H294.129V171.568H287.229V178.468H280.329V185.368H273.429V199.168H266.529V206.068H261.162V212.201L267.295 218.334H272.662L286.462 204.534H293.745L307.929 190.351H314.062L314.829 189.584V185.368H321.729V178.468H328.629V171.568H335.529V164.667H342.429V150.867H349.329V143.967H355.846V137.067H363.129V130.551H369.646V123.267H376.929V116.751H383.446V109.467H390.346V102.95H397.246V96.0504H404.146V89.1504H417.946V96.0504H411.046V102.95H404.146V109.467H397.246V116.751H390.346V123.267H383.446V137.067H376.929V143.967H369.646V150.867H363.129V157.767H355.846V164.667H349.329V178.468H342.429V185.368H335.529V192.268H328.629V206.068H321.729V212.968H314.829V218.334H341.662L375.779 184.218H390.346V186.901H377.313L342.812 221.401H308.312L307.929 221.784V226.768H303.329L301.795 227.918H301.029V233.668H294.129V240.185H287.229V247.468H280.329V253.985Z" fill="#427569"/>
<path d="M238.374 89.5293H260.224L267.891 97.196V117.896H259.841V131.696H252.557V138.596H246.04V145.113H239.14V158.913H232.24V165.43H225.724V172.713H218.824V179.23H211.924V186.13H205.024V199.93H198.507V212.197L205.79 218.713H218.057L252.174 184.597H266.357V187.28H253.324L219.207 221.78H204.257L197.357 214.88H189.69V186.513H191.223V186.13H198.507V179.23H205.024V165.43H211.924V158.913H218.824V152.396H225.724V145.113H232.24V138.596H239.14V131.696H246.04V117.896H252.557V111.379H259.841V97.5794H264.057L259.074 92.2126H239.524L212.69 119.429H198.507V124.796H191.223V131.696H184.707V145.113H178.19V152.396H170.907V158.913H164.39V165.43H157.49V179.23H150.59V186.13H143.69V193.03H137.173V199.93H130.273V213.347H123.373V220.247H116.856V226.763H109.573V234.047H103.056V247.464H96.1563V254.364H89.2563V260.88H82.7395V267.78H75.8395V281.58H68.9395V288.097H62.0394V294.997H55.5227V301.897H41.7227V294.997H48.6227V288.097H55.5227V281.58H62.0394V267.78H68.9395V260.88H75.8395V254.364H82.7395V240.563H89.2563V226.763H96.1563V220.247H103.056V213.347H109.573V199.93H116.856V193.03H123.373V186.13H130.273V179.23H137.173V165.43H143.69V158.913H150.59V152.396H157.49V145.113H164.39V138.596H170.907V131.696H178.19V124.796H184.707V111.379H191.223V104.479H198.507V97.5794H205.024V89.5293H218.824V97.5794H211.924V104.479H205.024V111.379H198.507V116.746H211.54L238.374 89.5293Z" fill="#427569"/>
<path d="M49.2921 206.45H62.7089V199.934H69.6089V193.034H76.1256V186.133H83.0256V172.717H89.9257V166.2H96.4424V159.3H103.342V152.4H109.859V145.883H116.759V138.983H123.276V132.467H130.176V100.65L122.893 93.3663H109.859V99.1163H103.342V105.25H96.4424V112.15H89.9257V119.05H83.0256V132.467H76.1256V138.983H69.6089V145.883H62.7089V152.4H56.1922V159.3H49.2921V166.2H42.3921V179.617H35.8754V186.133H28.9753V199.934H22.4586V211.05L29.742 218.717H42.0087L49.2921 211.05V206.45ZM150.493 38.166H143.593V45.066H137.076V51.5827H130.176V65.3828H123.276V71.8995H116.759V78.7996H109.859V90.2996H123.276L129.793 83.7829H143.209L189.593 37.7827V25.5159L183.46 19.3826H164.676L150.493 33.1826V38.166ZM148.576 31.6493L163.526 16.6992H184.61L192.276 23.9826V38.9327L144.359 86.4663H130.943L125.576 91.833L132.093 99.1163H137.076V105.633H143.593V132.467H137.076V138.983H130.176V145.883H123.276V159.3H116.759V166.2H109.859V172.717H103.342V179.617H96.4424V186.133H89.9257V193.034H83.0256V199.934H76.1256V206.45H62.7089V213.35H51.2088L45.8421 218.717H82.259L116.376 184.984H130.176V188.05H117.526L83.409 221.784H42.3921V221.4H28.592L20.1586 213.35H15.5586V186.133H22.4586V172.717H28.9753V159.3H35.8754V152.4H42.3921V145.883H49.2921V138.983H56.1922V132.467H62.7089V119.05H69.6089V112.15H76.1256V105.25H83.0256V98.733H89.9257V85.3163H96.4424V78.7996H103.342V71.8995H109.859V65.3828H116.759V58.4828H123.276V51.5827H130.176V45.066H137.076V38.166H143.593V31.6493H148.576Z" fill="#427569"/>
<path fill-rule="evenodd" clip-rule="evenodd" d="M476.31 98.3587H471.71V105.259H458.293V111.775H451.393V118.675H437.593V125.575H431.076V132.092H424.176V138.992H417.276V145.892H410.759V152.409H403.859V159.309H396.959V172.726H390.443V186.526H390.35V184.226H375.783L367.984 192.024V170.968H374.884V157.168H381.401V143.751H388.301V136.851H395.201V130.334H401.718V123.434H408.618V116.534H415.518V110.017H422.035V103.117H435.835V96.2172H442.735V89.7005H456.152V82.8005H469.865L478.299 74.3671H491.266L474.935 58.0362V23.1754L498.737 1.37512e-05H502.196L513.11 -6.87558e-06L521.001 1.37512e-05H541.702V1.53336H575.818V39.1665H568.918V46.0665H511.571L519.554 54.0503H526.306L542.468 71.0632V98.6697L522.151 118.987V128.484H512.654L508.735 132.403V146.179L485.603 169.434L462.562 192.024L445.185 210.629L420.918 234.02L417.587 237.351H390.132L381.698 228.918H367.984V196.241L377.316 186.909H383.543V213.359H388.143L396.576 221.793H411.143L418.043 214.893L421.109 212.209L493.176 139.759V125.959L506.21 112.925H506.593V112.542L526.91 92.2253V77.2752L519.627 69.6085H513.11L493.56 50.0584V31.275L505.443 19.0082V23.6083H526.143V30.5083H553.36V23.6083H560.26V17.0916H553.36V23.6083H526.143V15.5582H505.06L490.493 29.7416V51.5918L511.577 72.6752H518.477L524.61 78.4252V91.0753L506.593 108.709V97.592L498.927 89.9253H484.743L476.31 98.3587ZM485.893 92.6086L478.61 99.892V105.259H471.71V111.775H464.81V118.675H458.293V125.575H451.393V132.092H444.493V138.992H437.593V145.892H431.076V152.409H424.176V159.309H417.276V166.209H410.759V172.726H403.859V186.526H396.959V199.943H390.443V211.443L397.726 218.726H409.993L490.493 138.609V124.809L503.91 111.392V98.742L497.777 92.6086H485.893ZM509.118 43.614V39.1665H510.585V45.0811L509.118 43.614Z" fill="#BD8A96"/>
<path fill-rule="evenodd" clip-rule="evenodd" d="M242.932 197.806V220.188L246.229 223.486H232.112L225.212 230.386H204.512L190.712 244.186H183.812L167.031 260.966V312.486H183.812L190.712 319.386H232.351L274.901 276.836H288.998V269.552H295.898V263.035H302.798V255.752H309.698V249.235H316.598V242.335H323.498V236.969H349.268L383.55 202.687V186.91H377.324L342.824 221.41H308.323L307.94 221.794V226.777H303.34L301.807 227.927H301.04V233.677H294.14V240.194H287.24V227.927H281.107L274.207 235.211H267.307L260.407 241.727H239.706L232.806 249.011H212.106L198.69 262.427H191.406L185.273 268.561V293.861H191.406L198.69 301.144H224.756L266.54 258.977V253.994H273.44V261.277H268.457L225.906 303.828H197.156L190.256 296.927H182.589V267.411L190.256 259.744H197.156L210.956 245.944H231.656L238.556 239.044H258.873L266.157 232.144H272.673L279.957 225.244H294.14V219.877H301.04V212.977H307.94V199.177H314.84V193.427H309.09L294.907 207.61H288.007L274.207 221.41H266.157L258.49 213.744V187.294H253.327L242.932 197.806ZM252.177 184.61H266.36V185.377H266.54V178.477H273.44V171.577H280.34V164.677H287.24V150.877H294.14V143.977H301.04V137.077H307.94V130.56H314.84V123.277H321.74V116.76H328.64V109.477H335.54V102.96H342.44V96.0598H347.807V89.1598H350.874V109.477H342.44V116.76H335.54V123.277H328.64V137.077H321.74V143.977H314.84V150.877H307.94V157.777H301.04V164.677H294.14V171.577H287.24V178.477H280.34V185.377H273.44V199.177H266.54V206.077H261.173V212.21L267.307 218.344H272.673L286.473 204.544H293.757L307.94 190.36H314.074L314.84 189.594V185.377H321.74V178.477H328.64V171.577H335.54V164.677H342.44V150.877H349.34V143.977H355.857V137.077H363.14V130.56H369.657V123.277H376.941V116.76H383.457V109.477H390.357V102.96H397.257V96.0598H404.157V89.1598H417.957V96.0598H411.057V102.96H404.157V109.477H397.257V116.76H390.357V123.277H383.457V137.077H376.941V143.977H369.657V150.877H363.14V157.777H355.857V164.677H349.34V178.477H342.44V185.377H335.54V192.277H328.64V206.077H321.74V212.977H314.84V218.344H341.674L375.791 184.227H390.357V186.527H390.45V172.727H396.967V168.669H378.699V166.435H385.215V159.535H392.499V152.635H399.015V138.835H405.916V132.318H412.816V125.035H419.716V118.518H426.616V111.618H433.516V73.6016H388.599V80.5016H381.699V87.4016H374.799V93.9183H367.899V101.202H366.432V73.6016H332.249V80.5016H326.882V87.4016H319.982V93.9183H313.082V101.202H306.182V107.718H299.282V115.002H292.382V121.518H285.482V128.418H278.582V135.319H271.682V149.119H264.782V156.019H257.882V162.919H250.982V169.819H242.932V193.855L252.177 184.61ZM405.916 172.727H403.867V186.527H396.967V199.944H390.45V202.468H405.916V172.727ZM273.44 253.994H280.34V247.477H287.24V240.194H280.34V247.477H273.44V253.994ZM239.096 264.569H218.551L205.134 277.986H200.831V281.283L205.134 285.586H218.27L239.096 264.569Z" fill="#BD8A96"/>
<path fill-rule="evenodd" clip-rule="evenodd" d="M141.916 132.472H143.578V129.564H148.816V123.047H155.332V116.147H162.616V109.247H169.133V95.8306H175.649V88.9306H182.933V82.0305H189.449V73.9805H266.652L283.433 90.761V95.6074L299.719 113.147H283.433V133.464H275.383V147.264H268.099V154.164H261.583V160.681H254.683V169.048H280.321V171.572H273.421V178.473H266.521V185.373H266.341V184.606H252.158L218.041 218.723H205.774L198.491 212.206V199.939H205.008V186.139H211.908V179.239H218.808V172.722H225.708V165.439H232.224V158.922H239.124V145.122H246.024V138.606H252.541V131.706H259.824V117.906H267.874V97.2054L260.208 89.5387H238.358L211.524 116.756H198.491V111.389H205.008V104.489H211.908V97.5887H218.808V89.5387H205.008V97.5887H198.491V104.489H191.207V111.389H184.691V124.806H178.174V131.706H170.891V138.606H164.374V145.122H157.474V152.406H150.574V158.922H143.674V165.439H137.157V179.239H130.257V186.139H130.161V184.989H116.361L82.2444 218.723H73.682V211.215H80.5821V204.698H87.4821V197.798H93.9988V186.139H96.4278V184.381H101.282V179.623H103.328V177.481H107.799V172.722H109.845V170.581H114.699V166.206H116.745V163.681H121.599V159.306H123.261V149.881H128.116V145.889H130.161V143.364H135.016V138.989H137.061V136.847H141.916V132.472ZM73.682 221.789V225.015H67.1653V238.815H60.2653V245.331H53.3652V252.231H46.4652V266.032H39.9485V272.548H33.0485V279.448H26.1484V317.465H71.0649V310.565H77.5816V303.665H84.4817V297.148H91.3817V283.348H98.2817V276.448H104.798V269.931H111.698V263.031H118.599V249.614H125.115V242.331H132.399V235.814H138.915V228.914H145.815V215.498H152.715V208.598H159.232V201.697H166.132V194.797H173.032V180.997H174.116V230.448H190.896L197.796 237.348H225.686L258.471 204.195V187.289H253.308L219.191 221.789H204.241L197.341 214.889H189.674V186.523H191.207V186.139H198.491V179.239H205.008V165.439H211.908V158.922H218.808V152.406H225.708V145.122H232.224V138.606H239.124V131.706H246.024V117.906H252.541V111.389H259.824V97.5887H264.041L259.058 92.222H239.508L212.674 119.439H198.491V124.806H191.207V131.706H184.691V145.122H178.174V152.406H170.891V158.922H164.374V165.439H157.474V179.239H150.574V186.139H143.674V193.039H137.157V199.939H130.257V213.356H123.357V220.256H116.84V226.773H109.557V234.056H103.04V247.473H96.1403V254.373H89.2402V260.89H82.7235V267.79H75.8235V281.59H68.9235V288.106H62.0234V295.007H55.5067V301.907H41.7067V295.007H48.6067V288.106H55.5067V281.59H62.0234V267.79H68.9235V260.89H75.8235V254.373H82.7235V240.573H89.2402V226.773H96.1403V220.256H103.04V213.356H109.557V199.939H116.84V193.039H123.357V188.056H117.511L83.3944 221.789H73.682ZM266.521 202.847V199.173H273.421V185.373H280.321V178.473H281.899V202.847H266.521Z" fill="#BD8A96"/>
<path fill-rule="evenodd" clip-rule="evenodd" d="M28.975 199.943V186.143H35.875V179.626H42.3917V166.209H49.2917V159.309H56.1918V152.409H62.7085V145.893H69.6085V138.993H76.1252V132.476H83.0252V119.059H89.9253V112.159H96.442V105.259H103.342V99.1257H109.859V93.3757H122.892L130.176 100.659V132.476H123.275V138.993H116.759V145.893H109.859V152.409H103.342V159.309H96.442V166.209H89.9253V172.726H83.0252V186.143H76.1252V193.043H69.6085V199.943H62.7085V206.46H49.2917V211.06L42.0084 218.726H29.7416L22.4583 211.06V199.943H28.975ZM15.5582 186.143H22.4583V172.726H28.975V159.309H35.875V152.409H42.3917V145.893H49.2917V138.993H56.1918V132.476H62.7085V119.059H69.6085V112.159H76.1252V105.259H83.0252V98.7424H89.9253V85.3257H96.442V78.809H103.342V71.9089H109.859V65.3922H116.759V58.4922H123.275V51.5921H130.176V65.3922H123.275V71.9089H116.759V78.809H109.859V90.309H123.275L129.792 83.7923H143.209L189.592 37.7921V25.5253L183.459 19.392H164.676L150.492 33.192V38.1754H143.592V31.6587H148.576L163.526 16.7086H184.609L192.276 23.992V38.9421L144.359 86.4757H130.942L125.575 91.8424L132.092 99.1257H137.076V105.642H143.592V132.476H137.076V138.993H130.176V145.893H123.275V159.309H116.759V166.209H109.859V172.726H103.342V179.626H96.442V186.143H89.9253V193.043H83.0252V199.943H76.1252V206.46H62.7085V213.36H51.2084L45.8417 218.726H82.2586L116.375 184.993H130.176V186.143H130.271V179.243H137.171V165.443H138.834V161.451H143.688V158.926H145.734V154.551H150.588V152.409H152.634V148.034H157.488V145.126H159.15V93.7173L207.834 45.4231V17.3127L190.821 1.15039H157.081L142.131 16.1005H128.034V22.6172H121.517V29.5172H114.617V36.0339H107.717V42.934H101.201V49.834H94.3005V56.3507H87.7838V63.2507H80.8838V69.7674H74.3671V83.1842H67.467V89.7009H60.567V96.6009H54.0503V103.501H47.1503V116.918H40.6336V123.434H33.7335V130.334H26.8335V136.851H20.3168V143.751H13.4167V157.168H6.90004V170.585H0V228.918H13.6476L8.28086 234.285H19.547L22.3581 236.968H26.8335V237.351H89.2544V226.776H96.1545V220.26H103.055V213.36H109.571V199.943H116.855V193.043H123.371V188.06H117.525L83.4086 221.793H42.3917V221.41H28.5916L20.1582 213.36H15.5582V186.143ZM130.271 203.618H145.734V186.143H143.688V193.043H137.171V199.943H130.271V203.618ZM143.592 45.0754V38.1754H137.076V45.0754H130.176V51.5921H137.076V45.0754H143.592Z" fill="#BD8A96"/>
</svg>
