<svg width="422" height="235" viewBox="0 0 422 235" fill="none" xmlns="http://www.w3.org/2000/svg">
<path d="M350.759 74.0485V77.9816H345.702V82.7576H340.645V87.8144H335.869V92.8713H330.812V97.6473H325.755V102.704H320.698V107.761H315.922V112.537H310.865V117.594H305.808V122.651H301.033V127.427H295.976V137.54H290.919V147.373H286.143V155.801L291.481 161.139H300.471L359.468 102.423V92.3094L369.3 82.4766V73.2057L364.805 68.7107H356.096L350.759 74.0485ZM410.598 18.1419H405.541V23.1988H385.595V18.1419H370.424V14.7706L361.715 23.7606V37.5266L376.043 51.8544H380.819L386.157 57.4732V68.4297L371.267 83.3194V83.6004H370.986L361.434 93.1523V103.266L308.618 156.363L306.37 158.33L301.313 163.387H290.638L284.457 157.206H281.086V137.54H286.143V127.427H290.919V117.594H295.976V112.537H301.033V107.761H305.808V102.704H310.865V97.6473H315.922V92.8713H320.698V87.8144H330.812V82.7576H335.869V77.9816H345.702V72.9247H349.073L355.254 66.7441H365.648L371.267 72.3629V80.5101L384.471 67.5869V58.316L379.976 54.1019H374.919L359.468 38.6503V22.6369L370.143 12.2422H385.595V18.1419H405.541V13.3659H410.598V18.1419Z" fill="black"/>
<path d="M200.391 182.209H205.448V176.871H210.505V167.881H206.01L200.953 173.219H195.896L190.839 177.995H175.668L170.611 183.333H155.441L145.608 193.166H140.27L135.775 197.661V216.202H140.27L145.608 221.54H164.712L195.334 190.637V186.985H200.391V182.209ZM205.448 186.985H200.391V192.323H196.739L165.555 223.507H144.484L139.427 218.45H133.809V196.818L139.427 191.199H144.484L154.598 181.085H169.769L174.826 176.028H189.715L195.053 170.971H199.829L205.167 165.915H215.561V161.981H220.618V156.925H225.675V146.811H230.732V142.597H226.518L216.123 152.991H211.066L200.953 163.105H195.053L189.434 157.486V136.697H195.334V131.64H200.391V126.583H205.448V121.526H210.505V111.413H215.561V106.356H220.618V101.299H225.675V96.5229H230.732V91.1851H235.789V86.4092H240.846V81.0713H245.903V76.2954H250.96V71.2385H254.893V66.1816H257.14V81.0713H250.96V86.4092H245.903V91.1851H240.846V101.299H235.789V106.356H230.732V111.413H225.675V116.47H220.618V121.526H215.561V126.583H210.505V131.64H205.448V136.697H200.391V146.811H195.334V151.868H191.401V156.363L195.896 160.858H199.829L209.943 150.744H215.281L225.675 140.349H230.17L230.732 139.787V136.697H235.789V131.64H240.846V126.583H245.903V121.526H250.96V111.413H256.017V106.356H260.792V101.299H266.13V96.5229H270.906V91.1851H276.244V86.4092H281.02V81.0713H286.077V76.2954H291.134V71.2385H296.191V66.1816H306.304V71.2385H301.247V76.2954H296.191V81.0713H291.134V86.4092H286.077V91.1851H281.02V101.299H276.244V106.356H270.906V111.413H266.13V116.47H260.792V121.526H256.017V131.64H250.96V136.697H245.903V141.754H240.846V151.868H235.789V156.925H230.732V160.858H250.398L275.401 135.854H286.077V137.821H276.525L251.241 163.105H225.956L225.675 163.386V167.038H222.304L221.18 167.881H220.618V172.095H215.561V176.871H210.505V182.209H205.448V186.985Z" fill="black"/>
<path d="M174.695 66.4609H190.709L196.328 72.0797V87.2503H190.428V97.3641H185.09V102.421H180.314V107.197H175.257V117.311H170.2V122.087H165.424V127.424H160.367V132.2H155.311V137.257H150.254V147.371H145.478V156.361L150.816 161.137H159.806L184.809 136.134H195.204V138.1H185.652L160.648 163.384H149.692L144.635 158.328H139.016V137.538H140.14V137.257H145.478V132.2H150.254V122.087H155.311V117.311H160.367V112.535H165.424V107.197H170.2V102.421H175.257V97.3641H180.314V87.2503H185.09V82.4744H190.428V72.3606H193.518L189.866 68.4275H175.538L155.872 88.3741H145.478V92.3072H140.14V97.3641H135.364V107.197H130.588V112.535H125.25V117.311H120.474V122.087H115.417V132.2H110.361V137.257H105.304V142.314H100.528V147.371H95.4708V157.204H90.414V162.261H85.638V167.037H80.3002V172.375H75.5243V182.207H70.4674V187.264H65.4105V192.04H60.6346V197.097H55.5777V207.211H50.5208V211.987H45.4639V217.044H40.688V222.1H30.5742V217.044H35.6311V211.987H40.688V207.211H45.4639V197.097H50.5208V192.04H55.5777V187.264H60.6346V177.15H65.4105V167.037H70.4674V162.261H75.5243V157.204H80.3002V147.371H85.638V142.314H90.414V137.257H95.4708V132.2H100.528V122.087H105.304V117.311H110.361V112.535H115.417V107.197H120.474V102.421H125.25V97.3641H130.588V92.3072H135.364V82.4744H140.14V77.4175H145.478V72.3606H150.254V66.4609H160.367V72.3606H155.311V77.4175H150.254V82.4744H145.478V86.4075H155.03L174.695 66.4609Z" fill="black"/>
<path d="M36.1249 152.15H45.9577V147.374H51.0146V142.317H55.7905V137.26H60.8474V127.428H65.9043V122.652H70.6802V117.595H75.7371V112.538H80.5131V107.762H85.5699V102.705H90.3459V97.9292H95.4028V74.6113L90.0649 69.2735H80.5131V73.4876H75.7371V77.9826H70.6802V83.0394H65.9043V88.0963H60.8474V97.9292H55.7905V102.705H51.0146V107.762H45.9577V112.538H41.1818V117.595H36.1249V122.652H31.068V132.485H26.292V137.26H21.2352V147.374H16.4592V155.521L21.797 161.14H30.7871L36.1249 155.521V152.15ZM110.292 28.8184H105.236V33.8753H100.46V38.6513H95.4028V48.765H90.3459V53.541H85.5699V58.5979H80.5131V67.026H90.3459L95.1218 62.2501H104.955L138.948 28.5375V19.5475L134.453 15.0525H120.687L110.292 25.1663V28.8184ZM108.888 24.0425L119.844 13.0859H135.296L140.915 18.4238V29.3803L105.797 64.2166H95.9646L92.0315 68.1497L96.8074 73.4876H100.46V78.2635H105.236V97.9292H100.46V102.705H95.4028V107.762H90.3459V117.595H85.5699V122.652H80.5131V127.428H75.7371V132.485H70.6802V137.26H65.9043V142.317H60.8474V147.374H55.7905V152.15H45.9577V157.207H37.5296L33.5964 161.14H60.2855L85.289 136.418H95.4028V138.665H86.1318L61.1283 163.388H31.068V163.107H20.9542L14.7736 157.207H11.4023V137.26H16.4592V127.428H21.2352V117.595H26.292V112.538H31.068V107.762H36.1249V102.705H41.1818V97.9292H45.9577V88.0963H51.0146V83.0394H55.7905V77.9826H60.8474V73.2066H65.9043V63.3738H70.6802V58.5979H75.7371V53.541H80.5131V48.765H85.5699V43.7082H90.3459V38.6513H95.4028V33.8753H100.46V28.8184H105.236V24.0425H108.888Z" fill="black"/>
<path fill-rule="evenodd" clip-rule="evenodd" d="M349.073 72.9364H345.702V77.9933H335.869V82.7692H330.812V87.8261H320.698V92.883H315.922V97.6589H310.865V102.716H305.808V107.773H301.032V112.549H295.976V117.605H290.919V127.438H286.143V137.552H286.075V135.866H275.399L269.684 141.582V126.15H274.74V116.036H279.516V106.203H284.573V101.146H289.63V96.3704H294.406V91.3135H299.463V86.2566H304.52V81.4807H309.296V76.4238H319.41V71.367H324.466V66.591H334.299V61.5341H344.35L350.53 55.3535H360.034L348.065 43.385V17.8363L365.509 0.851573H368.044L376.043 0.851557L381.826 0.851573H396.997V1.97532H422V29.5558H416.944V34.6127H374.915L380.766 40.4638H385.714L397.559 52.9322V73.1644L382.669 88.0541V95.0143H375.709L372.836 97.8869V107.983L355.883 125.026L338.997 141.582L326.262 155.217L308.477 172.36L306.036 174.801H285.915L279.734 168.62H269.684V144.672L276.523 137.833H281.086V157.218H284.457L290.638 163.398H301.313L306.37 158.341L308.618 156.375L361.434 103.278V93.1639L370.986 83.612H371.267V83.3311L386.157 68.4414V57.4848L380.819 51.8661H376.043L361.715 37.5382V23.7723L370.424 14.7823V18.1535H385.595V23.2104H405.541V18.1535H410.598V13.3776H405.541V18.1535H385.595V12.2538H370.143L359.467 22.6485V38.662L374.919 54.1136H379.976L384.471 58.3276V67.5986L371.267 80.5217V72.3745L365.648 66.7558H355.253L349.073 72.9364ZM356.096 68.7223L350.758 74.0601V77.9933H345.702V82.7692H340.645V87.8261H335.869V92.883H330.812V97.6589H325.755V102.716H320.698V107.773H315.922V112.549H310.865V117.605H305.808V122.662H301.032V127.438H295.976V137.552H290.919V147.385H286.143V155.813L291.481 161.151H300.471L359.467 102.435V92.3211L369.3 82.4883V73.2173L364.805 68.7223H356.096ZM373.117 32.8153V29.5558H374.192V33.8905L373.117 32.8153Z" fill="#BD8A96"/>
<path fill-rule="evenodd" clip-rule="evenodd" d="M178.044 145.817V162.221L180.46 164.638H170.114L165.057 169.695H149.887L139.773 179.808H134.716L122.418 192.106V229.864H134.716L139.773 234.921H170.289L201.473 203.737H211.805V198.399H216.862V193.623H221.919V188.285H226.975V183.509H232.032V178.452H237.089V174.519H255.975L281.1 149.395V137.832H276.537L251.252 163.117H225.968L225.687 163.398V167.05H222.316L221.192 167.893H220.63V172.107H215.573V176.883H210.516V167.893H206.021L200.964 173.231H195.907L190.851 178.006H175.68L170.623 183.344H155.452L145.62 193.177H140.282L135.787 197.672V216.214H140.282L145.62 221.552H164.723L195.346 190.649V186.996H200.403V192.334H196.75L165.566 223.518H144.496L139.439 218.461H133.82V196.829L139.439 191.211H144.496L154.61 181.097H169.78L174.837 176.04H189.727L195.065 170.983H199.841L205.178 165.926H215.573V161.993H220.63V156.936H225.687V146.822H230.744V142.608H226.53L216.135 153.003H211.078L200.964 163.117H195.065L189.446 157.498V138.113H185.662L178.044 145.817ZM184.819 136.147H195.214V136.709H195.346V131.652H200.403V126.595H205.459V121.538H210.516V111.424H215.573V106.367H220.63V101.31H225.687V96.5345H230.744V91.1967H235.801V86.4208H240.858V81.083H245.914V76.307H250.971V71.2502H254.904V66.1933H257.152V81.083H250.971V86.4208H245.914V91.1967H240.858V101.31H235.801V106.367H230.744V111.424H225.687V116.481H220.63V121.538H215.573V126.595H210.516V131.652H205.459V136.709H200.403V146.822H195.346V151.879H191.412V156.374L195.907 160.869H199.841L209.954 150.756H215.292L225.687 140.361H230.182L230.744 139.799V136.709H235.801V131.652H240.858V126.595H245.914V121.538H250.971V111.424H256.028V106.367H260.804V101.31H266.142V96.5345H270.918V91.1967H276.256V86.4208H281.032V81.083H286.089V76.307H291.145V71.2502H296.202V66.1933H306.316V71.2502H301.259V76.307H296.202V81.083H291.145V86.4208H286.089V91.1967H281.032V101.31H276.256V106.367H270.918V111.424H266.142V116.481H260.804V121.538H256.028V131.652H250.971V136.709H245.914V141.765H240.858V151.879H235.801V156.936H230.744V160.869H250.409L275.413 135.866H286.089V137.551H286.157V127.438H290.933V124.464H277.544V122.826H282.32V117.77H287.658V112.713H292.434V102.599H297.491V97.823H302.548V92.4852H307.605V87.7093H312.661V82.6524H317.718V54.791H284.8V59.8479H279.743V64.9048H274.686V69.6807H269.629V75.0185H268.554V54.791H243.502V59.8479H239.569V64.9048H234.512V69.6807H229.455V75.0185H224.398V79.7945H219.342V85.1323H214.285V89.9082H209.228V94.9651H204.171V100.022H199.114V110.136H194.057V115.193H189V120.249H183.943V125.306H178.044V142.922L184.819 136.147ZM297.491 127.438H295.989V137.551H290.933V147.384H286.157V149.235H297.491V127.438ZM200.403 186.996H205.459V182.221H210.516V176.883H205.459V182.221H200.403V186.996ZM175.233 194.747H160.175L150.343 204.579H147.189V206.996L150.343 210.15H159.97L175.233 194.747Z" fill="#BD8A96"/>
<path fill-rule="evenodd" clip-rule="evenodd" d="M104.003 97.9376H105.222V95.8063H109.06V91.0304H113.836V85.9735H119.174V80.9166H123.95V71.0838H128.726V66.0269H134.064V60.97H138.84V55.0703H195.42L207.718 67.3684V70.9202L219.654 83.7745H207.718V98.6642H201.818V108.778H196.48V113.835H191.704V118.611H186.648V124.743H205.437V126.593H200.38V131.65H195.324V136.707H195.192V136.145H184.797L159.794 161.149H150.804L145.466 156.373V147.383H150.242V137.269H155.299V132.212H160.356V127.436H165.412V122.098H170.188V117.322H175.245V107.209H180.302V102.433H185.078V97.3757H190.416V87.262H196.316V72.0913L190.697 66.4726H174.683L155.018 86.4192H145.466V82.486H150.242V77.4292H155.299V72.3723H160.356V66.4726H150.242V72.3723H145.466V77.4292H140.128V82.486H135.352V92.3189H130.576V97.3757H125.238V102.433H120.462V107.209H115.406V112.546H110.349V117.322H105.292V122.098H100.516V132.212H95.459V137.269H95.3888V136.426H85.275L60.2716 161.149H53.9964V155.646H59.0533V150.87H64.1102V145.813H68.8861V137.269H70.6663V135.98H74.2239V132.493H75.7231V130.924H78.9999V127.436H80.4991V125.867H84.0568V122.66H85.556V120.81H89.1136V117.603H90.3319V110.696H93.8896V107.77H95.3888V105.92H98.9465V102.714H100.446V101.144H104.003V97.9376ZM53.9964 163.396V165.76H49.2205V175.874H44.1636V180.65H39.1067V185.706H34.0499V195.82H29.2739V200.596H24.217V205.653H19.1602V233.514H52.0784V228.458H56.8544V223.401H61.9112V218.625H66.9681V208.511H72.025V203.454H76.8009V198.678H81.8578V193.621H86.9147V183.788H91.6906V178.451H97.0285V173.675H101.804V168.618H106.861V158.785H111.918V153.728H116.694V148.671H121.751V143.614H126.808V133.501H127.602V169.742H139.9L144.957 174.798H165.397L189.424 150.501V138.112H185.64L160.637 163.396H149.68L144.623 158.339H139.004V137.55H140.128V137.269H145.466V132.212H150.242V122.098H155.299V117.322H160.356V112.546H165.412V107.209H170.188V102.433H175.245V97.3757H180.302V87.262H185.078V82.486H190.416V72.3723H193.506L189.854 68.4391H175.526L155.861 88.3857H145.466V92.3189H140.128V97.3757H135.352V107.209H130.576V112.546H125.238V117.322H120.462V122.098H115.406V132.212H110.349V137.269H105.292V142.326H100.516V147.383H95.459V157.215H90.4021V162.272H85.6262V167.048H80.2884V172.386H75.5124V182.219H70.4556V187.276H65.3987V192.052H60.6227V197.109H55.5659V207.222H50.509V211.998H45.4521V217.055H40.6762V222.112H30.5624V217.055H35.6193V211.998H40.6762V207.222H45.4521V197.109H50.509V192.052H55.5659V187.276H60.6227V177.162H65.3987V167.048H70.4556V162.272H75.5124V157.215H80.2884V147.383H85.6262V142.326H90.4021V138.674H86.1178L61.1144 163.396H53.9964ZM195.324 149.514V146.821H200.38V136.707H205.437V131.65H206.594V149.514H195.324Z" fill="#BD8A96"/>
<path fill-rule="evenodd" clip-rule="evenodd" d="M21.2351 147.386V137.272H26.292V132.496H31.0679V122.663H36.1248V117.606H41.1817V112.55H45.9576V107.774H51.0145V102.717H55.7904V97.9408H60.8473V88.108H65.9042V83.0511H70.6801V77.9942H75.737V73.4992H80.513V69.2851H90.0648L95.4027 74.623V97.9408H90.3458V102.717H85.5698V107.774H80.513V112.55H75.737V117.606H70.6801V122.663H65.9042V127.439H60.8473V137.272H55.7904V142.329H51.0145V147.386H45.9576V152.162H36.1248V155.533L30.787 161.152H21.797L16.4591 155.533V147.386H21.2351ZM11.4023 137.272H16.4591V127.439H21.2351V117.606H26.292V112.55H31.0679V107.774H36.1248V102.717H41.1817V97.9408H45.9576V88.108H51.0145V83.0511H55.7904V77.9942H60.8473V73.2183H65.9042V63.3854H70.6801V58.6095H75.737V53.5526H80.513V48.7767H85.5698V43.7198H90.3458V38.6629H95.4027V48.7767H90.3458V53.5526H85.5698V58.6095H80.513V67.0376H90.3458L95.1217 62.2617H104.955L138.948 28.5492V19.5591L134.453 15.0642H120.687L110.292 25.1779V28.8301H105.235V24.0542H108.888L119.844 13.0976H135.296L140.915 18.4354V29.392L105.797 64.2283H95.9645L92.0314 68.1614L96.8073 73.4992H100.46V78.2751H105.235V97.9408H100.46V102.717H95.4027V107.774H90.3458V117.606H85.5698V122.663H80.513V127.439H75.737V132.496H70.6801V137.272H65.9042V142.329H60.8473V147.386H55.7904V152.162H45.9576V157.219H37.5295L33.5963 161.152H60.2854L85.2889 136.429H95.4027V137.272H95.4729V132.215H100.53V122.101H101.748V119.176H105.306V117.326H106.805V114.119H110.363V112.55H111.862V109.343H115.419V107.212H116.638V69.5355L152.317 34.1418V13.5403L139.848 1.69531H115.121L104.165 12.6519H93.8332V17.4278H89.0573V22.4847H84.0004V27.2607H78.9435V32.3175H74.1676V37.3744H69.1107V42.1503H64.3347V47.2072H59.2779V51.9832H54.5019V61.816H49.445V66.5919H44.3882V71.6488H39.6122V76.7057H34.5553V86.5385H29.7794V91.3145H24.7225V96.3714H19.6656V101.147H14.8897V106.204H9.83282V116.037H5.05688V125.87H0V168.621H10.002L6.06885 172.554H14.3255L16.3857 174.521H19.6656V174.802H65.4125V167.052H70.4694V162.276H75.5263V157.219H80.3022V147.386H85.6401V142.329H90.416V138.677H86.1317L61.1282 163.399H31.0679V163.118H20.9541L14.7735 157.219H11.4023V137.272ZM95.4729 150.079H106.805V137.272H105.306V142.329H100.53V147.386H95.4729V150.079ZM105.235 33.887V28.8301H100.46V33.887H95.4027V38.6629H100.46V33.887H105.235Z" fill="#BD8A96"/>
</svg>
