<svg width="168" height="90" viewBox="0 0 168 90" fill="none" xmlns="http://www.w3.org/2000/svg">
<path d="M9.59199 70.4713C9.65353 70.8251 9.74584 71.179 9.74584 71.5482C9.73046 71.9944 9.74584 72.4559 9.73046 72.9175C9.73046 73.0559 9.69969 73.2098 9.66892 73.3636C9.66892 73.4559 9.65353 73.5482 9.63815 73.6405C9.56122 74.3482 9.39199 75.0252 9.16122 75.6867C9.02275 76.0714 8.85352 76.4252 8.60736 76.7483C8.53044 76.8714 8.42274 76.9944 8.33043 77.1021C8.06889 77.3791 7.77658 77.5637 7.39196 77.6098C7.33042 77.6252 7.25349 77.656 7.17657 77.6714C7.08426 77.6406 6.99195 77.6098 6.89964 77.5945C6.54579 77.5175 6.28424 77.3021 6.09963 76.9944C5.96116 76.7944 5.83808 76.5791 5.76116 76.3483C5.63808 76.0098 5.515 75.6713 5.49961 75.3021C5.37654 74.8713 5.39192 74.4252 5.40731 73.9944C5.40731 73.7482 5.40731 73.5021 5.46885 73.2559C5.53038 73.0251 5.49961 72.7636 5.59192 72.5328C5.66885 72.0559 5.80731 71.6097 5.96116 71.1482C5.94578 71.0866 5.91501 71.0097 5.89962 70.9328C5.88424 70.8866 5.86885 70.8251 5.86885 70.779C5.86885 70.6097 5.94578 70.4866 6.03809 70.3636C6.08424 70.2866 6.16116 70.2097 6.2227 70.1328C6.5304 69.7635 6.56117 69.702 6.69964 69.1789C6.80733 68.9789 6.96118 68.8097 7.1458 68.6866C7.33042 68.6097 7.53042 68.6251 7.73042 68.6866C7.80735 68.7635 7.91504 68.8558 8.02274 68.9482C8.1612 68.9635 8.31505 68.9943 8.48428 69.0097C8.88429 69.1482 9.16122 69.4405 9.36122 69.8405C9.45353 70.0405 9.54584 70.2559 9.59199 70.4713ZM8.7766 72.5174C8.82275 72.1021 8.82275 71.6867 8.76121 71.2713C8.74583 71.1328 8.73044 71.0097 8.71506 70.8713C8.71506 70.6559 8.63813 70.4559 8.57659 70.2559C8.53044 70.1328 8.45351 70.0251 8.34582 69.9328C8.28428 69.8712 8.20735 69.8251 8.08428 69.8251C7.80735 69.9174 7.57657 70.1174 7.37657 70.3482C7.22272 70.5328 7.09964 70.7174 7.00733 70.9328C6.65348 71.7328 6.37655 72.5482 6.28424 73.4405C6.28424 73.5175 6.26886 73.579 6.25347 73.6559C6.23809 73.7944 6.2227 73.9175 6.20732 74.0559C6.19193 74.4713 6.23809 74.8867 6.29963 75.3021C6.36117 75.6867 6.48425 76.0406 6.68425 76.3637C6.77656 76.5329 6.89964 76.6867 7.09964 76.7483C7.25349 76.7483 7.33042 76.7021 7.40734 76.6406C7.5458 76.5329 7.66888 76.4098 7.76119 76.2714C7.89966 76.0406 8.03812 75.8252 8.13043 75.5637C8.40736 74.9175 8.69967 73.5636 8.71506 72.9636C8.73044 72.8098 8.76121 72.6713 8.7766 72.5174ZM19.1882 68.0404C19.2343 68.1789 19.2343 68.3481 19.1882 68.4866C19.1267 68.7481 19.0805 69.0097 19.019 69.2712C18.9267 69.6712 18.8343 70.0866 18.7882 70.502C18.6959 70.7636 18.7266 71.0559 18.6343 71.3174C18.6343 71.6097 18.5574 71.8713 18.5266 72.1482C18.5266 72.2559 18.5113 72.3482 18.4959 72.4405C18.4805 72.5328 18.4651 72.6098 18.4651 72.6867C18.4497 72.9175 18.4497 73.1328 18.3882 73.3636C18.3728 73.4559 18.3728 73.5482 18.3728 73.6559C18.3574 73.8867 18.3574 74.1329 18.3113 74.3636C18.2959 74.4559 18.2959 74.5636 18.2959 74.6559C18.2959 74.9944 18.2959 75.3329 18.2959 75.656C18.2959 75.8098 18.2959 75.9483 18.342 76.0867C18.342 76.1329 18.3574 76.1944 18.3574 76.2406C18.3574 76.5483 18.4343 76.856 18.4959 77.1483C18.5266 77.3021 18.542 77.456 18.542 77.6098C18.542 77.656 18.5266 77.6868 18.5266 77.7175C18.4805 77.7945 18.4036 77.8252 18.342 77.8406C18.2651 77.8406 18.2036 77.8098 18.1574 77.7637C18.0959 77.6868 18.0497 77.5945 18.0497 77.5021C18.0343 77.3791 18.0343 77.2714 18.0343 77.1637C18.0189 76.1637 18.0189 75.179 18.0497 74.179C18.0497 74.1175 18.0497 74.0405 18.0497 73.979C18.1113 73.7021 18.0959 73.4098 18.1113 73.1328C18.1266 72.8867 18.1266 72.6405 18.1728 72.379C18.1882 72.3174 18.1882 72.2405 18.1882 72.179C18.1728 72.1482 18.142 72.1328 18.1266 72.1174C18.0036 72.1482 17.8959 72.1944 17.7574 72.2405C17.6959 72.2559 17.6036 72.2559 17.5266 72.2713C17.3882 72.2867 17.2497 72.3174 17.1112 72.3174C16.9728 72.3174 16.8343 72.2867 16.6958 72.2713C16.342 72.2405 16.2497 72.2251 15.7881 72.1021C15.7574 72.1021 15.7112 72.1021 15.6651 72.0867C15.6497 72.1174 15.6035 72.1174 15.6035 72.1482C15.5574 72.3174 15.5112 72.5021 15.5112 72.6867C15.5112 72.7482 15.4958 72.8251 15.4804 72.8867C15.4343 73.0098 15.4343 73.1328 15.4343 73.2559C15.4189 73.3944 15.4035 73.5175 15.3727 73.6405C15.3574 73.7175 15.3574 73.7944 15.342 73.8867C15.342 74.0713 15.3266 74.2406 15.2958 74.4252C15.265 74.5329 15.265 74.6406 15.265 74.7636C15.2497 75.0559 15.265 75.3483 15.2035 75.6406C15.2035 76.1175 15.1574 76.5944 15.2343 77.056C15.2497 77.1483 15.2497 77.2252 15.2497 77.3175C15.2497 77.5329 15.3112 77.7483 15.3574 77.9791C15.3727 78.0714 15.4189 78.1483 15.5112 78.2098C15.6035 78.2714 15.6343 78.3637 15.6497 78.456C15.6343 78.6099 15.5112 78.656 15.3881 78.6868C15.2804 78.656 15.1727 78.6099 15.1112 78.4868C15.065 78.2714 15.0035 78.0406 15.0035 77.8098C14.9112 77.3791 14.9266 76.9483 14.9112 76.5175C14.9112 75.979 14.9266 75.4406 14.9266 74.9175C14.942 74.7329 14.942 74.5482 14.9727 74.379C15.0035 74.2713 14.9881 74.1482 15.0035 74.0405C15.0189 73.8098 15.0189 73.5636 15.065 73.3328C15.0958 73.2251 15.0804 73.1021 15.0958 72.9944C15.0958 72.8405 15.1112 72.6867 15.142 72.5328C15.1881 72.3636 15.1881 72.179 15.1727 72.0097C15.1574 71.9636 15.1266 71.9328 15.0804 71.9174C14.8958 71.8559 14.7112 71.8097 14.5112 71.8405C14.4496 71.8405 14.3881 71.8251 14.3573 71.8251C14.1881 71.7636 14.0804 71.6559 14.0189 71.5174C13.9881 71.379 14.0343 71.2559 14.0958 71.1482C14.1881 71.0405 14.3112 70.979 14.465 70.979C14.5573 70.979 14.6343 70.9943 14.7112 71.0405C14.7727 71.102 14.8343 71.1482 14.9112 71.1943C15.0035 71.2559 15.0958 71.3174 15.2189 71.3328C15.2343 71.302 15.2804 71.2713 15.2958 71.2405C15.3112 71.2097 15.3266 71.1636 15.3266 71.1174C15.3266 70.8097 15.4189 70.5174 15.4343 70.2097C15.5266 69.7943 15.5574 69.3789 15.6497 68.9789C15.6958 68.7943 15.7112 68.6097 15.742 68.4097C15.742 68.3174 15.742 68.2097 15.742 68.102C15.7574 67.902 15.8343 67.7481 16.0035 67.6558C16.0343 67.6404 16.0651 67.6404 16.0958 67.6251C16.3881 67.5789 16.5728 67.6558 16.6805 67.9635C16.6958 68.0866 16.7112 68.2097 16.6805 68.3174C16.6189 68.4866 16.4805 68.5635 16.3881 68.6558C16.2343 68.9328 16.1881 69.2251 16.1112 69.5174C15.9728 70.0866 15.8343 70.6559 15.742 71.2251C15.742 71.302 15.7112 71.3636 15.6958 71.4405C15.6958 71.4559 15.7112 71.4867 15.7266 71.5174C15.8804 71.5944 16.0804 71.6559 16.2343 71.6713C16.3881 71.6867 16.5266 71.6867 16.6651 71.7174C16.7574 71.7328 16.8497 71.7328 16.9574 71.7174C17.0651 71.7174 17.1728 71.6867 17.2805 71.6559C17.3728 71.6405 17.4651 71.5944 17.5574 71.5636C17.7112 71.4713 17.8343 71.3174 18.0343 71.2559C18.0805 71.2559 18.142 71.2405 18.2189 71.2251C18.2343 71.1943 18.2651 71.1636 18.2651 71.1174C18.2805 70.6713 18.3728 70.2405 18.3882 69.7789C18.3882 69.7174 18.4036 69.6405 18.4036 69.5789C18.4497 69.302 18.4651 69.0251 18.4497 68.7481C18.4497 68.7328 18.4343 68.7174 18.4343 68.702C18.342 68.6405 18.2497 68.5789 18.1728 68.5481C18.0343 68.3789 18.0036 68.2251 18.0497 68.0404C18.1113 67.902 18.2189 67.7943 18.3574 67.7327C18.5266 67.702 18.6959 67.702 18.8651 67.7327C19.019 67.7789 19.1267 67.8866 19.1882 68.0404ZM24.2257 70.4713C24.2872 70.8251 24.3795 71.179 24.3795 71.5482C24.3641 71.9944 24.3795 72.4559 24.3641 72.9175C24.3641 73.0559 24.3334 73.2098 24.3026 73.3636C24.3026 73.4559 24.2872 73.5482 24.2718 73.6405C24.1949 74.3482 24.0257 75.0252 23.7949 75.6867C23.6564 76.0714 23.4872 76.4252 23.241 76.7483C23.1641 76.8714 23.0564 76.9944 22.9641 77.1021C22.7026 77.3791 22.4102 77.5637 22.0256 77.6098C21.9641 77.6252 21.8872 77.656 21.8102 77.6714C21.7179 77.6406 21.6256 77.6098 21.5333 77.5945C21.1795 77.5175 20.9179 77.3021 20.7333 76.9944C20.5948 76.7944 20.4717 76.5791 20.3948 76.3483C20.2717 76.0098 20.1487 75.6713 20.1333 75.3021C20.0102 74.8713 20.0256 74.4252 20.041 73.9944C20.041 73.7482 20.041 73.5021 20.1025 73.2559C20.1641 73.0251 20.1333 72.7636 20.2256 72.5328C20.3025 72.0559 20.441 71.6097 20.5948 71.1482C20.5794 71.0866 20.5487 71.0097 20.5333 70.9328C20.5179 70.8866 20.5025 70.8251 20.5025 70.779C20.5025 70.6097 20.5794 70.4866 20.6718 70.3636C20.7179 70.2866 20.7948 70.2097 20.8564 70.1328C21.1641 69.7635 21.1948 69.702 21.3333 69.1789C21.441 68.9789 21.5948 68.8097 21.7795 68.6866C21.9641 68.6097 22.1641 68.6251 22.3641 68.6866C22.441 68.7635 22.5487 68.8558 22.6564 68.9482C22.7949 68.9635 22.9487 68.9943 23.1179 69.0097C23.518 69.1482 23.7949 69.4405 23.9949 69.8405C24.0872 70.0405 24.1795 70.2559 24.2257 70.4713ZM23.4103 72.5174C23.4564 72.1021 23.4564 71.6867 23.3949 71.2713C23.3795 71.1328 23.3641 71.0097 23.3487 70.8713C23.3487 70.6559 23.2718 70.4559 23.2103 70.2559C23.1641 70.1328 23.0872 70.0251 22.9795 69.9328C22.9179 69.8712 22.841 69.8251 22.7179 69.8251C22.441 69.9174 22.2102 70.1174 22.0102 70.3482C21.8564 70.5328 21.7333 70.7174 21.641 70.9328C21.2871 71.7328 21.0102 72.5482 20.9179 73.4405C20.9179 73.5175 20.9025 73.579 20.8871 73.6559C20.8718 73.7944 20.8564 73.9175 20.841 74.0559C20.8256 74.4713 20.8718 74.8867 20.9333 75.3021C20.9948 75.6867 21.1179 76.0406 21.3179 76.3637C21.4102 76.5329 21.5333 76.6867 21.7333 76.7483C21.8872 76.7483 21.9641 76.7021 22.041 76.6406C22.1795 76.5329 22.3026 76.4098 22.3949 76.2714C22.5333 76.0406 22.6718 75.8252 22.7641 75.5637C23.041 74.9175 23.3333 73.5636 23.3487 72.9636C23.3641 72.8098 23.3949 72.6713 23.4103 72.5174ZM31.0087 72.3021C31.0241 72.4405 31.0395 72.579 31.0549 72.7174C31.0395 72.8405 31.0241 72.979 31.0241 73.1021C30.9933 73.5021 30.8856 73.8867 30.7472 74.2713C30.5318 74.8713 30.2087 75.4098 29.7933 75.9021C29.2702 76.5329 28.6241 76.9944 27.8087 77.2252C27.4856 77.3175 27.1625 77.3791 26.824 77.3637C26.7779 77.3637 26.7471 77.3791 26.7009 77.3945C26.6856 77.3945 26.6856 77.4098 26.6702 77.4252C26.7009 77.6406 26.7779 77.856 26.8548 78.056C26.8702 78.1175 26.8856 78.1637 26.8856 78.2252C26.8856 78.2868 26.8856 78.3329 26.8856 78.3637C26.8394 78.5022 26.7625 78.5791 26.6548 78.6252C26.5471 78.656 26.4394 78.656 26.3317 78.5945C26.2086 78.5175 26.1625 78.4099 26.1471 78.2868C26.1009 78.0868 26.0394 77.9022 26.0394 77.7021C26.0394 77.5483 25.9932 77.4098 25.9625 77.2714C25.8702 77.1944 25.7779 77.1791 25.6855 77.1329C25.5932 77.1021 25.5009 77.0714 25.4086 77.0252C25.3317 76.9791 25.2855 76.9175 25.2394 76.8406C25.224 76.7944 25.2086 76.7329 25.224 76.6714C25.2548 76.5483 25.3163 76.4406 25.4702 76.379C25.5317 76.379 25.6086 76.379 25.7009 76.379C25.7625 76.3944 25.824 76.4252 25.8855 76.4406C25.9163 76.4098 25.9317 76.379 25.9317 76.3637C25.9471 76.2867 25.9471 76.1944 25.9471 76.1175C25.9471 75.6406 25.9625 75.1636 25.9625 74.6867C25.9779 74.5329 25.9779 74.379 26.0086 74.2252C26.0394 74.1021 26.0394 73.979 26.0394 73.8559C26.0548 73.6713 26.0548 73.4867 26.0855 73.3021C26.0548 73.1944 26.024 73.0713 26.0548 72.9328C26.1009 72.8098 26.1471 72.6713 26.1932 72.5636C26.3163 71.5636 26.5009 70.5943 26.6856 69.6405C26.6394 69.5635 26.5779 69.5328 26.4856 69.5174C26.1471 69.7635 25.7625 69.9636 25.4548 70.2866C25.5009 70.4251 25.5625 70.5482 25.6086 70.6559C25.6086 70.8097 25.5625 70.9174 25.4702 71.0251C25.3932 71.1482 25.2548 71.1943 25.1009 71.2251C25.024 71.2097 24.9317 71.179 24.8548 71.1636C24.7317 71.0866 24.6394 70.979 24.5624 70.8559C24.5317 70.779 24.5009 70.6713 24.4701 70.5789C24.4701 70.4251 24.5317 70.2866 24.6394 70.1943C24.6855 70.1482 24.7471 70.102 24.8086 70.0712C25.0548 69.902 25.3163 69.7328 25.5778 69.5635C25.824 69.3943 26.0702 69.2405 26.3317 69.0866C26.4548 68.8097 26.6856 68.5943 26.9009 68.4404C27.0086 68.3789 27.101 68.3789 27.1779 68.3789C27.2702 68.3789 27.3471 68.3943 27.4548 68.4097C27.5317 68.3635 27.6087 68.3174 27.701 68.2712C27.9471 68.1481 28.1933 68.0251 28.4394 67.902C28.6394 67.7943 28.8548 67.7174 29.0702 67.6712C29.3933 67.6097 29.6241 67.7174 29.7625 68.0097C29.7779 68.0558 29.7933 68.0866 29.8087 68.1174C29.8702 68.4866 29.7779 68.8251 29.6856 69.1635C29.5164 69.7174 29.2856 70.2559 28.9933 70.779C28.9779 70.8251 28.9318 70.8559 28.9318 70.9328C28.9933 70.979 29.0548 70.9174 29.1318 70.9174C29.1779 70.9174 29.2395 70.902 29.301 70.902C29.3625 70.902 29.4395 70.902 29.501 70.902C29.5625 70.902 29.6087 70.902 29.6702 70.902C29.7472 70.902 29.8087 70.9174 29.8856 70.9174C29.9933 70.9482 30.101 70.979 30.1933 71.0251C30.2395 71.0559 30.301 71.0866 30.3472 71.102C30.5626 71.2405 30.7318 71.4251 30.8395 71.6713C30.9318 71.8713 30.9933 72.0867 31.0087 72.3021ZM26.9009 71.5636C26.8856 71.6559 26.8856 71.7636 26.8702 71.8713C26.8856 71.8867 26.9163 71.902 26.9317 71.9328C27.1625 71.8251 27.3471 71.6405 27.5779 71.5328C27.7933 71.4251 28.024 71.302 28.2394 71.1943C28.6702 70.5943 28.8702 70.1174 29.0702 69.6405C29.2087 69.302 29.301 68.9482 29.3779 68.5943C29.3933 68.4866 29.4087 68.3789 29.3779 68.2712C29.3625 68.2097 29.301 68.1328 29.2395 68.1328C29.1164 68.1328 29.0087 68.1481 28.901 68.1943C28.4856 68.3481 28.0856 68.5481 27.701 68.7789C27.6702 68.8097 27.6394 68.8405 27.624 68.8558C27.2856 69.8097 27.1471 70.4713 26.9009 71.5636ZM30.4241 73.5328C30.4702 73.3328 30.501 73.1175 30.501 72.9175C30.501 72.7328 30.501 72.5482 30.4856 72.3944C30.3625 71.9944 30.3472 71.9174 30.2395 71.7944C30.1779 71.7174 30.101 71.6713 30.0395 71.6097C29.9318 71.579 29.8395 71.5482 29.7779 71.5328C29.5318 71.4867 29.3471 71.5636 29.1625 71.5944C28.6856 71.7636 28.224 71.9636 27.901 72.379C27.824 72.4559 27.7471 72.5328 27.6702 72.6098C27.424 72.8713 27.1471 73.0867 26.8548 73.2867C26.7933 73.3328 26.7163 73.379 26.6702 73.4252C26.6086 73.5328 26.5779 73.6405 26.5625 73.7482C26.5625 73.9329 26.5471 74.1175 26.5317 74.3021C26.5163 74.4713 26.4856 74.6559 26.4856 74.8406C26.4702 75.3175 26.4856 75.7944 26.4856 76.2714C26.4856 76.3944 26.5009 76.5175 26.5317 76.6406C26.5471 76.6867 26.5625 76.7483 26.624 76.7791C26.7471 76.7944 26.8856 76.8252 27.024 76.8406C27.0856 76.856 27.1471 76.856 27.1933 76.856C27.3625 76.8252 27.5317 76.8098 27.6856 76.7637C28.0394 76.6714 28.3779 76.5175 28.6702 76.3021C28.9779 76.056 29.2702 75.8098 29.501 75.4867C29.9472 74.9021 30.2702 74.2559 30.4241 73.5328ZM36.2601 70.4713C36.3217 70.8251 36.414 71.179 36.414 71.5482C36.3986 71.9944 36.414 72.4559 36.3986 72.9175C36.3986 73.0559 36.3678 73.2098 36.337 73.3636C36.337 73.4559 36.3217 73.5482 36.3063 73.6405C36.2294 74.3482 36.0601 75.0252 35.8293 75.6867C35.6909 76.0714 35.5216 76.4252 35.2755 76.7483C35.1986 76.8714 35.0909 76.9944 34.9986 77.1021C34.737 77.3791 34.4447 77.5637 34.0601 77.6098C33.9985 77.6252 33.9216 77.656 33.8447 77.6714C33.7524 77.6406 33.6601 77.6098 33.5678 77.5945C33.2139 77.5175 32.9524 77.3021 32.7678 76.9944C32.6293 76.7944 32.5062 76.5791 32.4293 76.3483C32.3062 76.0098 32.1831 75.6713 32.1677 75.3021C32.0447 74.8713 32.0601 74.4252 32.0754 73.9944C32.0754 73.7482 32.0754 73.5021 32.137 73.2559C32.1985 73.0251 32.1677 72.7636 32.2601 72.5328C32.337 72.0559 32.4754 71.6097 32.6293 71.1482C32.6139 71.0866 32.5831 71.0097 32.5678 70.9328C32.5524 70.8866 32.537 70.8251 32.537 70.779C32.537 70.6097 32.6139 70.4866 32.7062 70.3636C32.7524 70.2866 32.8293 70.2097 32.8908 70.1328C33.1985 69.7635 33.2293 69.702 33.3678 69.1789C33.4755 68.9789 33.6293 68.8097 33.8139 68.6866C33.9985 68.6097 34.1985 68.6251 34.3986 68.6866C34.4755 68.7635 34.5832 68.8558 34.6909 68.9482C34.8293 68.9635 34.9832 68.9943 35.1524 69.0097C35.5524 69.1482 35.8293 69.4405 36.0294 69.8405C36.1217 70.0405 36.214 70.2559 36.2601 70.4713ZM35.4447 72.5174C35.4909 72.1021 35.4909 71.6867 35.4293 71.2713C35.414 71.1328 35.3986 71.0097 35.3832 70.8713C35.3832 70.6559 35.3063 70.4559 35.2447 70.2559C35.1986 70.1328 35.1216 70.0251 35.0139 69.9328C34.9524 69.8712 34.8755 69.8251 34.7524 69.8251C34.4755 69.9174 34.2447 70.1174 34.0447 70.3482C33.8909 70.5328 33.7678 70.7174 33.6755 70.9328C33.3216 71.7328 33.0447 72.5482 32.9524 73.4405C32.9524 73.5175 32.937 73.579 32.9216 73.6559C32.9062 73.7944 32.8908 73.9175 32.8754 74.0559C32.8601 74.4713 32.9062 74.8867 32.9678 75.3021C33.0293 75.6867 33.1524 76.0406 33.3524 76.3637C33.4447 76.5329 33.5678 76.6867 33.7678 76.7483C33.9216 76.7483 33.9985 76.7021 34.0755 76.6406C34.2139 76.5329 34.337 76.4098 34.4293 76.2714C34.5678 76.0406 34.7063 75.8252 34.7986 75.5637C35.0755 74.9175 35.3678 73.5636 35.3832 72.9636C35.3986 72.8098 35.4293 72.6713 35.4447 72.5174ZM43.1491 79.456C43.1798 79.5791 43.1952 79.7022 43.226 79.8253C43.226 79.933 43.1645 80.0099 43.0875 80.0714C43.026 80.1176 42.9644 80.1176 42.8875 80.1022C42.7952 80.0714 42.7337 79.9945 42.6875 79.9022C42.6875 79.8714 42.6721 79.856 42.6721 79.8253C42.6567 79.7022 42.6567 79.5791 42.6414 79.4406C42.6414 79.3791 42.6414 79.3022 42.626 79.2406C42.5644 78.8714 42.5798 78.5175 42.5798 78.1483C42.5644 76.856 42.5798 75.579 42.5798 74.2867C42.5798 73.6713 42.5798 73.0559 42.5798 72.4405C42.5798 72.3328 42.5798 72.2097 42.5644 72.1174C42.5337 72.0867 42.5183 72.0867 42.5029 72.1328C42.4721 72.179 42.4414 72.2251 42.426 72.2867C42.1337 73.179 41.7644 74.0559 41.3644 74.9175C41.026 75.656 40.6413 76.3637 40.1952 77.056C39.8567 77.5637 39.4721 78.056 39.0259 78.4868C38.8567 78.656 38.6567 78.8099 38.4413 78.9483C38.2567 79.0714 38.0413 79.1483 37.8259 79.1791C37.5797 79.1483 37.4413 79.0099 37.3644 78.7176C37.349 78.5945 37.3336 78.3945 37.349 78.1945C37.349 77.5791 37.3644 76.9637 37.3797 76.3483C37.3797 76.1637 37.4259 75.9637 37.4413 75.7637C37.4567 75.5944 37.4413 75.4098 37.472 75.2252C37.5182 74.9636 37.5182 74.7021 37.549 74.4406C37.549 74.2559 37.6105 74.0713 37.6105 73.9021C37.6105 73.7328 37.6259 73.5636 37.672 73.3944C37.7028 73.3328 37.6874 73.2559 37.7028 73.1944C37.7028 73.0559 37.7028 72.9021 37.749 72.779C37.7644 72.7482 37.7644 72.7174 37.7644 72.6867C37.7644 72.3944 37.8567 72.1174 37.8721 71.8251C37.8874 71.6867 37.9336 71.5482 37.949 71.4097C37.9644 71.2713 37.9644 71.1328 38.0105 70.9943C38.0259 70.9482 38.0259 70.902 38.0259 70.8713C38.0259 70.6866 38.0721 70.502 38.1028 70.3328C38.1336 70.1636 38.149 69.9943 38.1797 69.8251C38.1951 69.7635 38.1951 69.6866 38.1951 69.6251C38.149 69.5328 38.1028 69.4405 38.0721 69.3635C38.0259 69.2712 38.0259 69.1635 38.0721 69.0712C38.1028 68.9789 38.149 68.902 38.2105 68.8251C38.2874 68.7328 38.3798 68.6712 38.4874 68.6251C38.5951 68.5943 38.7028 68.5943 38.8105 68.6251C38.9028 68.6558 38.9644 68.7174 39.0105 68.7789C39.1028 68.8866 39.1336 68.9943 39.1182 69.1328C39.1028 69.1943 39.0875 69.2405 39.0721 69.302C38.8567 70.0251 38.6721 70.779 38.4874 71.5174C38.4105 71.8559 38.349 72.2097 38.2874 72.5482C38.2413 72.7636 38.1797 72.979 38.149 73.2098C38.1028 73.4559 38.0721 73.7328 38.0259 73.9944C37.9797 74.2713 37.949 74.5636 37.9028 74.8559C37.8874 74.9483 37.8721 75.0252 37.8721 75.1021C37.8567 75.2867 37.8567 75.4713 37.8105 75.656C37.7797 75.779 37.7951 75.9329 37.7797 76.0714C37.7644 76.256 37.7797 76.456 37.7336 76.656C37.7182 76.7021 37.7182 76.7637 37.7182 76.8252C37.7182 77.2098 37.7182 77.5945 37.7028 77.9945C37.7028 78.1637 37.7336 78.3329 37.8105 78.5022C37.9336 78.4714 38.0105 78.4099 38.0721 78.3329C38.7644 77.5791 39.349 76.7483 39.8721 75.856C40.149 75.3944 40.4259 74.9175 40.6567 74.4252C41.149 73.3944 41.6106 72.3482 41.9183 71.2405C42.0106 70.9174 42.0875 70.5943 42.1644 70.2559C42.2106 70.0251 42.226 69.7943 42.3183 69.5635C42.3337 69.5482 42.3491 69.5174 42.3644 69.4866C42.4414 69.3789 42.5644 69.3174 42.6875 69.302C42.7952 69.3174 42.8721 69.3482 42.9337 69.3943C42.9798 69.4251 43.0106 69.4559 43.026 69.4712C43.0875 69.5789 43.1029 69.6866 43.1337 69.8097C43.1337 70.0559 43.1337 70.302 43.1337 70.5636C43.1337 70.5943 43.1491 70.6405 43.1337 70.6866C43.0721 70.9943 43.0875 71.3174 43.0721 71.6405C43.0568 71.8713 43.0568 72.0867 43.0106 72.3174C42.9952 72.4405 42.9952 72.5944 42.9952 72.7328C42.9798 73.0559 42.9952 73.379 42.9337 73.6867C42.9183 73.7944 42.9183 73.9175 42.9183 74.0252C42.9029 74.4559 42.9029 74.9021 42.8875 75.3329C42.8875 75.5483 42.8875 75.779 42.8568 75.9944C42.826 76.2252 42.826 76.4406 42.8568 76.6714C42.8875 76.9021 42.8875 77.1483 42.8875 77.3791C42.9029 77.5637 42.9029 77.7483 42.9029 77.9329C42.9183 78.0868 42.9183 78.256 42.9644 78.4252C42.9798 78.456 42.9798 78.4868 42.9798 78.5022C42.9952 78.8252 43.0721 79.1483 43.1491 79.456ZM39.8413 67.1327C39.8259 67.1173 39.8105 67.0866 39.7952 67.0558C39.7952 66.9943 39.7798 66.9173 39.7952 66.8558C39.7952 66.7481 39.8567 66.6712 39.9336 66.6096C39.9952 66.5789 40.0567 66.5635 40.1182 66.5327C40.6106 66.4866 41.1029 66.4096 41.5798 66.3173C41.6413 66.2866 41.7183 66.2404 41.7952 66.2096C41.826 66.1943 41.8567 66.1943 41.8721 66.1943C42.0414 66.1789 42.149 66.2558 42.2106 66.3943C42.2721 66.5481 42.2567 66.702 42.1337 66.825C42.1029 66.8558 42.0721 66.8712 42.026 66.9173C41.8414 66.9481 41.6413 67.0097 41.426 67.0097C41.1644 67.0097 40.9336 67.0558 40.6875 67.1481C40.6259 67.1789 40.549 67.1789 40.4875 67.2097C40.349 67.2712 40.1952 67.2866 40.0413 67.2712C39.9644 67.2404 39.8875 67.1943 39.8413 67.1327ZM51.6312 69.0251C51.7081 69.2558 51.7696 69.4866 51.7696 69.7174C51.7696 70.0251 51.7696 70.3482 51.7543 70.6559C51.7543 70.7482 51.7543 70.8405 51.7235 70.9328C51.7081 70.9636 51.7081 71.0097 51.7081 71.0405C51.6466 71.6097 51.4927 72.2251 51.3081 72.7636C51.1543 73.1944 50.9696 73.6098 50.7542 74.0098C50.5542 74.379 50.3081 74.7021 50.0004 74.9944C49.7388 75.256 49.4311 75.4713 49.0773 75.579C49.0311 75.5944 49.0004 75.6252 48.9696 75.6867C48.9696 75.7483 48.9696 75.8406 48.985 75.9175C49.0465 76.2252 49.0927 76.5483 49.1696 76.856C49.2465 77.256 49.3388 77.656 49.4619 78.0406C49.4927 78.1483 49.4927 78.2098 49.4773 78.4252C49.4465 78.4868 49.385 78.5483 49.3234 78.5791C49.2773 78.6099 49.2158 78.6252 49.1542 78.6099C49.0465 78.5791 48.9542 78.5175 48.9081 78.3945C48.8773 78.1329 48.8311 77.8714 48.8311 77.5945C48.8311 77.4714 48.8311 77.3329 48.785 77.2098C48.785 77.1791 48.785 77.1637 48.785 77.1329C48.785 76.856 48.7081 76.5637 48.6773 76.2867C48.6619 76.0714 48.6311 75.856 48.6004 75.656C48.585 75.5021 48.5388 75.3483 48.5081 75.179C48.5388 75.0713 48.5542 74.9483 48.5081 74.8098C48.4927 74.7944 48.4927 74.7636 48.4927 74.7483C48.4927 74.3636 48.4311 73.979 48.4157 73.6098C48.4004 72.9021 48.4004 72.1944 48.4157 71.502C48.4157 71.3482 48.4157 71.2097 48.4465 71.0713C48.4773 70.9482 48.4619 70.8097 48.4773 70.6713C48.4927 70.4866 48.4927 70.302 48.5234 70.1174C48.5542 70.0097 48.5542 69.902 48.5234 69.7789C48.4927 69.7943 48.4619 69.8097 48.4465 69.8405C48.385 69.9328 48.3388 70.0405 48.2773 70.1328C48.2773 70.2097 48.2773 70.2713 48.2773 70.3328C48.2927 70.4713 48.2465 70.5789 48.0927 70.6866C48.0619 70.6866 47.985 70.7174 47.9234 70.7328C47.7542 70.7174 47.6311 70.6405 47.5542 70.4866C47.5542 70.4713 47.5542 70.4559 47.5542 70.4405C47.5234 70.2866 47.585 70.1636 47.708 70.0712C47.7542 70.0405 47.8003 69.9943 47.8465 69.9636C48.0619 69.6559 48.3388 69.4251 48.6004 69.1789C48.7081 68.9789 48.6773 68.7635 48.7542 68.5789C48.7696 68.3789 48.8465 68.1943 48.8465 67.9943C48.8927 67.8558 48.985 67.7635 49.1234 67.702C49.1542 67.702 49.185 67.702 49.2158 67.6866C49.3234 67.6866 49.4158 67.7174 49.4773 67.7943C49.5235 67.8404 49.5696 67.902 49.6158 67.9481C49.6158 68.0404 49.6158 68.1174 49.6158 68.1943C49.5542 68.302 49.4927 68.4097 49.4311 68.5174C49.4158 68.5481 49.4158 68.5789 49.4465 68.6097C49.5388 68.5943 49.6004 68.5481 49.6773 68.5174C49.9388 68.3789 50.2158 68.3174 50.4927 68.2866C50.8004 68.2558 51.0927 68.3328 51.3235 68.5481C51.4619 68.6866 51.5696 68.8405 51.6312 69.0251ZM51.4004 70.0866C51.4158 69.7789 51.4004 69.5635 51.3389 69.2405C51.3081 69.0866 51.2312 68.9482 51.1389 68.8251C51.0619 68.7328 50.9542 68.6712 50.8466 68.6251C50.5235 68.5789 50.2158 68.6251 49.9081 68.7481C49.6773 68.8405 49.4773 68.9328 49.2773 69.0712C49.2465 69.1482 49.2158 69.2097 49.2004 69.2866C49.1696 69.4559 49.1234 69.6251 49.0927 69.8097C49.0465 70.0405 48.985 70.2713 48.9696 70.502C48.9696 70.5482 48.9696 70.5943 48.9542 70.6405C48.9081 70.7636 48.9081 70.8866 48.9081 70.9943C48.8927 71.0559 48.9081 71.1174 48.8927 71.179C48.8311 71.3636 48.8465 71.5482 48.8311 71.7482C48.8311 71.8251 48.8311 71.9174 48.8157 71.9944C48.7696 72.1328 48.7696 72.2713 48.7696 72.4251C48.7696 72.7328 48.7696 73.0559 48.7696 73.379C48.7696 73.8252 48.7542 74.2559 48.8465 74.7021C48.8619 74.7175 48.8773 74.7329 48.8927 74.7483C49.0773 74.7175 49.2465 74.6406 49.4004 74.5329C49.6465 74.379 49.8312 74.179 50.0004 73.9636C50.2158 73.6867 50.4158 73.379 50.5696 73.0559C50.8466 72.4867 51.0619 71.902 51.2004 71.2867C51.2466 71.1174 51.2466 70.9636 51.2927 70.7943C51.3235 70.6866 51.3389 70.5636 51.3543 70.4405C51.3543 70.3328 51.385 70.2097 51.4004 70.0866ZM57.008 67.4558C57.1157 67.5174 57.1772 67.6251 57.208 67.7635C57.208 67.8558 57.1772 67.9635 57.131 68.0712C57.0849 68.1635 57.0233 68.2558 56.9464 68.3328C56.8695 68.4097 56.7618 68.4404 56.6541 68.4712C56.5156 68.5943 56.4387 68.7481 56.3618 68.8866C56.1464 69.2558 55.9618 69.6405 55.7926 70.0405C55.4849 70.779 55.2233 71.5328 54.9772 72.3021C54.9618 72.3636 54.9464 72.4405 54.931 72.5174C54.9925 72.5944 55.0541 72.6713 55.1156 72.7328C55.1156 72.8251 55.1156 72.8867 55.1156 72.9482C55.1002 72.979 55.1002 73.0098 55.1002 73.0251C55.0541 73.1328 54.9772 73.2251 54.8848 73.2867C54.8387 73.3328 54.7772 73.379 54.7156 73.4098C54.6541 73.5021 54.6233 73.5944 54.6079 73.6867C54.5156 74.0713 54.4233 74.4713 54.331 74.8559C54.2695 75.1483 54.2079 75.456 54.1618 75.7483C54.1002 76.056 54.0233 76.3637 53.9771 76.6714C53.931 76.9021 53.9002 77.1329 53.8694 77.3637C53.8541 77.4406 53.8541 77.5021 53.8387 77.5791C53.8233 77.6714 53.8079 77.7483 53.8079 77.8406C53.7925 77.9945 53.7925 78.1483 53.7464 78.3022C53.731 78.3791 53.731 78.4714 53.731 78.5637C53.731 78.6868 53.7156 78.8252 53.7156 78.9637C53.7156 79.0868 53.6848 79.2099 53.6233 79.3176C53.5771 79.3945 53.5002 79.456 53.4233 79.4714C53.331 79.4714 53.2848 79.4406 53.2387 79.4099C53.1771 79.3483 53.131 79.2868 53.131 79.2253C53.1156 79.0868 53.131 78.9483 53.1617 78.8252C53.2079 78.5945 53.254 78.3637 53.3002 78.1483C53.4079 77.7021 53.4848 77.256 53.5925 76.8252C53.6387 76.5791 53.6848 76.3483 53.731 76.1175C53.8233 75.7637 53.8848 75.4252 53.9464 75.0713C54.0079 74.8098 54.0694 74.5482 54.131 74.2867C54.1618 74.1329 54.1925 73.9636 54.2387 73.7944C54.2387 73.7328 54.2541 73.6713 54.2233 73.6098C54.1771 73.5482 54.0848 73.579 53.9771 73.5328C53.9156 73.5021 53.8079 73.4252 53.7156 73.3482C53.5156 73.1021 53.3771 72.8251 53.2694 72.5328C53.131 72.1482 53.0233 71.7636 52.9771 71.3636C52.9156 71.1328 52.931 70.902 52.9002 70.6713C52.8233 70.1174 52.854 69.5482 52.854 68.9943C52.854 68.8405 52.854 68.6712 52.9002 68.5174C52.9156 68.4712 52.9156 68.4097 52.9002 68.3481C52.9002 68.0558 52.9771 67.7789 53.0079 67.502C53.0233 67.3943 53.0694 67.2712 53.0848 67.1635C53.1464 67.0404 53.2387 66.9481 53.331 66.8866C53.4079 66.8404 53.5002 66.825 53.5771 66.8404C53.6848 66.8558 53.7618 66.902 53.8387 66.9789C53.9002 67.0404 53.9464 67.102 53.9464 67.1943C53.9618 67.302 53.9618 67.3943 53.931 67.502C53.9002 67.5481 53.8541 67.6097 53.8079 67.6866C53.7464 67.9174 53.6694 68.1635 53.6387 68.4097C53.6387 68.5635 53.5771 68.702 53.5771 68.8558C53.5771 68.9789 53.5617 69.1174 53.531 69.2405C53.5156 69.3328 53.5156 69.4097 53.5156 69.502C53.5156 69.8866 53.5002 70.2559 53.5002 70.6405C53.5002 70.8713 53.5002 71.102 53.5617 71.3328C53.5617 71.5328 53.6079 71.7328 53.6541 71.9328C53.7156 72.2097 53.7925 72.4867 53.931 72.7328C53.9618 72.7944 54.0079 72.8559 54.0541 72.9021C54.0694 72.9328 54.1156 72.9482 54.1464 72.979C54.1771 72.9636 54.2233 72.9482 54.2387 72.9328C54.3002 72.8713 54.3771 72.7944 54.4387 72.7174C54.4695 72.6559 54.5002 72.579 54.5156 72.5174C54.6541 71.9328 54.8079 71.3636 54.9772 70.7943C55.1925 70.0866 55.4233 69.3789 55.731 68.702C55.8849 68.3481 56.0541 68.0251 56.2849 67.7174C56.3464 67.6097 56.4233 67.5174 56.5464 67.425C56.608 67.4097 56.6849 67.3943 56.7618 67.3635C56.8541 67.3635 56.9464 67.4097 57.008 67.4558ZM60.3467 69.3943C60.439 69.8866 60.4236 70.3943 60.3929 70.8866C60.3929 71.0559 60.3467 71.2251 60.3159 71.4097C60.2544 71.6405 60.0698 71.7482 59.8236 71.7944C59.7775 71.779 59.7159 71.7636 59.6698 71.7482C59.4698 71.6713 59.3467 71.5328 59.3005 71.3174C59.3005 71.2867 59.2852 71.2405 59.2698 71.179C59.3005 71.1174 59.3159 71.0405 59.3313 70.9328C59.4236 70.8405 59.5159 70.7482 59.6082 70.6559C59.6236 70.6097 59.639 70.5943 59.639 70.5636C59.6698 70.2405 59.6698 69.9174 59.6544 69.5943C59.6236 69.302 59.5467 69.0251 59.3929 68.7635C59.3467 68.6866 59.2852 68.6251 59.1929 68.6097C59.1467 68.6251 59.0852 68.6251 59.039 68.6712C58.9159 68.7789 58.8082 68.9174 58.7313 69.0558C58.5775 69.3482 58.439 69.6251 58.3159 69.9328C58.0082 70.7328 57.7774 71.5482 57.5928 72.379C57.5621 72.6405 57.4851 72.9021 57.4697 73.1636C57.4697 73.1944 57.4697 73.2251 57.4544 73.2405C57.3621 73.6405 57.3928 74.0559 57.3774 74.4559C57.3774 74.6406 57.3774 74.8252 57.3928 75.0098C57.4082 75.4713 57.5005 75.9175 57.639 76.3637C57.7005 76.5483 57.7774 76.7175 57.8698 76.8867C57.9774 77.0868 58.1159 77.2406 58.2851 77.3329C58.4698 77.3945 58.639 77.3637 58.8082 77.3329C59.0544 77.2406 59.3159 77.1329 59.5313 77.0406C59.7621 76.9944 59.9467 77.0252 60.0852 77.1637C60.1929 77.2714 60.2544 77.4098 60.2236 77.6098C60.2236 77.6252 60.1929 77.6868 60.1775 77.7329C60.1467 77.8252 60.0698 77.9022 59.9929 77.9483C59.7006 78.1022 59.4082 78.2252 59.0852 78.2868C58.8698 78.3329 58.6544 78.3791 58.3775 78.3483C58.2851 78.3175 58.1621 78.2714 58.0236 78.2252C57.7467 78.1175 57.5313 77.9175 57.3467 77.6714C57.2236 77.5021 57.1159 77.3021 57.039 77.0868C56.8697 76.6252 56.7467 76.1637 56.7159 75.6713C56.7005 75.6252 56.7159 75.579 56.7005 75.5483C56.6236 75.2098 56.6543 74.8713 56.6543 74.5329C56.6543 74.3944 56.6851 74.2406 56.7005 74.0867C56.7159 73.9329 56.7005 73.7636 56.7313 73.6252C56.8082 73.3482 56.7774 73.0713 56.8697 72.7944C56.9467 72.3482 57.0697 71.9174 57.1774 71.4867C57.3467 70.8251 57.5621 70.1789 57.8236 69.5482C57.9774 69.1635 58.1621 68.7789 58.4082 68.4404C58.5467 68.2251 58.7313 68.0558 59.0236 67.9481C59.1467 67.9481 59.2698 67.9481 59.3775 67.9481C59.7006 68.0558 59.9006 68.2558 60.039 68.5174C60.1929 68.7943 60.2852 69.0866 60.3467 69.3943ZM64.9892 69.3943C65.0815 69.8866 65.0662 70.3943 65.0354 70.8866C65.0354 71.0559 64.9892 71.2251 64.9585 71.4097C64.8969 71.6405 64.7123 71.7482 64.4661 71.7944C64.42 71.779 64.3584 71.7636 64.3123 71.7482C64.1123 71.6713 63.9892 71.5328 63.9431 71.3174C63.9431 71.2867 63.9277 71.2405 63.9123 71.179C63.9431 71.1174 63.9584 71.0405 63.9738 70.9328C64.0661 70.8405 64.1584 70.7482 64.2508 70.6559C64.2661 70.6097 64.2815 70.5943 64.2815 70.5636C64.3123 70.2405 64.3123 69.9174 64.2969 69.5943C64.2661 69.302 64.1892 69.0251 64.0354 68.7635C63.9892 68.6866 63.9277 68.6251 63.8354 68.6097C63.7892 68.6251 63.7277 68.6251 63.6815 68.6712C63.5584 68.7789 63.4507 68.9174 63.3738 69.0558C63.22 69.3482 63.0815 69.6251 62.9584 69.9328C62.6507 70.7328 62.42 71.5482 62.2353 72.379C62.2046 72.6405 62.1276 72.9021 62.1123 73.1636C62.1123 73.1944 62.1123 73.2251 62.0969 73.2405C62.0046 73.6405 62.0353 74.0559 62.0199 74.4559C62.0199 74.6406 62.0199 74.8252 62.0353 75.0098C62.0507 75.4713 62.143 75.9175 62.2815 76.3637C62.343 76.5483 62.42 76.7175 62.5123 76.8867C62.62 77.0868 62.7584 77.2406 62.9277 77.3329C63.1123 77.3945 63.2815 77.3637 63.4507 77.3329C63.6969 77.2406 63.9584 77.1329 64.1738 77.0406C64.4046 76.9944 64.5892 77.0252 64.7277 77.1637C64.8354 77.2714 64.8969 77.4098 64.8661 77.6098C64.8661 77.6252 64.8354 77.6868 64.82 77.7329C64.7892 77.8252 64.7123 77.9022 64.6354 77.9483C64.3431 78.1022 64.0508 78.2252 63.7277 78.2868C63.5123 78.3329 63.2969 78.3791 63.02 78.3483C62.9277 78.3175 62.8046 78.2714 62.6661 78.2252C62.3892 78.1175 62.1738 77.9175 61.9892 77.6714C61.8661 77.5021 61.7584 77.3021 61.6815 77.0868C61.5122 76.6252 61.3892 76.1637 61.3584 75.6713C61.343 75.6252 61.3584 75.579 61.343 75.5483C61.2661 75.2098 61.2969 74.8713 61.2969 74.5329C61.2969 74.3944 61.3276 74.2406 61.343 74.0867C61.3584 73.9329 61.343 73.7636 61.3738 73.6252C61.4507 73.3482 61.4199 73.0713 61.5122 72.7944C61.5892 72.3482 61.7122 71.9174 61.8199 71.4867C61.9892 70.8251 62.2046 70.1789 62.4661 69.5482C62.62 69.1635 62.8046 68.7789 63.0507 68.4404C63.1892 68.2251 63.3738 68.0558 63.6661 67.9481C63.7892 67.9481 63.9123 67.9481 64.02 67.9481C64.3431 68.0558 64.5431 68.2558 64.6815 68.5174C64.8354 68.7943 64.9277 69.0866 64.9892 69.3943ZM71.6318 77.856C71.6779 77.9637 71.6933 78.056 71.6472 78.1483C71.601 78.2252 71.5395 78.2406 71.4625 78.2714C71.4318 78.256 71.3856 78.2406 71.3548 78.2252C71.2625 78.1637 71.2164 78.0868 71.1702 78.0098C71.001 77.7329 70.8318 77.456 70.6779 77.1791C70.3394 76.5791 70.0317 75.9637 69.7548 75.3329C69.4471 74.6713 69.2163 73.979 69.0317 73.2867C68.9548 72.9636 68.8933 72.6559 68.8163 72.3482C68.801 72.0867 68.7086 71.8251 68.7086 71.5636C68.7086 71.5482 68.7086 71.5328 68.7086 71.5174C68.6163 71.1328 68.6317 70.7328 68.6317 70.3482C68.6317 70.302 68.6163 70.2713 68.6163 70.2251C68.5856 70.2097 68.5702 70.2097 68.5394 70.2251C68.3856 70.3789 68.2317 70.5174 68.0932 70.6713C67.7548 71.0251 67.4163 71.379 67.0778 71.7482C66.924 71.902 66.7855 72.0867 66.6471 72.2405C66.5855 72.4559 66.5394 72.6559 66.524 72.8713C66.524 72.979 66.4932 73.0867 66.4778 73.1944C66.4624 73.2867 66.4624 73.3636 66.4471 73.4559C66.4317 73.6405 66.4317 73.8405 66.3855 74.0252C66.3701 74.1329 66.3701 74.2252 66.3701 74.3175C66.3394 74.6559 66.3701 74.9944 66.2932 75.3329C66.2932 75.379 66.2932 75.4406 66.2932 75.5021C66.2932 75.8252 66.2932 76.1637 66.2932 76.5021C66.2932 76.6406 66.3086 76.7791 66.324 76.9175C66.3548 77.1021 66.3548 77.2868 66.3548 77.4714C66.3701 77.7483 66.4317 78.1791 66.4932 78.5022C66.5548 78.7791 66.6009 79.056 66.6778 79.3176C66.6932 79.3791 66.6932 79.4253 66.6932 79.4868C66.6932 79.5483 66.6932 79.5945 66.6932 79.656C66.6471 79.7176 66.6009 79.7637 66.5701 79.7945C66.4471 79.8406 66.3548 79.8406 66.2624 79.7945C66.2009 79.7483 66.1701 79.6868 66.124 79.6099C66.0778 79.3022 66.0163 78.9637 66.0163 78.6252C66.0163 78.5791 66.0163 78.5483 66.0009 78.5022C65.9394 78.2252 65.9394 77.9483 65.9394 77.6714C65.9086 76.6867 65.9086 75.7021 65.9394 74.7329C65.9547 74.5175 65.9394 74.3021 66.0009 74.1021C66.0163 73.8252 66.0163 73.5482 66.0317 73.2713C66.0317 73.2405 66.0009 73.2251 66.0009 73.1944C65.8624 73.2559 65.8163 73.4098 65.6932 73.4867C65.5855 73.5328 65.4778 73.5482 65.3701 73.4713C65.2778 73.3944 65.2624 73.2867 65.2778 73.1636C65.324 73.0405 65.4163 72.9328 65.5086 72.8251C65.6778 72.6559 65.8471 72.4867 66.0009 72.3021C66.0624 72.2405 66.124 72.179 66.1701 72.1328C66.2317 71.6713 66.2932 71.2251 66.3548 70.7943C66.4163 70.3328 66.4932 69.8712 66.5548 69.4251C66.6317 68.9789 66.7086 68.5481 66.7855 68.102C66.8625 67.6712 66.9701 67.225 67.0625 66.7789C67.1855 66.5789 67.1855 66.5789 67.4779 66.4712C67.6163 66.4866 67.7394 66.5327 67.8317 66.6558C67.924 66.7635 67.9702 66.902 67.9548 67.0404C67.9394 67.0712 67.9394 67.102 67.924 67.1173C67.7855 67.3943 67.6625 67.6712 67.6009 67.9789C67.3394 68.7328 67.1702 69.5174 66.9855 70.2866C66.9086 70.5943 66.8471 70.9174 66.7855 71.2251C66.7701 71.2867 66.7701 71.3328 66.8163 71.379C66.924 71.3328 66.9701 71.2405 67.0317 71.179C67.1086 71.0866 67.1702 71.0097 67.2471 70.9174C67.5394 70.5789 67.8471 70.2559 68.1394 69.9174C68.3702 69.6405 68.6009 69.3635 68.8471 69.0866C69.0471 68.8405 69.2471 68.6097 69.4471 68.3789C69.724 68.0866 69.9856 67.7789 70.2625 67.4866C70.3548 67.3481 70.3702 67.1789 70.4625 67.1173C70.5856 67.0404 70.6933 67.025 70.7856 66.9943C70.8779 66.9943 70.9702 67.0404 71.0625 67.0712C71.2164 67.225 71.2164 67.225 71.2933 67.4558C71.2625 67.6097 71.2164 67.7327 71.1087 67.8558C70.5548 68.302 70.001 68.7789 69.5087 69.302C69.5087 69.3482 69.5087 69.3943 69.524 69.4251C69.5548 69.5174 69.5394 69.5943 69.4933 69.6712C69.4625 69.7482 69.4163 69.8251 69.3548 69.8866C69.2933 69.9482 69.2625 70.0251 69.2471 70.102C69.201 70.2866 69.1394 70.4866 69.1394 70.6713C69.1086 71.179 69.1086 71.6867 69.1394 72.1944C69.1548 72.4097 69.201 72.6251 69.2471 72.8559C69.2933 73.1175 69.3548 73.3944 69.4317 73.6713C69.524 73.9944 69.6317 74.3329 69.7548 74.6559C70.001 75.3329 70.3241 75.9637 70.7087 76.5637C70.9702 76.9637 71.2471 77.3483 71.5395 77.7329C71.5702 77.7791 71.601 77.8252 71.6318 77.856ZM76.8708 70.4713C76.9323 70.8251 77.0247 71.179 77.0247 71.5482C77.0093 71.9944 77.0247 72.4559 77.0093 72.9175C77.0093 73.0559 76.9785 73.2098 76.9477 73.3636C76.9477 73.4559 76.9323 73.5482 76.917 73.6405C76.84 74.3482 76.6708 75.0252 76.44 75.6867C76.3016 76.0714 76.1323 76.4252 75.8862 76.7483C75.8092 76.8714 75.7016 76.9944 75.6092 77.1021C75.3477 77.3791 75.0554 77.5637 74.6708 77.6098C74.6092 77.6252 74.5323 77.656 74.4554 77.6714C74.3631 77.6406 74.2708 77.6098 74.1784 77.5945C73.8246 77.5175 73.5631 77.3021 73.3784 76.9944C73.24 76.7944 73.1169 76.5791 73.04 76.3483C72.9169 76.0098 72.7938 75.6713 72.7784 75.3021C72.6553 74.8713 72.6707 74.4252 72.6861 73.9944C72.6861 73.7482 72.6861 73.5021 72.7477 73.2559C72.8092 73.0251 72.7784 72.7636 72.8707 72.5328C72.9477 72.0559 73.0861 71.6097 73.24 71.1482C73.2246 71.0866 73.1938 71.0097 73.1784 70.9328C73.163 70.8866 73.1477 70.8251 73.1477 70.779C73.1477 70.6097 73.2246 70.4866 73.3169 70.3636C73.363 70.2866 73.44 70.2097 73.5015 70.1328C73.8092 69.7635 73.84 69.702 73.9784 69.1789C74.0861 68.9789 74.24 68.8097 74.4246 68.6866C74.6092 68.6097 74.8092 68.6251 75.0092 68.6866C75.0862 68.7635 75.1939 68.8558 75.3015 68.9482C75.44 68.9635 75.5939 68.9943 75.7631 69.0097C76.1631 69.1482 76.44 69.4405 76.64 69.8405C76.7323 70.0405 76.8246 70.2559 76.8708 70.4713ZM76.0554 72.5174C76.1016 72.1021 76.1016 71.6867 76.04 71.2713C76.0246 71.1328 76.0092 71.0097 75.9939 70.8713C75.9939 70.6559 75.9169 70.4559 75.8554 70.2559C75.8092 70.1328 75.7323 70.0251 75.6246 69.9328C75.5631 69.8712 75.4862 69.8251 75.3631 69.8251C75.0862 69.9174 74.8554 70.1174 74.6554 70.3482C74.5015 70.5328 74.3785 70.7174 74.2861 70.9328C73.9323 71.7328 73.6554 72.5482 73.5631 73.4405C73.5631 73.5175 73.5477 73.579 73.5323 73.6559C73.5169 73.7944 73.5015 73.9175 73.4861 74.0559C73.4707 74.4713 73.5169 74.8867 73.5784 75.3021C73.64 75.6867 73.7631 76.0406 73.9631 76.3637C74.0554 76.5329 74.1784 76.6867 74.3785 76.7483C74.5323 76.7483 74.6092 76.7021 74.6861 76.6406C74.8246 76.5329 74.9477 76.4098 75.04 76.2714C75.1785 76.0406 75.3169 75.8252 75.4092 75.5637C75.6862 74.9175 75.9785 73.5636 75.9939 72.9636C76.0092 72.8098 76.04 72.6713 76.0554 72.5174ZM83.7597 79.456C83.7905 79.5791 83.8059 79.7022 83.8367 79.8253C83.8367 79.933 83.7751 80.0099 83.6982 80.0714C83.6367 80.1176 83.5751 80.1176 83.4982 80.1022C83.4059 80.0714 83.3444 79.9945 83.2982 79.9022C83.2982 79.8714 83.2828 79.856 83.2828 79.8253C83.2674 79.7022 83.2674 79.5791 83.252 79.4406C83.252 79.3791 83.252 79.3022 83.2367 79.2406C83.1751 78.8714 83.1905 78.5175 83.1905 78.1483C83.1751 76.856 83.1905 75.579 83.1905 74.2867C83.1905 73.6713 83.1905 73.0559 83.1905 72.4405C83.1905 72.3328 83.1905 72.2097 83.1751 72.1174C83.1443 72.0867 83.129 72.0867 83.1136 72.1328C83.0828 72.179 83.052 72.2251 83.0367 72.2867C82.7443 73.179 82.3751 74.0559 81.9751 74.9175C81.6366 75.656 81.252 76.3637 80.8058 77.056C80.4674 77.5637 80.0828 78.056 79.6366 78.4868C79.4674 78.656 79.2674 78.8099 79.052 78.9483C78.8674 79.0714 78.652 79.1483 78.4366 79.1791C78.1904 79.1483 78.052 79.0099 77.975 78.7176C77.9596 78.5945 77.9443 78.3945 77.9596 78.1945C77.9596 77.5791 77.975 76.9637 77.9904 76.3483C77.9904 76.1637 78.0366 75.9637 78.052 75.7637C78.0673 75.5944 78.052 75.4098 78.0827 75.2252C78.1289 74.9636 78.1289 74.7021 78.1596 74.4406C78.1596 74.2559 78.2212 74.0713 78.2212 73.9021C78.2212 73.7328 78.2366 73.5636 78.2827 73.3944C78.3135 73.3328 78.2981 73.2559 78.3135 73.1944C78.3135 73.0559 78.3135 72.9021 78.3597 72.779C78.375 72.7482 78.375 72.7174 78.375 72.6867C78.375 72.3944 78.4673 72.1174 78.4827 71.8251C78.4981 71.6867 78.5443 71.5482 78.5597 71.4097C78.575 71.2713 78.575 71.1328 78.6212 70.9943C78.6366 70.9482 78.6366 70.902 78.6366 70.8713C78.6366 70.6866 78.6827 70.502 78.7135 70.3328C78.7443 70.1636 78.7597 69.9943 78.7904 69.8251C78.8058 69.7635 78.8058 69.6866 78.8058 69.6251C78.7597 69.5328 78.7135 69.4405 78.6827 69.3635C78.6366 69.2712 78.6366 69.1635 78.6827 69.0712C78.7135 68.9789 78.7597 68.902 78.8212 68.8251C78.8981 68.7328 78.9904 68.6712 79.0981 68.6251C79.2058 68.5943 79.3135 68.5943 79.4212 68.6251C79.5135 68.6558 79.5751 68.7174 79.6212 68.7789C79.7135 68.8866 79.7443 68.9943 79.7289 69.1328C79.7135 69.1943 79.6981 69.2405 79.6828 69.302C79.4674 70.0251 79.2827 70.779 79.0981 71.5174C79.0212 71.8559 78.9597 72.2097 78.8981 72.5482C78.852 72.7636 78.7904 72.979 78.7597 73.2098C78.7135 73.4559 78.6827 73.7328 78.6366 73.9944C78.5904 74.2713 78.5597 74.5636 78.5135 74.8559C78.4981 74.9483 78.4827 75.0252 78.4827 75.1021C78.4673 75.2867 78.4673 75.4713 78.4212 75.656C78.3904 75.779 78.4058 75.9329 78.3904 76.0714C78.375 76.256 78.3904 76.456 78.3443 76.656C78.3289 76.7021 78.3289 76.7637 78.3289 76.8252C78.3289 77.2098 78.3289 77.5945 78.3135 77.9945C78.3135 78.1637 78.3443 78.3329 78.4212 78.5022C78.5443 78.4714 78.6212 78.4099 78.6827 78.3329C79.3751 77.5791 79.9597 76.7483 80.4828 75.856C80.7597 75.3944 81.0366 74.9175 81.2674 74.4252C81.7597 73.3944 82.2213 72.3482 82.529 71.2405C82.6213 70.9174 82.6982 70.5943 82.7751 70.2559C82.8213 70.0251 82.8367 69.7943 82.929 69.5635C82.9443 69.5482 82.9597 69.5174 82.9751 69.4866C83.052 69.3789 83.1751 69.3174 83.2982 69.302C83.4059 69.3174 83.4828 69.3482 83.5444 69.3943C83.5905 69.4251 83.6213 69.4559 83.6367 69.4712C83.6982 69.5789 83.7136 69.6866 83.7444 69.8097C83.7444 70.0559 83.7444 70.302 83.7444 70.5636C83.7444 70.5943 83.7597 70.6405 83.7444 70.6866C83.6828 70.9943 83.6982 71.3174 83.6828 71.6405C83.6674 71.8713 83.6674 72.0867 83.6213 72.3174C83.6059 72.4405 83.6059 72.5944 83.6059 72.7328C83.5905 73.0559 83.6059 73.379 83.5444 73.6867C83.529 73.7944 83.529 73.9175 83.529 74.0252C83.5136 74.4559 83.5136 74.9021 83.4982 75.3329C83.4982 75.5483 83.4982 75.779 83.4674 75.9944C83.4367 76.2252 83.4367 76.4406 83.4674 76.6714C83.4982 76.9021 83.4982 77.1483 83.4982 77.3791C83.5136 77.5637 83.5136 77.7483 83.5136 77.9329C83.529 78.0868 83.529 78.256 83.5751 78.4252C83.5905 78.456 83.5905 78.4868 83.5905 78.5022C83.6059 78.8252 83.6828 79.1483 83.7597 79.456ZM80.452 67.1327C80.4366 67.1173 80.4212 67.0866 80.4058 67.0558C80.4058 66.9943 80.3905 66.9173 80.4058 66.8558C80.4058 66.7481 80.4674 66.6712 80.5443 66.6096C80.6058 66.5789 80.6674 66.5635 80.7289 66.5327C81.2212 66.4866 81.7136 66.4096 82.1905 66.3173C82.252 66.2866 82.329 66.2404 82.4059 66.2096C82.4366 66.1943 82.4674 66.1943 82.4828 66.1943C82.652 66.1789 82.7597 66.2558 82.8213 66.3943C82.8828 66.5481 82.8674 66.702 82.7443 66.825C82.7136 66.8558 82.6828 66.8712 82.6366 66.9173C82.452 66.9481 82.252 67.0097 82.0366 67.0097C81.7751 67.0097 81.5443 67.0558 81.2982 67.1481C81.2366 67.1789 81.1597 67.1789 81.0982 67.2097C80.9597 67.2712 80.8058 67.2866 80.652 67.2712C80.5751 67.2404 80.4981 67.1943 80.452 67.1327ZM95.0573 72.3021C95.0727 72.4405 95.0881 72.579 95.1035 72.7174C95.0881 72.8405 95.0727 72.979 95.0727 73.1021C95.0419 73.5021 94.9342 73.8867 94.7958 74.2713C94.5804 74.8713 94.2573 75.4098 93.8419 75.9021C93.3188 76.5329 92.6726 76.9944 91.8572 77.2252C91.5342 77.3175 91.2111 77.3791 90.8726 77.3637C90.8265 77.3637 90.7957 77.3791 90.7495 77.3945C90.7341 77.3945 90.7341 77.4098 90.7188 77.4252C90.7495 77.6406 90.8265 77.856 90.9034 78.056C90.9188 78.1175 90.9342 78.1637 90.9342 78.2252C90.9342 78.2868 90.9342 78.3329 90.9342 78.3637C90.888 78.5022 90.8111 78.5791 90.7034 78.6252C90.5957 78.656 90.488 78.656 90.3803 78.5945C90.2572 78.5175 90.2111 78.4099 90.1957 78.2868C90.1495 78.0868 90.088 77.9022 90.088 77.7021C90.088 77.5483 90.0418 77.4098 90.0111 77.2714C89.9187 77.1944 89.8264 77.1791 89.7341 77.1329C89.6418 77.1021 89.5495 77.0714 89.4572 77.0252C89.3803 76.9791 89.3341 76.9175 89.288 76.8406C89.2726 76.7944 89.2572 76.7329 89.2726 76.6714C89.3034 76.5483 89.3649 76.4406 89.5187 76.379C89.5803 76.379 89.6572 76.379 89.7495 76.379C89.8111 76.3944 89.8726 76.4252 89.9341 76.4406C89.9649 76.4098 89.9803 76.379 89.9803 76.3637C89.9957 76.2867 89.9957 76.1944 89.9957 76.1175C89.9957 75.6406 90.0111 75.1636 90.0111 74.6867C90.0264 74.5329 90.0264 74.379 90.0572 74.2252C90.088 74.1021 90.088 73.979 90.088 73.8559C90.1034 73.6713 90.1034 73.4867 90.1341 73.3021C90.1034 73.1944 90.0726 73.0713 90.1034 72.9328C90.1495 72.8098 90.1957 72.6713 90.2418 72.5636C90.3649 71.5636 90.5495 70.5943 90.7341 69.6405C90.688 69.5635 90.6265 69.5328 90.5341 69.5174C90.1957 69.7635 89.8111 69.9636 89.5034 70.2866C89.5495 70.4251 89.6111 70.5482 89.6572 70.6559C89.6572 70.8097 89.6111 70.9174 89.5187 71.0251C89.4418 71.1482 89.3034 71.1943 89.1495 71.2251C89.0726 71.2097 88.9803 71.179 88.9033 71.1636C88.7803 71.0866 88.688 70.979 88.611 70.8559C88.5803 70.779 88.5495 70.6713 88.5187 70.5789C88.5187 70.4251 88.5803 70.2866 88.688 70.1943C88.7341 70.1482 88.7957 70.102 88.8572 70.0712C89.1034 69.902 89.3649 69.7328 89.6264 69.5635C89.8726 69.3943 90.1188 69.2405 90.3803 69.0866C90.5034 68.8097 90.7341 68.5943 90.9495 68.4404C91.0572 68.3789 91.1495 68.3789 91.2265 68.3789C91.3188 68.3789 91.3957 68.3943 91.5034 68.4097C91.5803 68.3635 91.6572 68.3174 91.7496 68.2712C91.9957 68.1481 92.2419 68.0251 92.488 67.902C92.688 67.7943 92.9034 67.7174 93.1188 67.6712C93.4419 67.6097 93.6727 67.7174 93.8111 68.0097C93.8265 68.0558 93.8419 68.0866 93.8573 68.1174C93.9188 68.4866 93.8265 68.8251 93.7342 69.1635C93.565 69.7174 93.3342 70.2559 93.0419 70.779C93.0265 70.8251 92.9803 70.8559 92.9803 70.9328C93.0419 70.979 93.1034 70.9174 93.1803 70.9174C93.2265 70.9174 93.288 70.902 93.3496 70.902C93.4111 70.902 93.488 70.902 93.5496 70.902C93.6111 70.902 93.6573 70.902 93.7188 70.902C93.7957 70.902 93.8573 70.9174 93.9342 70.9174C94.0419 70.9482 94.1496 70.979 94.2419 71.0251C94.2881 71.0559 94.3496 71.0866 94.3958 71.102C94.6111 71.2405 94.7804 71.4251 94.8881 71.6713C94.9804 71.8713 95.0419 72.0867 95.0573 72.3021ZM90.9495 71.5636C90.9342 71.6559 90.9342 71.7636 90.9188 71.8713C90.9342 71.8867 90.9649 71.902 90.9803 71.9328C91.2111 71.8251 91.3957 71.6405 91.6265 71.5328C91.8419 71.4251 92.0726 71.302 92.288 71.1943C92.7188 70.5943 92.9188 70.1174 93.1188 69.6405C93.2573 69.302 93.3496 68.9482 93.4265 68.5943C93.4419 68.4866 93.4573 68.3789 93.4265 68.2712C93.4111 68.2097 93.3496 68.1328 93.288 68.1328C93.165 68.1328 93.0573 68.1481 92.9496 68.1943C92.5342 68.3481 92.1342 68.5481 91.7496 68.7789C91.7188 68.8097 91.688 68.8405 91.6726 68.8558C91.3342 69.8097 91.1957 70.4713 90.9495 71.5636ZM94.4727 73.5328C94.5188 73.3328 94.5496 73.1175 94.5496 72.9175C94.5496 72.7328 94.5496 72.5482 94.5342 72.3944C94.4111 71.9944 94.3958 71.9174 94.2881 71.7944C94.2265 71.7174 94.1496 71.6713 94.0881 71.6097C93.9804 71.579 93.888 71.5482 93.8265 71.5328C93.5804 71.4867 93.3957 71.5636 93.2111 71.5944C92.7342 71.7636 92.2726 71.9636 91.9496 72.379C91.8726 72.4559 91.7957 72.5328 91.7188 72.6098C91.4726 72.8713 91.1957 73.0867 90.9034 73.2867C90.8418 73.3328 90.7649 73.379 90.7188 73.4252C90.6572 73.5328 90.6265 73.6405 90.6111 73.7482C90.6111 73.9329 90.5957 74.1175 90.5803 74.3021C90.5649 74.4713 90.5341 74.6559 90.5341 74.8406C90.5188 75.3175 90.5341 75.7944 90.5341 76.2714C90.5341 76.3944 90.5495 76.5175 90.5803 76.6406C90.5957 76.6867 90.6111 76.7483 90.6726 76.7791C90.7957 76.7944 90.9342 76.8252 91.0726 76.8406C91.1342 76.856 91.1957 76.856 91.2418 76.856C91.4111 76.8252 91.5803 76.8098 91.7342 76.7637C92.088 76.6714 92.4265 76.5175 92.7188 76.3021C93.0265 76.056 93.3188 75.8098 93.5496 75.4867C93.9957 74.9021 94.3188 74.2559 94.4727 73.5328ZM100.309 70.4713C100.37 70.8251 100.463 71.179 100.463 71.5482C100.447 71.9944 100.463 72.4559 100.447 72.9175C100.447 73.0559 100.416 73.2098 100.386 73.3636C100.386 73.4559 100.37 73.5482 100.355 73.6405C100.278 74.3482 100.109 75.0252 99.8779 75.6867C99.7395 76.0714 99.5702 76.4252 99.3241 76.7483C99.2472 76.8714 99.1395 76.9944 99.0471 77.1021C98.7856 77.3791 98.4933 77.5637 98.1087 77.6098C98.0471 77.6252 97.9702 77.656 97.8933 77.6714C97.801 77.6406 97.7087 77.6098 97.6164 77.5945C97.2625 77.5175 97.001 77.3021 96.8163 76.9944C96.6779 76.7944 96.5548 76.5791 96.4779 76.3483C96.3548 76.0098 96.2317 75.6713 96.2163 75.3021C96.0933 74.8713 96.1086 74.4252 96.124 73.9944C96.124 73.7482 96.124 73.5021 96.1856 73.2559C96.2471 73.0251 96.2163 72.7636 96.3086 72.5328C96.3856 72.0559 96.524 71.6097 96.6779 71.1482C96.6625 71.0866 96.6317 71.0097 96.6163 70.9328C96.601 70.8866 96.5856 70.8251 96.5856 70.779C96.5856 70.6097 96.6625 70.4866 96.7548 70.3636C96.801 70.2866 96.8779 70.2097 96.9394 70.1328C97.2471 69.7635 97.2779 69.702 97.4164 69.1789C97.524 68.9789 97.6779 68.8097 97.8625 68.6866C98.0471 68.6097 98.2471 68.6251 98.4471 68.6866C98.5241 68.7635 98.6318 68.8558 98.7395 68.9482C98.8779 68.9635 99.0318 68.9943 99.201 69.0097C99.601 69.1482 99.8779 69.4405 100.078 69.8405C100.17 70.0405 100.263 70.2559 100.309 70.4713ZM99.4933 72.5174C99.5395 72.1021 99.5395 71.6867 99.4779 71.2713C99.4625 71.1328 99.4472 71.0097 99.4318 70.8713C99.4318 70.6559 99.3548 70.4559 99.2933 70.2559C99.2472 70.1328 99.1702 70.0251 99.0625 69.9328C99.001 69.8712 98.9241 69.8251 98.801 69.8251C98.5241 69.9174 98.2933 70.1174 98.0933 70.3482C97.9394 70.5328 97.8164 70.7174 97.724 70.9328C97.3702 71.7328 97.0933 72.5482 97.001 73.4405C97.001 73.5175 96.9856 73.579 96.9702 73.6559C96.9548 73.7944 96.9394 73.9175 96.924 74.0559C96.9087 74.4713 96.9548 74.8867 97.0163 75.3021C97.0779 75.6867 97.201 76.0406 97.401 76.3637C97.4933 76.5329 97.6164 76.6867 97.8164 76.7483C97.9702 76.7483 98.0471 76.7021 98.1241 76.6406C98.2625 76.5329 98.3856 76.4098 98.4779 76.2714C98.6164 76.0406 98.7548 75.8252 98.8471 75.5637C99.1241 74.9175 99.4164 73.5636 99.4318 72.9636C99.4472 72.8098 99.4779 72.6713 99.4933 72.5174ZM106.365 77.8714C106.411 78.0098 106.426 78.1637 106.457 78.3329C106.426 78.3945 106.396 78.4714 106.365 78.5329C106.226 78.6252 106.226 78.6252 106.042 78.6099C105.949 78.5791 105.888 78.5022 105.842 78.4099C105.842 78.3791 105.826 78.3483 105.826 78.3329C105.796 77.9175 105.719 77.5021 105.703 77.0714C105.703 76.8867 105.642 76.6867 105.642 76.4867C105.642 76.3021 105.626 76.1021 105.58 75.9175C105.549 75.8252 105.565 75.7483 105.549 75.656C105.549 75.4867 105.549 75.3021 105.488 75.1175C105.488 75.1021 105.488 75.0867 105.488 75.0867C105.473 74.8867 105.473 74.6867 105.457 74.4867C105.442 74.3175 105.411 74.1329 105.396 73.9482C105.38 73.6713 105.365 73.3944 105.334 73.1175C105.288 72.9175 105.303 72.7021 105.303 72.4867C105.288 72.3328 105.288 72.179 105.257 72.0251C105.226 71.9328 105.242 71.8405 105.226 71.7328C105.226 71.502 105.211 71.2559 105.211 71.0251C105.196 70.8866 105.196 70.7482 105.165 70.6097C105.149 70.5174 105.149 70.4097 105.149 70.3174C105.134 70.0559 105.134 69.7789 105.134 69.5174C105.119 69.3328 105.119 69.1635 105.088 68.9789C105.057 68.8097 105.057 68.6405 105.042 68.4712C105.042 68.4251 105.026 68.3635 105.011 68.3174C104.965 68.302 104.919 68.302 104.888 68.3328C104.826 68.4251 104.765 68.5174 104.719 68.6251C104.442 69.1328 104.211 69.6405 103.996 70.1789C103.596 71.1636 103.226 72.1636 102.919 73.179C102.611 74.1636 102.334 75.1483 102.103 76.1637C101.996 76.5791 101.888 76.9944 101.811 77.4252C101.765 77.656 101.703 77.8868 101.688 78.1175C101.688 78.1637 101.672 78.2098 101.672 78.2406C101.642 78.3329 101.611 78.4099 101.596 78.4714C101.519 78.6099 101.411 78.656 101.272 78.7022C101.103 78.6868 100.965 78.6252 100.857 78.456C100.857 78.3945 100.842 78.3329 100.842 78.256C100.826 78.2098 100.842 78.1483 100.857 78.0868C100.888 78.0406 100.934 77.9791 100.98 77.9175C100.98 77.9022 100.995 77.8714 101.011 77.856C101.119 77.456 101.242 77.0714 101.349 76.6867C101.426 76.4098 101.488 76.1483 101.565 75.8713C101.965 74.5175 102.38 73.179 102.857 71.8405C103.103 71.1482 103.365 70.4559 103.642 69.7789C103.826 69.3328 103.996 68.8866 104.211 68.4712C104.288 68.3174 104.38 68.1789 104.472 68.0404C104.519 67.9481 104.58 67.8712 104.657 67.8097C104.703 67.7481 104.765 67.6866 104.842 67.6251C104.919 67.6251 104.965 67.6097 105.011 67.6097C105.196 67.5943 105.334 67.6712 105.396 67.8404C105.411 67.8866 105.442 67.9174 105.457 67.9789C105.488 68.3943 105.534 68.8251 105.534 69.2558C105.534 70.1174 105.549 70.9943 105.565 71.8559C105.565 72.0405 105.58 72.2251 105.611 72.3944C105.642 72.579 105.626 72.7636 105.642 72.9482C105.657 73.1328 105.642 73.3021 105.688 73.4867C105.719 73.5636 105.719 73.6559 105.719 73.7328C105.734 73.9482 105.734 74.1636 105.78 74.3636C105.796 74.4098 105.796 74.4713 105.796 74.5329C105.811 74.7175 105.811 74.9175 105.873 75.1021C105.873 75.3944 105.949 75.656 105.98 75.9329C106.011 76.1944 106.057 76.4406 106.103 76.6867C106.18 77.0868 106.257 77.4714 106.365 77.8714ZM112.008 68.0404C112.054 68.1789 112.054 68.3481 112.008 68.4866C111.947 68.7481 111.901 69.0097 111.839 69.2712C111.747 69.6712 111.654 70.0866 111.608 70.502C111.516 70.7636 111.547 71.0559 111.454 71.3174C111.454 71.6097 111.378 71.8713 111.347 72.1482C111.347 72.2559 111.331 72.3482 111.316 72.4405C111.301 72.5328 111.285 72.6098 111.285 72.6867C111.27 72.9175 111.27 73.1328 111.208 73.3636C111.193 73.4559 111.193 73.5482 111.193 73.6559C111.178 73.8867 111.178 74.1329 111.131 74.3636C111.116 74.4559 111.116 74.5636 111.116 74.6559C111.116 74.9944 111.116 75.3329 111.116 75.656C111.116 75.8098 111.116 75.9483 111.162 76.0867C111.162 76.1329 111.178 76.1944 111.178 76.2406C111.178 76.5483 111.254 76.856 111.316 77.1483C111.347 77.3021 111.362 77.456 111.362 77.6098C111.362 77.656 111.347 77.6868 111.347 77.7175C111.301 77.7945 111.224 77.8252 111.162 77.8406C111.085 77.8406 111.024 77.8098 110.978 77.7637C110.916 77.6868 110.87 77.5945 110.87 77.5021C110.854 77.3791 110.854 77.2714 110.854 77.1637C110.839 76.1637 110.839 75.179 110.87 74.179C110.87 74.1175 110.87 74.0405 110.87 73.979C110.931 73.7021 110.916 73.4098 110.931 73.1328C110.947 72.8867 110.947 72.6405 110.993 72.379C111.008 72.3174 111.008 72.2405 111.008 72.179C110.993 72.1482 110.962 72.1328 110.947 72.1174C110.824 72.1482 110.716 72.1944 110.578 72.2405C110.516 72.2559 110.424 72.2559 110.347 72.2713C110.208 72.2867 110.07 72.3174 109.931 72.3174C109.793 72.3174 109.654 72.2867 109.516 72.2713C109.162 72.2405 109.07 72.2251 108.608 72.1021C108.577 72.1021 108.531 72.1021 108.485 72.0867C108.47 72.1174 108.424 72.1174 108.424 72.1482C108.377 72.3174 108.331 72.5021 108.331 72.6867C108.331 72.7482 108.316 72.8251 108.301 72.8867C108.254 73.0098 108.254 73.1328 108.254 73.2559C108.239 73.3944 108.224 73.5175 108.193 73.6405C108.177 73.7175 108.177 73.7944 108.162 73.8867C108.162 74.0713 108.147 74.2406 108.116 74.4252C108.085 74.5329 108.085 74.6406 108.085 74.7636C108.07 75.0559 108.085 75.3483 108.024 75.6406C108.024 76.1175 107.977 76.5944 108.054 77.056C108.07 77.1483 108.07 77.2252 108.07 77.3175C108.07 77.5329 108.131 77.7483 108.177 77.9791C108.193 78.0714 108.239 78.1483 108.331 78.2098C108.424 78.2714 108.454 78.3637 108.47 78.456C108.454 78.6099 108.331 78.656 108.208 78.6868C108.101 78.656 107.993 78.6099 107.931 78.4868C107.885 78.2714 107.824 78.0406 107.824 77.8098C107.731 77.3791 107.747 76.9483 107.731 76.5175C107.731 75.979 107.747 75.4406 107.747 74.9175C107.762 74.7329 107.762 74.5482 107.793 74.379C107.824 74.2713 107.808 74.1482 107.824 74.0405C107.839 73.8098 107.839 73.5636 107.885 73.3328C107.916 73.2251 107.901 73.1021 107.916 72.9944C107.916 72.8405 107.931 72.6867 107.962 72.5328C108.008 72.3636 108.008 72.179 107.993 72.0097C107.977 71.9636 107.947 71.9328 107.901 71.9174C107.716 71.8559 107.531 71.8097 107.331 71.8405C107.27 71.8405 107.208 71.8251 107.177 71.8251C107.008 71.7636 106.901 71.6559 106.839 71.5174C106.808 71.379 106.854 71.2559 106.916 71.1482C107.008 71.0405 107.131 70.979 107.285 70.979C107.377 70.979 107.454 70.9943 107.531 71.0405C107.593 71.102 107.654 71.1482 107.731 71.1943C107.824 71.2559 107.916 71.3174 108.039 71.3328C108.054 71.302 108.101 71.2713 108.116 71.2405C108.131 71.2097 108.147 71.1636 108.147 71.1174C108.147 70.8097 108.239 70.5174 108.254 70.2097C108.347 69.7943 108.377 69.3789 108.47 68.9789C108.516 68.7943 108.531 68.6097 108.562 68.4097C108.562 68.3174 108.562 68.2097 108.562 68.102C108.577 67.902 108.654 67.7481 108.824 67.6558C108.854 67.6404 108.885 67.6404 108.916 67.6251C109.208 67.5789 109.393 67.6558 109.501 67.9635C109.516 68.0866 109.531 68.2097 109.501 68.3174C109.439 68.4866 109.301 68.5635 109.208 68.6558C109.054 68.9328 109.008 69.2251 108.931 69.5174C108.793 70.0866 108.654 70.6559 108.562 71.2251C108.562 71.302 108.531 71.3636 108.516 71.4405C108.516 71.4559 108.531 71.4867 108.547 71.5174C108.701 71.5944 108.901 71.6559 109.054 71.6713C109.208 71.6867 109.347 71.6867 109.485 71.7174C109.577 71.7328 109.67 71.7328 109.778 71.7174C109.885 71.7174 109.993 71.6867 110.101 71.6559C110.193 71.6405 110.285 71.5944 110.378 71.5636C110.531 71.4713 110.654 71.3174 110.854 71.2559C110.901 71.2559 110.962 71.2405 111.039 71.2251C111.054 71.1943 111.085 71.1636 111.085 71.1174C111.101 70.6713 111.193 70.2405 111.208 69.7789C111.208 69.7174 111.224 69.6405 111.224 69.5789C111.27 69.302 111.285 69.0251 111.27 68.7481C111.27 68.7328 111.254 68.7174 111.254 68.702C111.162 68.6405 111.07 68.5789 110.993 68.5481C110.854 68.3789 110.824 68.2251 110.87 68.0404C110.931 67.902 111.039 67.7943 111.178 67.7327C111.347 67.702 111.516 67.702 111.685 67.7327C111.839 67.7789 111.947 67.8866 112.008 68.0404ZM117.753 76.179C117.8 76.3021 117.784 76.4252 117.769 76.5637C117.661 76.7791 117.492 76.9329 117.246 76.9944C117.03 77.0714 116.8 77.1483 116.569 77.2252C116.123 77.3637 115.677 77.5329 115.246 77.7329C114.984 77.856 114.707 77.9483 114.477 78.0406C114.23 78.0868 114.046 78.0868 113.846 78.056C113.492 77.9483 113.307 77.6714 113.169 77.3637C113 77.0406 112.892 76.6867 112.83 76.3329C112.784 76.1329 112.723 75.9483 112.723 75.7483C112.723 75.579 112.661 75.4252 112.661 75.256C112.661 75.1021 112.646 74.9483 112.646 74.7944C112.63 74.779 112.615 74.7483 112.584 74.7329C112.507 74.7329 112.446 74.8098 112.369 74.8406C112.292 74.8713 112.215 74.9175 112.138 74.9483C112.061 74.9483 111.969 74.9483 111.907 74.9483C111.784 74.9021 111.707 74.8252 111.661 74.7175C111.63 74.5636 111.676 74.4406 111.8 74.3329C111.861 74.2867 111.938 74.2406 112.015 74.2098C112.153 74.1482 112.292 74.0867 112.43 74.0252C112.492 73.9944 112.553 73.9636 112.615 73.9329C112.63 73.8713 112.646 73.8405 112.646 73.7944C112.646 73.579 112.661 73.3482 112.661 73.1328C112.661 72.9944 112.661 72.8713 112.707 72.7482C112.707 72.7174 112.723 72.6713 112.723 72.6251C112.707 72.2405 112.8 71.8559 112.83 71.4559C112.846 71.179 112.892 70.902 112.938 70.6251C112.984 70.4405 113 70.2405 113.015 70.0559C112.969 69.9636 112.938 69.8712 112.923 69.7943C112.938 69.6559 112.984 69.5482 113.061 69.4712C113.169 69.3482 113.23 69.2097 113.23 69.0558C113.246 68.9328 113.276 68.8405 113.307 68.7328C113.369 68.4866 113.492 68.3174 113.738 68.2558C113.984 68.1943 114.169 68.302 114.307 68.5174C114.338 68.5635 114.353 68.6097 114.384 68.6405C114.415 68.6558 114.446 68.6712 114.477 68.6558C114.646 68.6251 114.83 68.5789 115 68.502C115.046 68.4866 115.092 68.4558 115.138 68.4097C115.2 68.3481 115.292 68.302 115.4 68.2404C115.553 68.2097 115.738 68.2251 115.907 68.2404C116.107 68.3174 116.2 68.4712 116.246 68.6866C116.215 68.7481 116.184 68.8405 116.169 68.9174C116.092 69.0558 115.969 69.1174 115.861 69.1482C115.769 69.1789 115.661 69.2097 115.584 69.2251C115.538 69.2251 115.507 69.2251 115.492 69.2097C115.261 69.1328 115.046 69.1482 114.83 69.2097C114.769 69.2405 114.692 69.2558 114.63 69.2712C114.353 69.3635 114.246 69.4097 113.953 69.6251C113.892 69.7174 113.861 69.8405 113.83 69.9636C113.707 70.4559 113.615 70.9482 113.507 71.4405C113.507 71.702 113.415 71.9636 113.4 72.2251C113.4 72.4097 113.323 72.579 113.323 72.7636C113.323 72.9482 113.307 73.1328 113.261 73.3021C113.246 73.379 113.246 73.4405 113.261 73.5175C113.261 73.5328 113.276 73.5636 113.292 73.5944C113.307 73.5944 113.323 73.5944 113.323 73.5944C113.63 73.4867 114.661 72.9636 115.107 72.7021C115.138 72.6713 115.169 72.6098 115.215 72.5482C115.307 72.4097 115.43 72.3328 115.6 72.3482C115.63 72.3482 115.661 72.3636 115.707 72.3636C115.753 72.3944 115.815 72.4251 115.877 72.4713C115.923 72.5328 115.969 72.5944 116 72.6559C116.015 72.8713 116.015 72.8713 115.877 73.0867C115.846 73.1175 115.784 73.1482 115.738 73.179C115.692 73.179 115.661 73.1944 115.646 73.1944C115.43 73.1944 115.23 73.2559 115.03 73.3482C114.753 73.4559 114.477 73.5944 114.215 73.7482C113.938 73.9175 113.646 74.0713 113.369 74.2252C113.338 74.2406 113.307 74.2713 113.276 74.2867C113.23 74.3482 113.23 74.4098 113.23 74.4559C113.23 74.7944 113.23 75.1329 113.261 75.4713C113.292 75.8867 113.369 76.3021 113.507 76.6867C113.569 76.8714 113.646 77.056 113.753 77.2252C113.769 77.256 113.8 77.2868 113.83 77.3175C113.892 77.3945 113.969 77.4098 114.061 77.3945C114.2 77.3637 114.323 77.3021 114.446 77.2406C114.661 77.1175 114.861 77.0098 115.077 76.9021C115.553 76.656 116.046 76.4714 116.553 76.3021C116.646 76.2714 116.738 76.2406 116.83 76.2098C116.938 76.1021 117.015 75.9483 117.2 75.8867C117.261 75.8867 117.353 75.8867 117.446 75.8867C117.584 75.9483 117.692 76.0406 117.753 76.179ZM129.846 67.9327C129.892 68.1481 129.861 68.3635 129.815 68.5789C129.8 68.6866 129.784 68.7943 129.769 68.9174C129.754 69.0558 129.754 69.1943 129.708 69.3328C129.692 69.3943 129.692 69.4712 129.692 69.5328C129.677 69.7328 129.661 69.9174 129.631 70.1174C129.6 70.2405 129.615 70.3636 129.6 70.4866C129.584 70.702 129.6 70.9174 129.538 71.1174C129.523 71.1943 129.538 71.2867 129.523 71.3636C129.523 71.6713 129.523 71.9636 129.508 72.2559C129.492 72.5328 129.508 72.8098 129.461 73.0867C129.446 73.1636 129.461 73.2559 129.461 73.3328C129.446 73.7328 129.446 74.1175 129.446 74.5175C129.461 74.7021 129.446 74.8713 129.492 75.0559C129.508 75.1175 129.492 75.1944 129.508 75.2713C129.523 75.6867 129.508 76.1021 129.584 76.5175C129.6 76.9175 129.708 77.3175 129.723 77.7637C129.708 77.8098 129.692 77.8868 129.677 77.9483C129.584 78.0868 129.477 78.1329 129.354 78.1483C129.169 78.1329 129.031 78.0406 128.938 77.8406C128.938 77.7945 128.923 77.7175 128.923 77.6252C128.908 77.456 128.908 77.2714 128.877 77.0868C128.861 76.9944 128.861 76.9021 128.861 76.7944C128.846 76.2867 128.846 75.7944 128.831 75.2867C128.831 75.1483 128.831 75.0098 128.8 74.8713C128.784 74.779 128.784 74.6713 128.784 74.579C128.784 73.8713 128.784 73.179 128.784 72.4713C128.784 72.3482 128.784 72.2251 128.815 72.1021C128.831 72.0251 128.831 71.9328 128.831 71.8559C128.831 71.7174 128.846 71.579 128.815 71.4251C128.754 71.4867 128.708 71.5482 128.677 71.6251C128.569 71.8559 128.461 72.0867 128.354 72.3021C128.108 72.7636 127.846 73.2098 127.523 73.6252C127.261 73.9636 126.954 74.2713 126.631 74.5482C126.507 74.6559 126.384 74.7329 126.246 74.8252C126.092 74.9175 125.923 74.979 125.754 75.0252C125.615 75.0559 125.507 75.0713 125.384 75.0252C125.323 75.0098 125.277 74.9944 125.215 74.979C125.061 74.9021 124.938 74.779 124.846 74.6406C124.8 74.5944 124.769 74.5329 124.738 74.4713C124.6 74.1636 124.507 73.8405 124.477 73.5021C124.477 73.4713 124.477 73.4405 124.461 73.4252C124.384 73.0559 124.384 72.7021 124.369 72.3328C124.369 72.2405 124.354 72.1328 124.354 72.0405C124.338 71.902 124.323 71.7636 124.307 71.6251C124.307 71.579 124.292 71.5482 124.277 71.502C124.261 71.5328 124.246 71.5482 124.246 71.5636C124.231 71.702 124.231 71.8405 124.215 71.9944C124.215 72.1021 124.2 72.2097 124.184 72.3174C124.169 72.3944 124.154 72.4559 124.154 72.5328C124.138 72.779 124.138 73.0251 124.077 73.2713C124.077 73.6559 124 74.0252 123.969 74.4098C123.969 74.4867 123.954 74.5636 123.938 74.6559C123.923 74.7329 123.907 74.8098 123.907 74.9021C123.877 75.0713 123.892 75.2406 123.831 75.3944C123.815 75.4252 123.815 75.456 123.815 75.4867C123.815 75.779 123.738 76.056 123.707 76.3483C123.661 76.7175 123.569 77.0868 123.507 77.456C123.461 77.6714 123.415 77.8714 123.384 78.0868C123.369 78.1945 123.338 78.3022 123.292 78.3945C123.169 78.5945 123.015 78.656 122.784 78.6099C122.754 78.5945 122.707 78.5637 122.677 78.5483C122.63 78.5022 122.6 78.456 122.569 78.4252C122.507 78.1791 122.461 77.9175 122.477 77.6714C122.477 77.1637 122.477 76.6714 122.477 76.1637C122.477 76.0406 122.477 75.9021 122.507 75.779C122.523 75.7483 122.523 75.7021 122.523 75.656C122.523 75.256 122.6 74.8559 122.646 74.4559C122.661 74.2098 122.707 73.979 122.754 73.7482C122.8 73.5175 122.83 73.2867 122.861 73.0559C122.923 72.7021 123 72.3636 123.077 72.0251C123.169 71.5944 123.261 71.179 123.354 70.7636C123.354 70.702 123.369 70.6405 123.369 70.5943C123.4 70.2866 123.477 69.9789 123.538 69.6866C123.615 69.3635 123.738 69.0558 123.969 68.7635C124.107 68.6405 124.261 68.5635 124.431 68.5328C124.477 68.5481 124.507 68.5481 124.554 68.5635C124.8 68.6251 124.923 68.8097 124.969 69.0405C125.015 69.2405 125.061 69.4405 125.046 69.6559C125.046 69.8559 125.046 70.0559 125.046 70.2405C125.046 70.302 125.046 70.3636 125.046 70.4097C124.954 71.0405 125 71.6713 125 72.3021C125 72.3482 125 72.4097 125.015 72.4713C125.061 72.6713 125.046 72.8867 125.061 73.0867C125.092 73.379 125.154 73.6713 125.231 73.9482C125.261 74.0405 125.292 74.1329 125.338 74.2252C125.384 74.3021 125.446 74.3482 125.538 74.379C125.631 74.3944 125.692 74.3329 125.769 74.3021C125.938 74.1944 126.092 74.0867 126.231 73.9482C126.6 73.6098 126.892 73.2251 127.154 72.8098C127.492 72.2559 127.769 71.6867 128 71.0866C128.369 70.1789 128.646 69.2712 128.938 68.3481C128.969 68.2251 129.015 68.102 129.061 67.9943C129.108 67.8558 129.2 67.7481 129.354 67.702C129.569 67.6558 129.723 67.7174 129.846 67.9327ZM135.194 67.4558C135.302 67.5174 135.364 67.6251 135.394 67.7635C135.394 67.8558 135.364 67.9635 135.317 68.0712C135.271 68.1635 135.21 68.2558 135.133 68.3328C135.056 68.4097 134.948 68.4404 134.841 68.4712C134.702 68.5943 134.625 68.7481 134.548 68.8866C134.333 69.2558 134.148 69.6405 133.979 70.0405C133.671 70.779 133.41 71.5328 133.164 72.3021C133.148 72.3636 133.133 72.4405 133.117 72.5174C133.179 72.5944 133.241 72.6713 133.302 72.7328C133.302 72.8251 133.302 72.8867 133.302 72.9482C133.287 72.979 133.287 73.0098 133.287 73.0251C133.241 73.1328 133.164 73.2251 133.071 73.2867C133.025 73.3328 132.964 73.379 132.902 73.4098C132.841 73.5021 132.81 73.5944 132.794 73.6867C132.702 74.0713 132.61 74.4713 132.517 74.8559C132.456 75.1483 132.394 75.456 132.348 75.7483C132.287 76.056 132.21 76.3637 132.164 76.6714C132.117 76.9021 132.087 77.1329 132.056 77.3637C132.041 77.4406 132.041 77.5021 132.025 77.5791C132.01 77.6714 131.994 77.7483 131.994 77.8406C131.979 77.9945 131.979 78.1483 131.933 78.3022C131.917 78.3791 131.917 78.4714 131.917 78.5637C131.917 78.6868 131.902 78.8252 131.902 78.9637C131.902 79.0868 131.871 79.2099 131.81 79.3176C131.764 79.3945 131.687 79.456 131.61 79.4714C131.517 79.4714 131.471 79.4406 131.425 79.4099C131.364 79.3483 131.317 79.2868 131.317 79.2253C131.302 79.0868 131.317 78.9483 131.348 78.8252C131.394 78.5945 131.44 78.3637 131.487 78.1483C131.594 77.7021 131.671 77.256 131.779 76.8252C131.825 76.5791 131.871 76.3483 131.917 76.1175C132.01 75.7637 132.071 75.4252 132.133 75.0713C132.194 74.8098 132.256 74.5482 132.317 74.2867C132.348 74.1329 132.379 73.9636 132.425 73.7944C132.425 73.7328 132.441 73.6713 132.41 73.6098C132.364 73.5482 132.271 73.579 132.164 73.5328C132.102 73.5021 131.994 73.4252 131.902 73.3482C131.702 73.1021 131.564 72.8251 131.456 72.5328C131.317 72.1482 131.21 71.7636 131.164 71.3636C131.102 71.1328 131.117 70.902 131.087 70.6713C131.01 70.1174 131.04 69.5482 131.04 68.9943C131.04 68.8405 131.04 68.6712 131.087 68.5174C131.102 68.4712 131.102 68.4097 131.087 68.3481C131.087 68.0558 131.164 67.7789 131.194 67.502C131.21 67.3943 131.256 67.2712 131.271 67.1635C131.333 67.0404 131.425 66.9481 131.517 66.8866C131.594 66.8404 131.687 66.825 131.764 66.8404C131.871 66.8558 131.948 66.902 132.025 66.9789C132.087 67.0404 132.133 67.102 132.133 67.1943C132.148 67.302 132.148 67.3943 132.117 67.502C132.087 67.5481 132.041 67.6097 131.994 67.6866C131.933 67.9174 131.856 68.1635 131.825 68.4097C131.825 68.5635 131.764 68.702 131.764 68.8558C131.764 68.9789 131.748 69.1174 131.717 69.2405C131.702 69.3328 131.702 69.4097 131.702 69.502C131.702 69.8866 131.687 70.2559 131.687 70.6405C131.687 70.8713 131.687 71.102 131.748 71.3328C131.748 71.5328 131.794 71.7328 131.841 71.9328C131.902 72.2097 131.979 72.4867 132.117 72.7328C132.148 72.7944 132.194 72.8559 132.241 72.9021C132.256 72.9328 132.302 72.9482 132.333 72.979C132.364 72.9636 132.41 72.9482 132.425 72.9328C132.487 72.8713 132.564 72.7944 132.625 72.7174C132.656 72.6559 132.687 72.579 132.702 72.5174C132.841 71.9328 132.994 71.3636 133.164 70.7943C133.379 70.0866 133.61 69.3789 133.917 68.702C134.071 68.3481 134.241 68.0251 134.471 67.7174C134.533 67.6097 134.61 67.5174 134.733 67.425C134.794 67.4097 134.871 67.3943 134.948 67.3635C135.041 67.3635 135.133 67.4097 135.194 67.4558ZM141.176 70.0251C141.284 70.3789 141.299 70.7328 141.238 71.102C141.176 71.4251 141.13 71.7328 141.038 72.0405C140.899 72.579 140.715 73.0867 140.515 73.5944C140.284 74.2098 139.976 74.8252 139.669 75.4098C139.269 76.1637 138.807 76.8867 138.268 77.5483C137.715 78.2252 137.084 78.8252 136.33 79.256C136.299 79.2868 136.253 79.3022 136.207 79.3329C136.145 79.3329 136.084 79.3329 136.007 79.3329C135.899 79.3176 135.807 79.2253 135.807 79.1176C135.792 78.9945 135.853 78.8714 135.945 78.8406C136.022 78.7945 136.099 78.7637 136.176 78.7483C136.576 78.6252 136.915 78.4099 137.222 78.1329C137.607 77.7945 137.93 77.4252 138.238 77.0098C138.576 76.5483 138.869 76.056 139.145 75.5483C139.607 74.6559 140.007 73.7175 140.299 72.7328C140.392 72.379 140.499 72.0251 140.53 71.6713C140.622 71.302 140.607 70.9174 140.592 70.5482C140.545 70.3943 140.499 70.2405 140.376 70.102C140.345 70.0866 140.284 70.0559 140.238 70.0251C139.93 69.9636 139.653 70.0405 139.392 70.1482C139.022 70.302 138.669 70.502 138.361 70.7636C138.207 70.902 138.053 71.0251 137.915 71.1482C137.822 71.2251 137.699 71.2867 137.592 71.3328C137.576 71.3328 137.561 71.3328 137.545 71.3328C137.253 71.3943 136.976 71.1482 136.976 70.9174C136.961 70.8097 136.976 70.702 137.007 70.5789C137.115 70.4097 137.268 70.2713 137.438 70.1328C137.653 69.9789 137.853 69.8097 138.084 69.6712C138.238 69.5943 138.345 69.4712 138.438 69.3328C138.807 68.7635 139.145 68.1789 139.407 67.5635C139.422 67.5327 139.407 67.4866 139.407 67.4558C139.376 67.4404 139.345 67.425 139.315 67.4097C139.299 67.4097 139.269 67.4097 139.238 67.4097C138.669 67.4712 138.145 67.6097 137.653 67.902C137.499 67.9943 137.376 68.102 137.253 68.2404C137.238 68.302 137.207 68.3635 137.192 68.4251C137.161 68.4866 137.145 68.5328 137.13 68.5943C137.084 68.6405 137.022 68.6866 136.976 68.7328C136.93 68.7635 136.884 68.7789 136.838 68.8097C136.668 68.8405 136.515 68.7943 136.407 68.6866C136.268 68.5635 136.222 68.4097 136.253 68.2404C136.299 68.1174 136.361 68.0251 136.453 67.9635C136.484 67.9481 136.499 67.9327 136.53 67.9174C136.699 67.8558 136.853 67.7789 137.022 67.6866C137.361 67.4866 137.699 67.3174 138.084 67.1943C138.33 67.1173 138.592 67.0558 138.853 67.0097C139.115 66.9635 139.376 66.9635 139.622 66.9789C139.761 67.025 139.853 67.102 139.915 67.225C139.961 67.3789 139.945 67.5635 139.884 67.7327C139.838 67.8712 139.776 68.0251 139.715 68.1635C139.607 68.3943 139.484 68.6405 139.376 68.8712C139.33 68.9482 139.299 69.0251 139.269 69.102C139.299 69.1174 139.33 69.1328 139.361 69.1635C139.515 69.1174 139.669 69.0866 139.838 69.0866C140.099 69.0866 140.345 69.1482 140.576 69.2558C140.899 69.4251 141.084 69.6866 141.176 70.0251ZM144.776 72.779C145.037 72.9944 145.16 73.2867 145.176 73.6098C145.206 73.9021 145.222 74.1944 145.13 74.4867C144.976 75.5329 144.406 76.7637 143.853 77.5175C143.576 77.8714 143.268 78.1945 142.899 78.456C142.745 78.5637 142.576 78.6714 142.376 78.7176C142.33 78.7329 142.268 78.7637 142.206 78.7791C142.176 78.8252 142.145 78.8868 142.114 78.9483C141.976 79.1637 141.683 79.1637 141.545 78.9637C141.529 78.9483 141.529 78.9176 141.499 78.8714C141.499 78.8406 141.499 78.7791 141.483 78.7329C141.483 78.6868 141.483 78.6406 141.483 78.5945C141.468 78.5637 141.468 78.5175 141.437 78.4868C141.36 78.3483 141.283 78.2252 141.268 78.1022C141.268 77.8868 141.422 77.8098 141.499 77.6868C141.499 77.5637 141.514 77.4252 141.514 77.3021C141.514 77.1637 141.514 77.0252 141.545 76.8867C141.56 76.8098 141.56 76.7175 141.56 76.6406C141.576 76.379 141.576 76.1329 141.591 75.8867C141.591 75.6713 141.591 75.4713 141.637 75.256C141.668 75.1329 141.653 75.0098 141.653 74.8867C141.668 74.5944 141.668 74.3175 141.714 74.0405C141.745 73.9482 141.729 73.8559 141.745 73.7482C141.76 73.5175 141.745 73.2713 141.806 73.0405C141.822 72.9482 141.822 72.8559 141.822 72.7482C141.837 72.5174 141.837 72.2713 141.883 72.0405C141.914 71.8867 141.914 71.7328 141.914 71.579C141.929 71.3943 141.929 71.2251 141.976 71.0405C141.899 70.8866 141.791 70.7482 141.791 70.5636C141.791 70.5636 141.791 70.5482 141.791 70.5328C141.837 70.1943 142.053 70.0251 142.36 69.9636C142.545 69.9943 142.683 70.0712 142.806 70.2405C142.837 70.3174 142.868 70.4251 142.899 70.5174C142.822 70.979 142.714 71.4251 142.653 71.8867C142.591 72.1328 142.591 72.3944 142.53 72.6251C142.499 72.7328 142.499 72.8559 142.499 72.9636C142.499 72.9944 142.53 73.0098 142.53 73.0405C142.668 73.0098 142.76 72.9175 142.868 72.8713C143.053 72.779 143.237 72.6867 143.453 72.6405C143.699 72.5636 143.945 72.5482 144.191 72.5636C144.237 72.5636 144.283 72.5636 144.33 72.579C144.422 72.5944 144.53 72.6405 144.637 72.6713C144.683 72.7021 144.73 72.7328 144.776 72.779ZM144.745 74.1944C144.776 74.0252 144.776 73.8559 144.714 73.7021C144.699 73.6098 144.683 73.5328 144.668 73.4405C144.637 73.3944 144.606 73.3328 144.56 73.2713C144.499 73.2251 144.453 73.1944 144.406 73.1636C144.222 73.1328 144.083 73.1482 143.914 73.1636C143.791 73.2251 143.668 73.2713 143.545 73.3328C143.314 73.4405 143.145 73.6098 143.053 73.8252C143.006 73.9329 142.96 74.0405 142.914 74.1329C142.868 74.2252 142.837 74.3175 142.776 74.3944C142.683 74.5482 142.56 74.6559 142.376 74.6713C142.345 74.6713 142.314 74.7021 142.283 74.7175C142.268 74.7483 142.268 74.7636 142.268 74.7636C142.222 75.179 142.145 75.5944 142.145 76.0252C142.145 76.0714 142.145 76.1329 142.13 76.1944C142.083 76.3483 142.099 76.5175 142.083 76.6867C142.083 76.9944 142.068 77.3021 142.068 77.6098C142.068 77.8098 142.068 77.9945 142.068 78.2098C142.114 78.2406 142.145 78.2714 142.16 78.2714C142.283 78.2868 142.391 78.2714 142.483 78.2252C142.699 78.1175 142.883 77.9945 143.053 77.8406C143.299 77.6252 143.499 77.3637 143.683 77.0714C144.099 76.456 144.391 75.779 144.591 75.0559C144.622 74.9175 144.653 74.7636 144.683 74.6098C144.699 74.4713 144.714 74.3329 144.745 74.1944ZM147.207 70.1789C147.222 70.2405 147.222 70.3174 147.222 70.3789C147.222 70.4866 147.222 70.6097 147.191 70.7174C147.13 70.9482 147.13 71.179 147.068 71.4097C147.053 71.4867 147.053 71.5482 147.037 71.6251C147.037 71.7636 147.022 71.902 146.976 72.0405C146.96 72.1174 146.96 72.1944 146.96 72.2867C146.945 72.379 146.96 72.4867 146.93 72.579C146.883 72.7482 146.883 72.9021 146.868 73.0713C146.853 73.2251 146.853 73.379 146.822 73.5328C146.791 73.5944 146.807 73.6713 146.791 73.7328C146.776 74.0098 146.776 74.2713 146.73 74.5329C146.699 74.7175 146.714 74.9175 146.699 75.1175C146.683 75.3483 146.699 75.5944 146.653 75.8252C146.637 75.8713 146.637 75.9175 146.637 75.9483C146.622 76.6867 146.607 77.4406 146.622 78.1791C146.622 78.2098 146.637 78.2252 146.637 78.3022C146.683 78.4252 146.73 78.5637 146.776 78.7022C146.791 78.856 146.683 78.9483 146.545 79.0099C146.36 79.0252 146.283 78.9022 146.222 78.7176C146.237 78.5945 146.283 78.4406 146.283 78.2868C146.268 78.1483 146.283 78.0098 146.283 77.8714C146.283 76.9944 146.299 76.1021 146.299 75.2252C146.299 75.0406 146.299 74.8559 146.33 74.6867C146.345 74.6098 146.345 74.5175 146.345 74.4252C146.36 74.0252 146.36 73.6252 146.376 73.2098C146.376 72.9636 146.36 72.7174 146.422 72.4713C146.437 72.4405 146.422 72.4097 146.422 72.379C146.437 71.902 146.453 71.4251 146.453 70.9943C146.437 70.8866 146.376 70.8405 146.314 70.7943C146.16 70.6559 146.083 70.4866 146.145 70.2405C146.206 70.102 146.345 69.9789 146.514 69.8866C146.576 69.8866 146.637 69.8712 146.714 69.8712C146.76 69.8712 146.822 69.8712 146.868 69.8712C146.976 69.902 147.068 69.9482 147.13 70.0251C147.16 70.0712 147.191 70.1174 147.207 70.1789ZM152.958 77.856C153.004 77.9637 153.02 78.056 152.974 78.1483C152.928 78.2252 152.866 78.2406 152.789 78.2714C152.758 78.256 152.712 78.2406 152.681 78.2252C152.589 78.1637 152.543 78.0868 152.497 78.0098C152.328 77.7329 152.158 77.456 152.004 77.1791C151.666 76.5791 151.358 75.9637 151.081 75.3329C150.774 74.6713 150.543 73.979 150.358 73.2867C150.281 72.9636 150.22 72.6559 150.143 72.3482C150.127 72.0867 150.035 71.8251 150.035 71.5636C150.035 71.5482 150.035 71.5328 150.035 71.5174C149.943 71.1328 149.958 70.7328 149.958 70.3482C149.958 70.302 149.943 70.2713 149.943 70.2251C149.912 70.2097 149.897 70.2097 149.866 70.2251C149.712 70.3789 149.558 70.5174 149.42 70.6713C149.081 71.0251 148.743 71.379 148.404 71.7482C148.251 71.902 148.112 72.0867 147.974 72.2405C147.912 72.4559 147.866 72.6559 147.851 72.8713C147.851 72.979 147.82 73.0867 147.804 73.1944C147.789 73.2867 147.789 73.3636 147.774 73.4559C147.758 73.6405 147.758 73.8405 147.712 74.0252C147.697 74.1329 147.697 74.2252 147.697 74.3175C147.666 74.6559 147.697 74.9944 147.62 75.3329C147.62 75.379 147.62 75.4406 147.62 75.5021C147.62 75.8252 147.62 76.1637 147.62 76.5021C147.62 76.6406 147.635 76.7791 147.651 76.9175C147.681 77.1021 147.681 77.2868 147.681 77.4714C147.697 77.7483 147.758 78.1791 147.82 78.5022C147.881 78.7791 147.927 79.056 148.004 79.3176C148.02 79.3791 148.02 79.4253 148.02 79.4868C148.02 79.5483 148.02 79.5945 148.02 79.656C147.974 79.7176 147.927 79.7637 147.897 79.7945C147.774 79.8406 147.681 79.8406 147.589 79.7945C147.527 79.7483 147.497 79.6868 147.451 79.6099C147.404 79.3022 147.343 78.9637 147.343 78.6252C147.343 78.5791 147.343 78.5483 147.327 78.5022C147.266 78.2252 147.266 77.9483 147.266 77.6714C147.235 76.6867 147.235 75.7021 147.266 74.7329C147.281 74.5175 147.266 74.3021 147.327 74.1021C147.343 73.8252 147.343 73.5482 147.358 73.2713C147.358 73.2405 147.327 73.2251 147.327 73.1944C147.189 73.2559 147.143 73.4098 147.02 73.4867C146.912 73.5328 146.804 73.5482 146.697 73.4713C146.604 73.3944 146.589 73.2867 146.604 73.1636C146.65 73.0405 146.743 72.9328 146.835 72.8251C147.004 72.6559 147.174 72.4867 147.327 72.3021C147.389 72.2405 147.451 72.179 147.497 72.1328C147.558 71.6713 147.62 71.2251 147.681 70.7943C147.743 70.3328 147.82 69.8712 147.881 69.4251C147.958 68.9789 148.035 68.5481 148.112 68.102C148.189 67.6712 148.297 67.225 148.389 66.7789C148.512 66.5789 148.512 66.5789 148.804 66.4712C148.943 66.4866 149.066 66.5327 149.158 66.6558C149.251 66.7635 149.297 66.902 149.281 67.0404C149.266 67.0712 149.266 67.102 149.251 67.1173C149.112 67.3943 148.989 67.6712 148.927 67.9789C148.666 68.7328 148.497 69.5174 148.312 70.2866C148.235 70.5943 148.174 70.9174 148.112 71.2251C148.097 71.2867 148.097 71.3328 148.143 71.379C148.251 71.3328 148.297 71.2405 148.358 71.179C148.435 71.0866 148.497 71.0097 148.574 70.9174C148.866 70.5789 149.174 70.2559 149.466 69.9174C149.697 69.6405 149.927 69.3635 150.174 69.0866C150.374 68.8405 150.574 68.6097 150.774 68.3789C151.051 68.0866 151.312 67.7789 151.589 67.4866C151.681 67.3481 151.697 67.1789 151.789 67.1173C151.912 67.0404 152.02 67.025 152.112 66.9943C152.204 66.9943 152.297 67.0404 152.389 67.0712C152.543 67.225 152.543 67.225 152.62 67.4558C152.589 67.6097 152.543 67.7327 152.435 67.8558C151.881 68.302 151.328 68.7789 150.835 69.302C150.835 69.3482 150.835 69.3943 150.851 69.4251C150.881 69.5174 150.866 69.5943 150.82 69.6712C150.789 69.7482 150.743 69.8251 150.681 69.8866C150.62 69.9482 150.589 70.0251 150.574 70.102C150.527 70.2866 150.466 70.4866 150.466 70.6713C150.435 71.179 150.435 71.6867 150.466 72.1944C150.481 72.4097 150.527 72.6251 150.574 72.8559C150.62 73.1175 150.681 73.3944 150.758 73.6713C150.851 73.9944 150.958 74.3329 151.081 74.6559C151.328 75.3329 151.651 75.9637 152.035 76.5637C152.297 76.9637 152.574 77.3483 152.866 77.7329C152.897 77.7791 152.928 77.8252 152.958 77.856ZM159.958 67.6558C159.974 67.7481 160.004 67.8712 160.035 67.9635C160.004 68.1635 159.989 68.3328 159.974 68.4866C159.943 68.6712 159.897 68.8558 159.851 69.0251C159.789 69.2866 159.743 69.5482 159.728 69.8097C159.712 70.0712 159.697 70.3328 159.666 70.6097C159.62 70.7943 159.635 70.9943 159.635 71.1943C159.62 71.3636 159.62 71.5482 159.589 71.7328C159.558 71.8251 159.574 71.9328 159.558 72.0251C159.558 72.3021 159.543 72.579 159.543 72.8713C159.528 73.0405 159.543 73.2251 159.497 73.4098C159.481 73.4867 159.481 73.579 159.481 73.6559C159.466 74.579 159.451 75.5021 159.481 76.4252C159.481 76.5944 159.466 76.7637 159.512 76.9329C159.528 76.9637 159.528 77.0098 159.528 77.056C159.528 77.4252 159.62 77.7791 159.651 78.1329C159.651 78.1945 159.666 78.2406 159.681 78.3022C159.697 78.4099 159.712 78.5175 159.712 78.6406C159.728 78.7329 159.697 78.8252 159.604 78.8714C159.497 78.9176 159.404 78.9176 159.328 78.8252C159.251 78.6099 159.22 78.3945 159.22 78.1637C159.204 77.5945 159.204 77.0252 159.189 76.456C159.189 76.3021 159.189 76.1483 159.174 75.9944C159.143 75.8252 159.158 75.656 159.174 75.4867C159.174 75.3636 159.189 75.2406 159.189 75.1175C159.204 73.9175 159.22 72.7328 159.22 71.5482C159.22 71.3943 159.22 71.2405 159.22 71.0866C159.204 71.0405 159.189 71.0405 159.158 71.0559C159.004 71.4251 158.866 71.8251 158.712 72.2097C158.435 72.9328 158.143 73.6405 157.82 74.3329C157.589 74.8406 157.343 75.3175 157.035 75.7637C156.835 76.056 156.62 76.3329 156.358 76.5791C156.051 76.8867 155.866 77.0098 155.42 77.1944C155.266 77.2252 155.097 77.2252 154.912 77.1944C154.881 77.1791 154.851 77.1637 154.804 77.1483C154.712 77.1021 154.62 77.0252 154.574 76.9175C154.527 76.8252 154.481 76.7175 154.451 76.656C154.42 76.456 154.389 76.3021 154.374 76.1637C154.358 76.0406 154.343 75.9329 154.358 75.8252C154.358 75.2252 154.358 74.6252 154.358 74.0098C154.358 73.979 154.358 73.9329 154.374 73.8867C154.42 73.6405 154.404 73.3944 154.42 73.1328C154.435 72.8559 154.435 72.579 154.481 72.3021C154.512 72.1482 154.497 71.9944 154.512 71.8405C154.527 71.6405 154.527 71.4559 154.558 71.2559C154.589 71.1174 154.589 70.979 154.589 70.8405C154.604 70.6405 154.604 70.4559 154.651 70.2559C154.681 70.1482 154.666 70.0405 154.681 69.9174C154.681 69.7482 154.681 69.5789 154.727 69.4251C154.758 69.0866 154.774 68.7481 154.789 68.4251C154.789 68.2712 154.712 68.1481 154.681 67.9789C154.712 67.9174 154.727 67.8558 154.758 67.8097C154.851 67.5789 155.097 67.4866 155.343 67.5943C155.389 67.6097 155.42 67.6251 155.466 67.6558C155.481 67.6866 155.512 67.7174 155.543 67.7481C155.604 67.8404 155.635 67.9481 155.666 68.0558C155.681 68.2558 155.697 68.4404 155.62 68.6405C155.589 68.9482 155.527 69.2405 155.451 69.5328C155.404 69.8251 155.343 70.1174 155.281 70.4097C155.22 70.7943 155.127 71.1943 155.081 71.5944C155.004 71.8713 155.02 72.1482 154.943 72.4251C154.927 72.4867 154.927 72.5636 154.927 72.6405C154.912 72.779 154.912 72.9175 154.881 73.0559C154.851 73.1328 154.851 73.2098 154.851 73.3021C154.835 73.4867 154.835 73.6559 154.789 73.8405C154.774 73.8867 154.774 73.9482 154.774 74.0098C154.758 74.6098 154.743 75.2098 154.758 75.8098C154.758 76.0406 154.82 76.256 154.866 76.4714C154.881 76.5175 154.912 76.5483 154.927 76.5791C155.004 76.6252 155.066 76.6406 155.127 76.5944C155.374 76.4714 155.574 76.2867 155.727 76.0867C155.958 75.8098 156.158 75.5329 156.343 75.2252C156.666 74.6713 156.974 74.1021 157.22 73.5175C157.435 73.0251 157.651 72.5482 157.851 72.0405C158.174 71.2097 158.497 70.3482 158.743 69.4712C158.851 69.1174 158.943 68.7481 159.02 68.3789C159.066 68.2097 159.066 68.0251 159.128 67.8404C159.143 67.7943 159.158 67.7481 159.174 67.6866C159.251 67.5174 159.374 67.425 159.558 67.4097C159.604 67.3943 159.635 67.4097 159.681 67.425C159.789 67.4558 159.866 67.5327 159.958 67.6558Z" fill="black"/>
<path d="M3.35658 4.20928H25.774V11.9394H11.8597V58.3203H3.35658V4.20928ZM50.4513 58.3203L48.9826 48.503H38.5469L37.0781 58.3203H29.2707L37.9285 4.20928H50.374L59.0318 58.3203H50.4513ZM47.823 41.1594L43.7261 13.7947L39.6291 41.1594H47.823ZM75.5145 4.20928C79.7403 4.20928 82.9097 5.34303 85.0226 7.61054C87.1355 9.87805 88.1919 13.202 88.1919 17.5824V24.6169C88.1919 28.9973 87.1355 32.3212 85.0226 34.5888C82.9097 36.8563 79.7403 37.99 75.5145 37.99H71.4948V58.3203H62.9916V4.20928H75.5145ZM71.4948 30.2599H75.5145C76.9059 30.2599 77.9366 29.8734 78.6065 29.1004C79.328 28.3273 79.6888 27.0132 79.6888 25.158V17.0413C79.6888 15.1861 79.328 13.872 78.6065 13.0989C77.9366 12.3259 76.9059 11.9394 75.5145 11.9394H71.4948V30.2599ZM111.07 58.3203L109.601 48.503H99.1651L97.6964 58.3203H89.8889L98.5467 4.20928H110.992L119.65 58.3203H111.07ZM108.441 41.1594L104.344 13.7947L100.247 41.1594H108.441ZM158.164 4.20928H166.667L156.231 26.1629L166.667 58.3203H157.932L150.202 34.3569L148.114 38.4538V58.3203H139.689V38.4538L137.601 34.2796L129.871 58.3203H121.136L131.649 26.3948L121.136 4.20928H129.639L139.689 26.0856V4.20928H148.114V26.0856L158.164 4.20928Z" fill="black"/>
</svg>
