<svg width="77" height="56" viewBox="0 0 77 56" fill="none" xmlns="http://www.w3.org/2000/svg">
<mask id="path-1-inside-1_1209_11449" fill="white">
<path d="M76.8882 0H0.888184V56H76.8882V0Z"/>
</mask>
<path d="M76.8882 0V-2H78.8882V0H76.8882ZM0.888184 0H-1.11182V-2H0.888184V0ZM0.888184 56V58H-1.11182V56H0.888184ZM76.8882 56H78.8882V58H76.8882V56ZM76.8882 2H0.888184V-2H76.8882V2ZM2.88818 0V56H-1.11182V0H2.88818ZM0.888184 54H76.8882V58H0.888184V54ZM74.8882 56V0H78.8882V56H74.8882Z" fill="#211E1F" mask="url(#path-1-inside-1_1209_11449)"/>
<path fill-rule="evenodd" clip-rule="evenodd" d="M37.9913 38.7033L52.8882 27.8516L37.9913 17L37.9913 24.2342L28.0604 17V38.7033L37.9913 31.4691L37.9913 38.7033Z" fill="#211E1F"/>
</svg>
