<svg width="44" height="41" viewBox="0 0 44 41" fill="none" xmlns="http://www.w3.org/2000/svg">
<path fill-rule="evenodd" clip-rule="evenodd" d="M3.01262 17.683C14.8214 11.9151 22.6826 8.08256 26.6301 6.22319C37.8653 0.948658 40.227 0.0379463 41.7453 0C42.0827 0 42.8249 0.0758931 43.331 0.531248C43.7359 0.910711 43.8371 1.40401 43.9046 1.78348C43.9721 2.16294 44.0395 2.95981 43.972 3.56695C43.3647 10.7767 40.7331 28.27 39.3835 36.3146C38.8099 39.7297 37.6966 40.8681 36.6169 40.982C34.2551 41.2097 32.467 39.2364 30.2064 37.5668C26.6301 34.9485 24.6395 33.3168 21.1643 30.7365C17.1494 27.7767 19.7473 26.145 22.0415 23.4887C22.6489 22.8057 33.0068 12.1808 33.2092 11.2321C33.243 11.1183 33.243 10.6629 33.0068 10.4352C32.7706 10.2075 32.4332 10.2834 32.1633 10.3593C31.7922 10.4352 26.124 14.6852 15.0913 23.0713C13.4718 24.3236 12.021 24.9307 10.7052 24.8928C9.25438 24.8548 6.48776 23.982 4.39593 23.2231C1.86549 22.3124 -0.158866 21.8191 0.00983065 20.2254C0.111048 19.3905 1.12322 18.5557 3.01262 17.683Z" fill="white"/>
</svg>
