<svg width="657" height="330" viewBox="0 0 657 330" fill="none" xmlns="http://www.w3.org/2000/svg">
<path d="M30.3113 131.293L114.919 112.379L94.994 101.983C124.736 111.416 137.923 133.554 134.554 168.398L133.977 174.462C130.03 193.328 125.891 202.617 121.56 202.328C119.827 220.039 89.3631 226.825 30.1669 222.686L30.3113 131.293ZM82.4328 132.592L68.5722 131.581L66.8397 132.881L66.5509 189.767L68.1391 189.911C87.5824 191.451 98.0741 183.51 99.6141 166.088L99.9029 163.201C101.539 143.854 95.7159 133.651 82.4328 132.592ZM34.3539 19.9747L30.6 19.8304L30.3113 131.581L115.64 113.389C123.726 110.213 128.779 101.117 130.8 86.1013L131.811 70.9412C129.694 36.9636 99.9992 19.9747 42.728 19.9747H34.3539ZM138.019 10.3012L136.576 116.854V247.519H140.907V319.999H138.019V324.907H142.495L140.907 10.3012H138.019ZM67.9947 55.7812H73.1924C88.4968 55.7812 96.149 62.4709 96.149 75.8502V78.0159C96.149 89.9514 87.6305 95.9192 70.5936 95.9192H67.9947V55.7812ZM5.91087 228.172L0.713152 231.926L0.42439 233.947L5.76649 230.338L5.91087 228.172ZM126.758 0.483311L122.426 4.23722H128.779V2.21588L126.758 0.483311ZM111.742 2.21588L113.908 9.7237L122.426 5.96979V4.23722L120.261 2.21588L118.095 4.23722H116.074L113.908 2.21588H111.742ZM96.8709 7.84674H94.7052L92.5395 9.7237L94.7052 15.2102H96.8709V7.84674ZM131.234 26.3275H133.255L135.276 28.0601L131.234 31.6696H128.779V28.0601L131.234 26.3275ZM90.3738 33.4022L94.7052 30.0814H96.8709V35.4235H92.5395L90.3738 33.4022ZM147.982 40.91L152.458 37.1561V42.7869H147.982V40.91ZM299.582 42.7869L303.913 39.033H306.079V42.7869L303.913 44.5195H301.748L299.582 42.7869ZM111.742 40.91H113.908L116.074 42.7869L111.742 46.5409H109.865V42.7869L111.742 40.91ZM205.59 50.1504L209.777 46.5409V48.2734L205.59 51.883V50.1504ZM165.019 51.883L169.35 48.2734H171.516V51.883H165.019ZM128.779 51.883H133.255V53.7599L128.779 57.5138V51.883ZM318.785 55.6369L323.116 51.883H325.282V55.6369L323.116 57.5138H320.95L318.785 55.6369ZM90.3738 55.6369H94.7052V57.5138L90.3738 61.2677V55.6369ZM226.958 57.5138H228.98L231.145 59.2464V61.2677L228.98 63.0003H226.958L224.792 61.2677V59.2464L226.958 57.5138ZM52.1128 63.0003L56.2998 59.2464H58.4656V63.0003L56.2998 64.7329H54.1341L52.1128 63.0003ZM184.221 63.0003L188.553 59.2464V64.7329H186.387L184.221 63.0003ZM265.508 59.2464H271.716V61.2677L269.551 63.0003L265.508 59.2464ZM145.816 64.7329L150.148 61.2677V63.0003L145.816 66.7542V64.7329ZM301.748 61.2677H306.079V66.7542H301.748V61.2677ZM107.555 68.4868L111.742 64.7329V66.7542L107.555 70.2193V68.4868ZM69.1498 72.0963L73.3368 68.4868H75.5025V70.2193L71.3155 73.9732H69.1498V72.0963ZM203.424 73.9732L207.756 70.2193V75.7058H205.59L203.424 73.9732ZM244.14 70.2193H250.348V72.0963L248.182 73.9732L244.14 70.2193ZM286.876 70.2193H289.042L292.94 73.9732H286.876V70.2193ZM162.997 75.7058L167.184 72.0963H169.35V75.7058H162.997ZM86.1867 81.4811L90.3738 77.7272V79.4597L86.1867 83.2136V81.4811ZM47.7814 85.0906L52.1128 81.4811H54.1341V85.0906H47.7814ZM265.508 85.0906L269.551 81.4811H271.716V85.0906H265.508ZM182.056 86.9675L186.387 83.2136H188.553V86.9675L186.387 88.7001H184.221L182.056 86.9675ZM141.629 88.7001L145.816 85.0906H147.982V88.7001L145.816 90.4327H143.795L141.629 88.7001ZM105.389 86.9675H107.555L109.865 88.7001L105.389 92.3096H103.224V88.7001L105.389 86.9675ZM64.8183 90.4327H71.3155V94.1866H64.8183V90.4327ZM289.042 92.3096L292.94 95.9192V97.9405H289.042V92.3096ZM203.424 97.9405L207.756 94.1866V99.6731H203.424V97.9405ZM160.832 99.6731L165.019 95.9192H167.184V101.55H160.832V99.6731ZM120.261 101.55L124.592 97.9405H126.758V101.55L124.592 103.427H122.426L120.261 101.55ZM81.8553 103.427L86.1867 99.6731V105.304H81.8553V103.427ZM184.221 107.181H186.387L188.553 108.913L184.221 112.667H182.056V108.913L184.221 107.181ZM222.916 110.646L226.958 107.181H228.98V110.646H222.916ZM310.266 107.181H316.474V108.913L314.309 110.646L310.266 107.181ZM139.463 112.667L143.795 108.913H145.816V114.4H141.629L139.463 112.667ZM99.0366 110.646H105.389V114.4H99.0366V110.646ZM60.6313 116.277L64.8183 112.667V114.4L60.6313 118.154V116.277ZM290.919 116.277L295.106 120.031V121.763H289.042V118.154L290.919 116.277ZM246.161 118.154H252.514V120.031L248.182 123.64H246.161V118.154ZM335.677 118.154L340.153 121.763V123.64L337.843 125.517L333.8 121.763V120.031L335.677 118.154ZM203.424 120.031H207.756L209.777 121.763L205.59 125.517H203.424V120.031ZM79.8339 121.763H81.8553L84.021 123.64L79.8339 127.105H77.6682V123.64L79.8339 121.763ZM118.095 121.763H124.592V125.517L122.426 127.105L118.095 123.64V121.763ZM160.832 121.763H167.184V125.517H160.832V121.763ZM269.551 129.127L273.882 132.736V134.613H267.385V130.859L269.551 129.127ZM312.143 130.859H318.785V134.613H312.143V130.859ZM99.0366 132.736H101.058L103.224 134.613L99.0366 138.367H96.8709V134.613L99.0366 132.736ZM137.298 136.49L141.629 132.736H143.795L145.816 134.613L141.629 138.367H139.463L137.298 136.49ZM182.056 132.736H186.387L188.553 134.613L184.221 138.367H182.056V132.736ZM224.792 132.736H231.145L228.98 138.367H224.792V132.736ZM54.1341 136.49L60.6313 134.613V140.244H54.1341V136.49ZM292.94 141.977L297.272 145.731V147.463L295.106 149.34L290.919 145.731V143.998L292.94 141.977ZM118.095 143.998H120.261L122.426 145.731L118.095 149.34H116.074V145.731L118.095 143.998ZM160.832 143.998L165.019 147.463V149.34H160.832L158.666 147.463V145.731L160.832 143.998ZM246.161 147.463L250.348 143.998H252.514V149.34H246.161V147.463ZM73.3368 149.34L77.6682 145.731H79.8339V147.463L75.5025 151.073H73.3368V149.34ZM203.424 145.731H209.777L205.59 149.34H203.424V145.731ZM135.276 158.436L139.463 154.827H141.629V160.457H135.276V158.436ZM180.034 154.827H186.387V158.436L184.221 160.457L180.034 156.704V154.827ZM222.916 156.704L228.98 154.827L231.145 156.704L226.958 160.457L222.916 156.704ZM94.7052 156.704H99.0366L101.058 158.436L99.0366 164.067L94.7052 160.457V156.704ZM269.551 156.704H275.903V160.457L273.882 162.19L269.551 158.436V156.704ZM314.309 156.704H320.95V162.19H314.309V156.704ZM54.1341 160.457H58.4656V165.8H54.1341V160.457ZM158.666 167.677H160.832L165.019 171.43V173.163L162.997 175.184L158.666 171.43V167.677ZM201.258 167.677H207.756V173.163H205.59L201.258 169.553V167.677ZM246.161 167.677H248.182L252.514 171.43V173.163H246.161V167.677ZM118.095 169.553L122.426 173.163V175.184L120.261 176.917L116.074 173.163V171.43L118.095 169.553ZM290.919 173.163L295.106 169.553H297.272V175.184H290.919V173.163ZM77.6682 171.43L81.8553 175.184L77.6682 178.794H75.5025V173.163L77.6682 171.43ZM224.792 180.671H226.958L231.145 184.136V186.013L228.98 187.89L224.792 184.136V180.671ZM137.298 186.013L141.629 182.548H143.795L145.816 184.136L143.795 189.622H141.629L137.298 186.013ZM180.034 186.013L184.221 182.548H186.387L188.553 184.136L184.221 187.89H182.056L180.034 186.013ZM267.385 182.548H273.882V186.013L271.716 187.89L267.385 184.136V182.548ZM96.8709 187.89L101.058 184.136H103.224V189.622H96.8709V187.89ZM312.143 184.136H318.785V186.013L314.309 189.622H312.143V184.136ZM58.4656 187.89H62.6526V193.376L58.4656 189.622V187.89ZM160.832 195.253H162.997L167.184 199.007V200.884L160.832 202.761L158.666 200.884L160.832 195.253ZM203.424 195.253H209.777V200.884H203.424V195.253ZM246.161 195.253H252.514V200.884H246.161V195.253ZM289.042 195.253H290.919L295.106 199.007L290.919 202.761H289.042V195.253ZM118.095 197.13H124.592V199.007L120.261 202.761H118.095V197.13ZM329.469 202.761L333.8 199.007H335.677V204.349H331.634L329.469 202.761ZM79.8339 200.884H84.021V206.371H79.8339V200.884ZM45.6156 204.349H47.7814L49.9471 202.761V209.98H47.7814L45.6156 204.349ZM180.034 209.98L186.387 208.103V209.98L188.553 211.857L184.221 215.467H182.056L180.034 209.98ZM224.792 208.103H226.958L231.145 211.857V213.59L228.98 215.467L224.792 211.857V208.103ZM137.298 213.59L141.629 209.98H143.795V215.467H139.463L137.298 213.59ZM267.385 209.98H273.882V211.857L269.551 215.467H267.385V209.98ZM310.266 209.98L314.309 213.59L310.266 217.344H308.1V211.857L310.266 209.98ZM101.058 211.857L105.389 215.467V217.344L103.224 219.221L99.0366 215.467V213.59L101.058 211.857ZM62.6526 215.467H69.1498V217.344L64.8183 220.953H62.6526V215.467ZM158.666 226.44L162.997 222.83H165.019L167.184 224.563L162.997 228.317H160.832L158.666 226.44ZM203.424 222.83H209.777V228.317H203.424V222.83ZM246.161 222.83H252.514V228.317H246.161V222.83ZM120.261 224.563H122.426L126.758 228.317V230.194L124.592 232.07L120.261 228.317V224.563ZM286.876 224.563H292.94V230.194H286.876V224.563ZM84.021 226.44L88.3524 230.194L84.021 233.947H81.8553V228.317L84.021 226.44ZM327.303 226.44H331.634V232.07H327.303V226.44ZM184.221 235.68L188.553 239.434V243.043H182.056V237.701L184.221 235.68ZM224.792 239.434L228.98 235.68H231.145V243.043H228.98L224.792 239.434ZM139.463 241.311L143.795 237.701H145.816V243.043H141.629L139.463 241.311ZM267.385 237.701H273.882V243.043H271.716L267.385 239.434V237.701ZM101.058 243.043L105.389 239.434H107.555V244.776H101.058V243.043ZM306.079 239.434H308.1L312.143 243.043V244.776H306.079V239.434ZM45.6156 248.53L49.9471 244.776V250.407H47.7814L45.6156 248.53ZM162.997 250.407L167.184 254.161V257.915H165.019L160.832 254.161V252.139L162.997 250.407ZM203.424 254.161L207.756 250.407H209.777L211.943 252.139L209.777 257.915H207.756L203.424 254.161ZM246.161 254.161L250.348 250.407L254.679 254.161V255.893H248.182L246.161 254.161ZM120.261 255.893L124.592 252.139H126.758V257.915L124.592 259.647L120.261 255.893ZM289.042 252.139H292.94L295.106 257.915H289.042V252.139ZM325.282 254.161H329.469V259.647H325.282V254.161ZM84.021 255.893H88.3524V261.38L84.021 257.915V255.893ZM58.4656 261.38L62.6526 257.915V263.257H58.4656V261.38ZM141.629 268.743L145.816 265.134V272.353H141.629V268.743ZM182.056 268.743L186.387 265.134L190.719 268.743V270.62H184.221L182.056 268.743ZM224.792 268.743L228.98 265.134H233.311V270.62H226.958L224.792 268.743ZM269.551 265.134H275.903V270.62H269.551V265.134ZM103.224 266.866L107.555 270.62V272.353L105.389 274.23L101.058 270.62V268.743L103.224 266.866ZM308.1 270.62L312.143 266.866H314.309V272.353H310.266L308.1 270.62ZM73.3368 274.23L77.6682 270.62V276.107H73.3368V274.23ZM250.348 277.839L254.679 281.449V285.058H248.182V279.716L250.348 277.839ZM122.426 279.716L126.758 283.326L122.426 287.08H120.261V281.449L122.426 279.716ZM160.832 283.326L165.019 279.716H167.184L169.35 281.449L165.019 285.058H162.997L160.832 283.326ZM203.424 283.326L207.756 279.716L211.943 283.326V285.058H205.59L203.424 283.326ZM290.919 279.716H295.106L297.272 281.449L295.106 287.08L290.919 283.326V279.716ZM329.469 281.449H333.8V287.08H329.469V281.449ZM88.3524 283.326H92.5395V288.812H88.3524V283.326ZM58.4656 288.812L62.6526 285.058V290.545H58.4656V288.812ZM228.98 292.422L233.311 296.031L228.98 299.785H226.958V294.299L228.98 292.422ZM271.716 292.422L275.903 296.031V299.785H273.882L269.551 296.031V294.299L271.716 292.422ZM139.463 298.053L143.795 294.299H145.816L147.982 296.031L143.795 299.785H141.629L139.463 298.053ZM182.056 294.299H190.719V296.031L186.387 299.785L182.056 296.031V294.299ZM312.143 294.299L316.474 298.053V299.785L314.309 301.518L310.266 298.053V296.031L312.143 294.299ZM69.1498 299.785L73.3368 296.031V301.518H69.1498V299.785ZM101.058 299.785L105.389 296.031H107.555V299.785L105.389 301.518H103.224L101.058 299.785ZM39.2629 301.518L43.5943 298.053V303.539H39.2629V301.518ZM205.59 307.293H207.756L211.943 310.758L207.756 314.512H205.59L203.424 312.635L205.59 307.293ZM250.348 307.293L254.679 310.758V314.512H248.182V309.026L250.348 307.293ZM122.426 309.026L126.758 312.635V314.512L124.592 316.245L120.261 312.635V310.758L122.426 309.026ZM160.832 309.026H169.35V310.758L165.019 314.512L160.832 310.758V309.026ZM290.919 309.026H297.272V314.512H290.919V309.026ZM331.634 309.026L335.677 312.635V314.512H331.634V309.026ZM84.021 310.758H88.3524L90.3738 312.635L86.1867 316.245H84.021V310.758ZM184.221 321.875H186.387L190.719 325.629V327.362H184.221V321.875ZM271.716 321.875L275.903 325.629V327.362L273.882 329.239L269.551 325.629V323.752L271.716 321.875ZM310.266 323.752H316.474V325.629L312.143 329.239H310.266V323.752ZM110.154 317.4L110.01 315.523L119.827 314.801L120.116 318.555L110.154 317.4ZM289.62 310.181L291.208 310.036L291.497 314.223L286.443 314.656L289.62 310.181ZM301.026 316.389C297.368 312.828 291.4 311.384 283.122 312.058L245.006 315.09L243.418 313.357L242.118 315.378L173.248 321.009V322.886L176.28 322.597L176.425 324.474L171.949 324.763L171.805 321.154L167.473 321.442L166.029 323.464L164.441 321.731L144.083 323.319L144.95 291.122V289.245L143.506 289.39L142.495 296.898C140.089 297.09 138.356 293.432 137.298 285.925L143.217 285.491L144.805 287.224L143.939 226.584L143.65 222.974H142.207L140.907 224.996L142.495 226.728C142.207 233.177 140.955 236.45 138.741 236.546L137.298 236.691L138.597 234.525L138.453 232.648C134.699 235.151 132.918 237.894 133.111 240.878L129.934 237.268L129.645 233.37C131.57 233.274 132.437 231.349 132.244 227.595C137.153 227.21 139.511 225.766 139.319 223.263L140.763 221.098L140.618 219.221L139.03 217.488C136.143 217.777 134.602 216.67 134.41 214.167V212.29L144.661 213.301L143.939 200.018L141.485 187.024C144.276 184.906 145.046 173.404 143.795 152.517L137.009 113.245L135.421 62.2784L134.266 43.3645L127.047 45.8189L118.239 46.5409L118.095 44.6639L132.533 41.4875C134.073 41.3913 134.554 33.1615 133.977 16.7984L133.832 14.777L145.527 13.7664L146.971 11.8894C147.067 14.1033 149.522 15.2102 154.335 15.2102L160.254 14.6327L161.698 12.4669V14.4883L283.411 6.54731L299.582 6.98046H301.17C304.25 56.7438 306.079 158.388 306.657 311.913C302.806 312.298 300.929 313.79 301.026 316.389ZM135.421 308.448L140.041 306.282L143.65 309.892L135.709 312.346L135.421 308.448ZM370.906 297.764L372.927 297.619L373.505 306.138L371.484 306.282L370.906 297.764ZM134.121 290.112L139.03 289.678L139.175 291.555C136.961 291.652 135.998 293.577 136.287 297.331L134.699 297.475L134.121 290.112ZM269.984 302.673L267.241 294.443L263.053 294.732L267.818 302.817L269.984 302.673ZM242.551 318.555L242.118 312.346L240.386 312.491L237.065 316.966L237.354 321.154L242.551 318.555ZM220.461 308.159L219.739 298.341L218.151 265.711L215.696 225.862L250.492 223.119C280.331 220.809 296.213 204.782 298.138 175.04L296.405 147.752L297.994 145.586L295.539 135.046C288.705 107.614 268.684 95.1973 235.477 97.7961L174.548 102.561L174.981 108.769L178.735 112.667L178.879 114.689L177.147 117.143L186.532 263.979L188.553 265.856L186.82 268.021L188.408 309.026L220.461 308.159ZM214.83 213.301L208.189 108.192L223.782 107.037C246.979 105.208 259.107 112.667 260.166 129.416L263.775 186.157C264.93 204.349 252.177 214.504 225.514 216.622L218.584 217.199L214.83 213.301ZM412.343 304.261H416.964V200.162C426.685 168.302 439.92 123.881 456.668 66.8986L419.851 64.8772L391.697 153.094C382.072 109.202 373.601 77.8234 366.286 58.9576L326.292 62.2784L326.148 63.5778L367.73 204.927L368.018 300.363L368.307 302.817L393.718 302.673L393.43 264.701L391.986 304.261H412.343ZM322.538 11.745L459.845 9.00179C462.636 60.4014 463.069 114.111 461.144 170.131L459.7 171.864L461.433 171.719L459.989 173.452L460.134 176.628L461.866 176.484L462.155 200.307L461.722 294.443L459.123 304.405L442.23 304.55L435.589 307.293L427.07 306.715L427.215 308.304L425.482 306.86L423.605 307.149L326.292 315.09L324.271 313.79L323.838 326.784L322.25 327.073L319.94 320.72L321.383 315.811C319.843 311.673 317.389 309.796 314.02 310.181L315.608 308.592C313.298 296.946 311.132 291.267 309.111 291.555L309.4 275.674L309.111 272.497L303.48 247.664L307.523 234.525L309.4 234.236L309.833 239.001L306.945 245.642L308.533 245.498L307.09 247.23L311.71 261.091L316.33 255.749L315.897 250.984L313.442 243.477C316.041 243.092 318.111 234.284 319.651 217.055L318.929 207.526L317.196 206.082C317.196 200.692 318.592 197.852 321.383 197.563L319.651 196.12L319.218 191.355L320.806 192.799L322.683 192.654L322.538 191.066L318.929 188.179L321.095 74.4064L322.972 75.7058L334.089 68.198L335.677 67.9092L319.651 25.75L339.575 73.9732L319.795 78.4491L321.383 14.777C331.586 18.1459 331.634 20.4079 321.528 21.5629L321.383 20.1191L322.538 11.745ZM433.423 5.24788H435.011L436.599 19.686H433.423V5.24788ZM510.523 3.65969H513.843L518.608 5.24788L517.02 6.83608V11.745L525.105 10.1568L523.372 8.42427V6.83608L525.105 5.24788H521.784V3.65969H526.693V10.1568C526.693 11.7932 522.939 14.4401 515.431 18.0978L513.843 11.745H515.431L510.523 3.65969ZM541.131 3.65969L534.634 10.1568L533.046 8.42427L531.458 10.1568V11.745L533.046 13.3332H534.634L537.955 10.1568L539.543 11.745V13.3332L529.87 16.5096H528.281V14.9214H531.458L528.281 11.745C530.303 6.35481 534.586 3.65969 541.131 3.65969ZM541.131 5.24788L542.72 3.65969H552.393L547.628 10.1568V11.745H550.805L553.981 5.24788V3.65969H557.158V6.83608L558.89 5.24788L560.478 6.83608H565.243V3.65969H586.178L589.355 6.83608L599.028 3.65969V8.42427C601.146 8.42427 602.204 6.83608 602.204 3.65969H607.113L605.525 11.745H608.702V13.3332L603.937 14.9214L602.204 13.3332V14.9214L605.525 18.0978L603.937 19.686L595.852 18.0978H590.943V16.5096L592.675 14.9214V13.3332H589.355V18.0978H586.178L584.59 11.745L586.178 6.83608H583.002L584.59 8.42427V10.1568H581.414L584.59 18.0978L578.093 19.686V18.0978L576.505 19.686H573.328L574.916 18.0978L571.74 11.745L573.328 10.1568H574.916L576.505 11.745V10.1568L571.74 5.24788H570.152V18.0978H566.831L568.419 19.686V21.4186L566.831 23.0067H568.419L570.152 21.4186L571.74 23.0067V27.7713H568.419L570.152 26.1831V24.5949L563.655 26.1831L565.243 27.7713V29.3595L563.655 30.9477H562.067C562.067 26.7125 561.008 24.5949 558.89 24.5949L560.478 23.0067V18.0978L558.89 19.686C555.618 19.686 553.981 18.0978 553.981 14.9214H552.393V18.0978L539.543 14.9214V13.3332L544.308 11.745L541.131 5.24788ZM558.89 11.745H562.067L563.655 13.3332H565.243V11.745L563.655 10.1568H560.478L558.89 11.745ZM525.105 21.4186C525.105 23.7287 529.388 26.905 537.955 30.9477V27.7713C543.249 27.7713 545.896 26.1831 545.896 23.0067L550.805 26.1831L552.393 24.5949L553.981 26.1831H555.569L557.158 24.5949H558.89V27.7713L557.158 29.3595V30.9477L558.89 32.6803H557.158C555.04 32.6803 553.981 31.044 553.981 27.7713C549.746 27.7713 547.628 30.4664 547.628 35.8567H545.896L542.72 32.6803L537.955 35.8567L536.367 34.2685H534.634L529.87 35.8567L521.784 32.6803L523.372 24.5949L521.784 23.0067L523.372 21.4186H525.105ZM533.046 24.5949H534.634L537.955 27.7713H536.367L533.046 24.5949ZM438.188 55.2037V58.3801H428.514V56.7919L438.188 55.2037ZM608.702 113.101H613.466V116.277H611.878L608.702 113.101ZM593.83 37.0117H595.419L590.654 41.9207V40.3325L593.83 37.0117ZM600.328 40.3325V46.6852H601.916L606.68 43.5089H608.268V46.6852H609.857V43.5089H613.177L611.589 45.097V46.6852L619.53 48.2734V49.8616H616.354L617.942 51.5942V53.1824H616.354L611.589 49.8616V51.5942L613.177 53.1824H593.83L587.333 51.5942L580.98 53.1824H577.804V49.8616H576.072V53.1824H574.483V48.2734C578.815 46.4446 580.98 44.327 580.98 41.9207L585.745 43.5089L584.157 45.097V46.6852H585.745L587.333 41.9207H589.066V45.097H590.654L600.328 40.3325ZM635.701 49.8616C635.701 52.0755 637.818 53.1824 642.054 53.1824C651.775 183.318 656.636 269.61 656.636 312.058H654.904L637.289 313.646L503.737 315.234V316.966L502.148 315.234H495.651C490.357 315.523 487.71 316.63 487.71 318.555L485.978 316.966H473.128V315.234C472.647 301.373 471.588 294.443 469.951 294.443L453.925 292.71V291.122H463.599L471.684 292.71V276.684L469.951 233.37L474.716 199.585C474.716 181.778 473.128 172.104 469.951 170.564L471.684 159.302V148.041L460.422 149.629V148.041C460.422 145.923 462.011 144.864 465.187 144.864L466.775 143.276V141.688L465.187 139.955C465.187 137.838 462.492 136.779 457.102 136.779C457.102 133.603 456.043 132.014 453.925 132.014V128.694L457.102 125.517C457.102 128.02 459.267 130.186 463.599 132.014V130.426L462.011 128.694H463.599C466.005 128.694 467.593 131.389 468.363 136.779L466.775 138.367L468.363 139.955H469.951V136.779L466.775 85.3793L465.187 86.9675H458.69C459.364 80.5185 461 77.294 463.599 77.294L465.187 83.6468H466.775V82.0586L463.599 54.7706H485.978L487.71 53.1824L489.299 54.7706H494.063V51.5942H498.972V53.1824H495.651V54.7706H571.307L572.895 56.3588L574.483 54.7706H616.354C625.498 54.7706 631.947 53.1343 635.701 49.8616ZM643.642 53.1824H653.315V56.3588L643.642 54.7706V53.1824ZM646.963 57.947L648.551 59.5351L650.139 57.947H653.315C651.968 62.9522 649.85 65.6473 646.963 66.0323V62.8559H650.139V61.1233H646.963V57.947ZM453.925 59.5351L462.011 61.1233L458.69 64.4441L453.925 62.8559V59.5351ZM646.963 70.7969H648.551V77.294H646.963V70.7969ZM453.925 72.3851H455.513C455.513 75.6577 456.572 77.294 458.69 77.294V78.8822H453.925V72.3851ZM569.719 78.8822L566.542 85.3793H569.719L571.307 78.8822H569.719ZM563.222 111.079V114.256L566.542 117.432H568.131V112.667L563.222 111.079ZM519.763 144.864V154.538L521.495 156.126L519.763 157.714V270.187L521.495 271.92V273.508L518.175 276.684V281.449H574.483C605.188 281.449 622.899 270.765 627.616 249.396L629.204 241.311L627.616 239.723V218.787C624.15 196.264 608.605 185.002 580.98 185.002H548.784V154.538H598.595V144.864H519.763ZM551.96 191.499H558.457C583.098 191.499 595.419 198.478 595.419 212.435V255.893C595.419 268.695 584.686 275.096 563.222 275.096H548.784V194.676L551.96 191.499Z" fill="#211E1F"/>
</svg>
