<svg width="130" height="73" viewBox="0 0 130 73" fill="none" xmlns="http://www.w3.org/2000/svg">
<path d="M108.463 23.0399V24.2515H106.905V25.7228H105.348V27.2806H103.876V28.8384H102.318V30.3096H100.761V31.8675H99.2028V33.4253H97.7316V34.8965H96.1738V36.4543H94.616V38.0121H93.1447V39.4834H91.5869V42.599H90.0291V45.6281H88.5578V48.2244L90.2022 49.8688H92.9716L111.146 31.7809V28.6653L114.175 25.6362V22.7802L112.79 21.3955H110.107L108.463 23.0399ZM126.897 5.81744H125.339V7.37525H119.195V5.81744H114.521V4.7789L111.838 7.54834V11.789L116.252 16.2028H117.723L119.368 17.9337V21.309L114.781 25.8959V25.9824H114.694L111.752 28.9249V32.0405L95.4814 48.3975L94.789 49.0033L93.2312 50.5611H89.9425L88.0385 48.6572H87V42.599H88.5578V39.4834H90.0291V36.4543H91.5869V34.8965H93.1447V33.4253H94.616V31.8675H96.1738V30.3096H97.7316V28.8384H99.2028V27.2806H102.318V25.7228H103.876V24.2515H106.905V22.6937H107.944L109.848 20.7897H113.05L114.781 22.5206V25.0304L118.849 21.0493V18.1934L117.464 16.8952H115.906L111.146 12.1352V7.20216L114.435 4H119.195V5.81744H125.339V4.34618H126.897V5.81744Z" fill="black"/>
<path d="M62.5111 56.743H64.0689V55.0987H65.6268V52.3293H64.242L62.6842 53.9736H61.1264L59.5686 55.4449H54.8952L53.3374 57.0892H48.664L45.6349 60.1183H43.9905L42.6058 61.503V67.215H43.9905L45.6349 68.8593H51.5199L60.9533 59.3394V58.2143H62.5111V56.743ZM64.0689 58.2143H62.5111V59.8587H61.3861L51.7796 69.4651H45.2887L43.7309 67.9073H42V61.2434L43.7309 59.5125H45.2887L48.4043 56.3969H53.0777L54.6356 54.8391H59.2224L60.8668 53.2812H62.3381L63.9824 51.7234H67.1846V50.5118H68.7424V48.954H70.3002V45.8384H71.858V44.5402H70.5598L67.3577 47.7424H65.7998L62.6842 50.858H60.8668L59.1359 49.1271V42.7228H60.9533V41.165H62.5111V39.6072H64.0689V38.0493H65.6268V34.9337H67.1846V33.3759H68.7424V31.8181H70.3002V30.3469H71.858V28.7025H73.4158V27.2312H74.9736V25.5869H76.5314V24.1156H78.0892V22.5578H79.3008V21H79.9932V25.5869H78.0892V27.2312H76.5314V28.7025H74.9736V31.8181H73.4158V33.3759H71.858V34.9337H70.3002V36.4915H68.7424V38.0493H67.1846V39.6072H65.6268V41.165H64.0689V42.7228H62.5111V45.8384H60.9533V47.3962H59.7417V48.7809L61.1264 50.1656H62.3381L65.4537 47.05H67.098L70.3002 43.8479H71.6849L71.858 43.6748V42.7228H73.4158V41.165H74.9736V39.6072H76.5314V38.0493H78.0892V34.9337H79.647V33.3759H81.1183V31.8181H82.7626V30.3469H84.2339V28.7025H85.8783V27.2312H87.3495V25.5869H88.9073V24.1156H90.4651V22.5578H92.0229V21H95.1386V22.5578H93.5808V24.1156H92.0229V25.5869H90.4651V27.2312H88.9073V28.7025H87.3495V31.8181H85.8783V33.3759H84.2339V34.9337H82.7626V36.4915H81.1183V38.0493H79.647V41.165H78.0892V42.7228H76.5314V44.2806H74.9736V47.3962H73.4158V48.954H71.858V50.1656H77.9161L85.6186 42.4631H88.9073V43.0689H85.9648L78.1758 50.858H70.3867L70.3002 50.9445V52.0696H69.2616L68.9155 52.3293H68.7424V53.6274H67.1846V55.0987H65.6268V56.743H64.0689V58.2143Z" fill="black"/>
<path d="M54.3975 21H59.3306L61.0615 22.7309V27.4043H59.2441V30.5199H57.5997V32.0777H56.1284V33.549H54.5706V36.6646H53.0128V38.1359H51.5416V39.7802H49.9837V41.2515H48.4259V42.8093H46.8681V45.9249H45.3969V48.6944L47.0412 50.1656H49.8107L57.5131 42.4631H60.7153V43.069H57.7728L50.0703 50.858H46.695L45.1372 49.3002H43.4063V42.8959H43.7525V42.8093H45.3969V41.2515H46.8681V38.1359H48.4259V36.6646H49.9837V35.1934H51.5416V33.549H53.0128V32.0777H54.5706V30.5199H56.1284V27.4043H57.5997V25.9331H59.2441V22.8174H60.196L59.071 21.6058H54.6572L48.599 27.7505H45.3969V28.9621H43.7525V30.5199H42.2812V33.549H40.81V35.1934H39.1656V36.6646H37.6944V38.1359H36.1366V41.2515H34.5787V42.8093H33.0209V44.3671H31.5497V45.9249H29.9919V48.954H28.4341V50.5118H26.9628V51.9831H25.3184V53.6274H23.8472V56.6565H22.2894V58.2143H20.7316V59.6856H19.2603V61.2434H17.7025V64.359H16.1447V65.8303H14.5869V67.3881H13.1156V68.9459H10V67.3881H11.5578V65.8303H13.1156V64.359H14.5869V61.2434H16.1447V59.6856H17.7025V58.2143H19.2603V55.0987H20.7316V51.9831H22.2894V50.5118H23.8472V48.954H25.3184V45.9249H26.9628V44.3671H28.4341V42.8093H29.9919V41.2515H31.5497V38.1359H33.0209V36.6646H34.5787V35.1934H36.1366V33.549H37.6944V32.0777H39.1656V30.5199H40.81V28.9621H42.2812V25.9331H43.7525V24.3752H45.3969V22.8174H46.8681V21H49.9837V22.8174H48.4259V24.3752H46.8681V25.9331H45.3969V27.1447H48.3394L54.3975 21Z" fill="black"/>
<path d="M11.616 46.8397H14.645V45.3685H16.2028V43.8107H17.6741V42.2528H19.2319V39.2238H20.7897V37.7525H22.261V36.1947H23.8188V34.6369H25.29V33.1656H26.8479V31.6078H28.3191V30.1366H29.8769V22.9533L28.2326 21.309H25.29V22.6072H23.8188V23.9919H22.261V25.5497H20.7897V27.1075H19.2319V30.1366H17.6741V31.6078H16.2028V33.1656H14.645V34.6369H13.1738V36.1947H11.616V37.7525H10.0581V40.7816H8.58688V42.2528H7.02907V45.3685H5.55781V47.8783L7.20216 49.6092H9.9716L11.616 47.8783V46.8397ZM34.4638 8.84651H32.906V10.4043H31.4347V11.8756H29.8769V14.9912H28.3191V16.4625H26.8479V18.0203H25.29V20.6166H28.3191L29.7904 19.1454H32.8194L43.2914 8.75997V5.99053L41.9067 4.60582H37.666L34.4638 7.72143V8.84651ZM34.0311 7.37525L37.4063 4H42.1663L43.8972 5.64435V9.0196L33.0791 19.7512H30.05L28.8384 20.9628L30.3096 22.6072H31.4347V24.0784H32.906V30.1366H31.4347V31.6078H29.8769V33.1656H28.3191V36.1947H26.8479V37.7525H25.29V39.2238H23.8188V40.7816H22.261V42.2528H20.7897V43.8107H19.2319V45.3685H17.6741V46.8397H14.645V48.3975H12.0487L10.837 49.6092H19.0588L26.7613 41.9932H29.8769V42.6856H27.0209L19.3184 50.3015H10.0581V50.215H6.94253L5.03854 48.3975H4V42.2528H5.55781V39.2238H7.02907V36.1947H8.58688V34.6369H10.0581V33.1656H11.616V31.6078H13.1738V30.1366H14.645V27.1075H16.2028V25.5497H17.6741V23.9919H19.2319V22.5206H20.7897V19.4915H22.261V18.0203H23.8188V16.4625H25.29V14.9912H26.8479V13.4334H28.3191V11.8756H29.8769V10.4043H31.4347V8.84651H32.906V7.37525H34.0311Z" fill="black"/>
<path fill-rule="evenodd" clip-rule="evenodd" d="M107.456 22.2062H106.418V23.7641H103.389V25.2353H101.831V26.7931H98.7154V28.3509H97.2441V29.8222H95.6863V31.38H94.1285V32.9378H92.6572V34.4091H91.0994V35.9669H89.5416V38.9959H88.0704V42.1116H88.0494V41.5923H84.7607L83 43.353V38.599H84.5578V35.4834H86.0291V32.4543H87.5869V30.8965H89.1447V29.4253H90.6159V27.8675H92.1738V26.3096H93.7316V24.8384H95.2028V23.2806H98.3184V21.7228H99.8763V20.2515H102.905V18.6937H106.001L107.905 16.7897H110.833L107.146 13.1027V5.23226L112.52 3.10457e-06H113.301L115.765 -1.55229e-06L117.546 3.10457e-06H122.22V0.346183H129.922V8.84254H128.364V10.4004H115.417L117.22 12.2028H118.744L122.393 16.0438V22.2765L117.806 26.8634V29.0075H115.662L114.777 29.8924V33.0026L109.554 38.2528L104.353 43.353L100.429 47.5533L94.9507 52.8343L94.1987 53.5862H88.0001L86.0961 51.6823H83V44.305L85.1069 42.1981H86.5125V48.1697H87.5511L89.4551 50.0737H92.7438L94.3016 48.5159L94.9939 47.9101L111.264 31.5531V28.4375L114.207 25.495H114.293V25.4084L118.88 20.8215V17.4463L117.236 15.7154H115.765L111.351 11.3016V7.06089L114.034 4.29145V5.33H118.707V6.8878H124.852V5.33H126.41V3.85873H124.852V5.33H118.707V3.51255H113.947L110.659 6.71471V11.6478L115.419 16.4077H116.976L118.361 17.7059V20.5619L114.293 24.543V22.0332L112.563 20.3023H109.36L107.456 22.2062ZM109.62 20.9081L107.976 22.5524V23.7641H106.418V25.2353H104.86V26.7931H103.389V28.3509H101.831V29.8222H100.273V31.38H98.7154V32.9378H97.2441V34.4091H95.6863V35.9669H94.1285V37.5247H92.6572V38.9959H91.0994V42.1116H89.5416V45.1406H88.0704V47.737L89.7147 49.3813H92.4841L110.659 31.2935V28.1778L113.688 25.1488V22.2928L112.303 20.9081H109.62ZM114.863 9.84664V8.84254H115.195V10.1779L114.863 9.84664Z" fill="#BD8A96"/>
<path fill-rule="evenodd" clip-rule="evenodd" d="M55.1359 45.0413V50.0946L55.8804 50.839H52.6932L51.1354 52.3968H46.4619L43.3463 55.5125H41.7885L38 59.301V70.9324H41.7885L43.3463 72.4902H52.7471L62.3535 62.8837H65.5362V61.2394H67.094V59.7681H68.6519V58.1238H70.2097V56.6525H71.7675V55.0947H73.3253V53.8831H79.1433L86.883 46.1433V42.5815H85.4774L77.6883 50.3705H69.8993L69.8127 50.4571V51.5822H68.7742L68.428 51.8418H68.2549V53.14H66.6971V54.6112H65.1393V51.8418H63.7546L62.1968 53.4861H60.639L59.0812 54.9574H54.4077L52.8499 56.6018H48.1765L45.1474 59.6308H43.5031L42.1184 61.0155V66.7275H43.5031L45.1474 68.3719H51.0325L60.4659 58.8519V57.7268H62.0237V59.3712H60.8986L51.2921 68.9777H44.8013L43.2434 67.4199H41.5125V60.7559L43.2434 59.025H44.8013L47.9169 55.9094H52.5903L54.1481 54.3516H58.735L60.3793 52.7938H61.8506L63.495 51.236H66.6971V50.0243H68.2549V48.4665H69.8127V45.3509H71.3705V44.0528H70.0724L66.8702 47.2549H65.3124L62.1968 50.3705H60.3793L58.6484 48.6396V42.668H57.4828L55.1359 45.0413ZM57.2232 42.0622H60.4253V42.2353H60.4659V40.6775H62.0237V39.1197H63.5815V37.5619H65.1393V34.4463H66.6971V32.8885H68.2549V31.3307H69.8127V29.8594H71.3705V28.215H72.9284V26.7438H74.4862V25.0994H76.044V23.6282H77.6018V22.0704H78.8134V20.5125H79.5058V25.0994H77.6018V26.7438H76.044V28.215H74.4862V31.3307H72.9284V32.8885H71.3705V34.4463H69.8127V36.0041H68.2549V37.5619H66.6971V39.1197H65.1393V40.6775H63.5815V42.2353H62.0237V45.3509H60.4659V46.9087H59.2543V48.2934L60.639 49.6782H61.8506L64.9662 46.5626H66.6106L69.8127 43.3604H71.1974L71.3705 43.1873V42.2353H72.9284V40.6775H74.4862V39.1197H76.044V37.5619H77.6018V34.4463H79.1596V32.8885H80.6308V31.3307H82.2752V29.8594H83.7465V28.215H85.3908V26.7438H86.8621V25.0994H88.4199V23.6282H89.9777V22.0704H91.5355V20.5125H94.6511V22.0704H93.0933V23.6282H91.5355V25.0994H89.9777V26.7438H88.4199V28.215H86.8621V31.3307H85.3908V32.8885H83.7465V34.4463H82.2752V36.0041H80.6308V37.5619H79.1596V40.6775H77.6018V42.2353H76.044V43.7931H74.4862V46.9087H72.9284V48.4665H71.3705V49.6782H77.4287L85.1312 41.9757H88.4199V42.4949H88.4408V39.3793H89.9121V38.4631H85.7877V37.9588H87.259V36.401H88.9034V34.8432H90.3746V31.7276H91.9324V30.2563H93.4902V28.612H95.0481V27.1407H96.6059V25.5829H98.1637V17H88.023V18.5578H86.4651V20.1156H84.9073V21.5869H83.3495V23.2312H83.0183V17H75.3009V18.5578H74.0892V20.1156H72.5314V21.5869H70.9736V23.2312H69.4158V24.7025H67.858V26.3468H66.3002V27.8181H64.7424V29.3759H63.1846V30.9337H61.6268V34.0493H60.069V35.6071H58.5111V37.165H56.9533V38.7228H55.1359V44.1495L57.2232 42.0622ZM91.9324 39.3793H91.4699V42.4949H89.9121V45.524H88.4408V46.094H91.9324V39.3793ZM62.0237 57.7268H63.5815V56.2556H65.1393V54.6112H63.5815V56.2556H62.0237V57.7268ZM54.27 60.1143H49.6315L46.6024 63.1434H45.6309V63.8878L46.6024 64.8593H49.5681L54.27 60.1143Z" fill="#BD8A96"/>
<path fill-rule="evenodd" clip-rule="evenodd" d="M32.1365 30.2056H32.5118V29.549H33.6944V28.0777H35.1656V26.5199H36.81V24.9621H38.2812V21.9331H39.7525V20.3753H41.3968V18.8174H42.8681V17H60.2981L64.0866 20.7885V21.8827L67.7636 25.8425H64.0866V30.4294H62.2691V33.545H60.6248V35.1028H59.1535V36.5741H57.5957V38.4631H63.384V39.0332H61.8262V40.591H60.2684V42.1488H60.2278V41.9757H57.0257L49.3232 49.6782H46.5538L44.9094 48.2069V45.4375H46.3807V42.3219H47.9385V40.7641H49.4963V39.2928H51.0541V37.6484H52.5253V36.1772H54.0832V33.0616H55.641V31.5903H57.1122V30.0325H58.7566V26.9169H60.574V22.2434L58.8431 20.5126H53.9101L47.8519 26.6572H44.9094V25.4456H46.3807V23.8878H47.9385V22.33H49.4963V20.5126H46.3807V22.33H44.9094V23.8878H43.265V25.4456H41.7938V28.4747H40.3225V30.0325H38.6782V31.5903H37.2069V33.0616H35.6491V34.7059H34.0913V36.1772H32.5335V37.6484H31.0622V40.7641H29.5044V42.3219H29.4828V42.0622H26.3672L18.6647 49.6782H16.7316V47.9831H18.2894V46.5118H19.8472V44.954H21.3184V42.3219H21.8668V41.9249H22.9628V40.8506H23.4246V40.3671H24.4341V39.2928H24.8959V38.8093H25.9919V37.8215H26.4537V37.2515H27.5497V36.2637H27.925V34.1359H29.0209V33.2346H29.4828V32.6646H30.5787V31.6768H31.0406V31.1934H32.1365V30.2056ZM16.7316 50.3705V51.0987H15.2603V54.2143H13.7025V55.6856H12.1447V57.2434H10.5869V60.359H9.11561V61.8303H7.55781V63.3881H6V71.971H16.1407V70.4132H17.612V68.8554H19.1698V67.3841H20.7276V64.2685H22.2854V62.7107H23.7567V61.2394H25.3145V59.6816H26.8723V56.6525H28.3435V55.0082H29.9879V53.5369H31.4592V51.9791H33.017V48.95H34.5748V47.3922H36.046V45.8344H37.6038V44.2766H39.1616V41.161H39.4063V52.3253H43.1948L44.7526 53.8831H51.0493L58.451 46.3982V42.5815H57.2853L49.5828 50.3705H46.2076L44.6498 48.8127H42.9189V42.4084H43.265V42.3219H44.9094V40.7641H46.3807V37.6484H47.9385V36.1772H49.4963V34.7059H51.0541V33.0616H52.5253V31.5903H54.0832V30.0325H55.641V26.9169H57.1122V25.4456H58.7566V22.33H59.7086L58.5835 21.1184H54.1697L48.1116 27.2631H44.9094V28.4747H43.265V30.0325H41.7938V33.0616H40.3225V34.7059H38.6782V36.1772H37.2069V37.6484H35.6491V40.7641H34.0913V42.3219H32.5335V43.8797H31.0622V45.4375H29.5044V48.4665H27.9466V50.0244H26.4753V51.4956H24.831V53.14H23.3597V56.169H21.8019V57.7269H20.2441V59.1981H18.7728V60.7559H17.215V63.8715H15.6572V65.3428H14.0994V66.9006H12.6282V68.4584H9.51255V66.9006H11.0704V65.3428H12.6282V63.8715H14.0994V60.7559H15.6572V59.1981H17.215V57.7269H18.7728V54.6112H20.2441V51.4956H21.8019V50.0244H23.3597V48.4665H24.831V45.4375H26.4753V43.8797H27.9466V42.7546H26.6268L18.9243 50.3705H16.7316ZM60.2684 46.094V45.2644H61.8262V42.1488H63.384V40.591H63.7404V46.094H60.2684Z" fill="#BD8A96"/>
<path fill-rule="evenodd" clip-rule="evenodd" d="M6.54162 44.881V41.7654H8.09943V40.2941H9.57069V37.2651H11.1285V35.7073H12.6863V34.1494H14.1576V32.6782H15.7154V31.1204H17.1866V29.6491H18.7444V26.62H20.3023V25.0622H21.7735V23.5044H23.3313V22.1197H24.8026V20.8215H27.7451L29.3895 22.4659V29.6491H27.8317V31.1204H26.3604V32.6782H24.8026V34.1494H23.3313V35.7073H21.7735V37.2651H20.3023V38.7363H18.7444V41.7654H17.1866V43.3232H15.7154V44.881H14.1576V46.3523H11.1285V47.3908L9.48415 49.1217H6.71471L5.07036 47.3908V44.881H6.54162ZM3.51255 41.7654H5.07036V38.7363H6.54162V35.7073H8.09943V34.1494H9.57069V32.6782H11.1285V31.1204H12.6863V29.6491H14.1576V26.62H15.7154V25.0622H17.1866V23.5044H18.7444V22.0332H20.3023V19.0041H21.7735V17.5328H23.3313V15.975H24.8026V14.5038H26.3604V12.9459H27.8317V11.3881H29.3895V14.5038H27.8317V15.975H26.3604V17.5328H24.8026V20.1292H27.8317L29.3029 18.6579H32.332L42.8039 8.27252V5.50308L41.4192 4.11837H37.1785L33.9763 7.23398V8.35906H32.4185V6.8878H33.5436L36.9189 3.51255H41.6788L43.4097 5.1569V8.53215L32.5916 19.2637H29.5626L28.3509 20.4753L29.8222 22.1197H30.9473V23.591H32.4185V29.6491H30.9473V31.1204H29.3895V32.6782H27.8317V35.7073H26.3604V37.2651H24.8026V38.7363H23.3313V40.2941H21.7735V41.7654H20.3023V43.3232H18.7444V44.881H17.1866V46.3523H14.1576V47.9101H11.5612L10.3496 49.1217H18.5714L26.2739 41.5058H29.3895V41.7654H29.4111V40.2076H30.9689V37.092H31.3442V36.1907H32.4402V35.6207H32.902V34.6329H33.998V34.1494H34.4598V33.1617H35.5558V32.5051H35.9311V20.8986L46.9223 9.99537V3.64892L43.0813 0H35.4639L32.0887 3.37525H28.906V4.84651H27.4347V6.40432H25.8769V7.87559H24.3191V9.43339H22.8478V10.9912H21.29V12.4625H19.8188V14.0203H18.261V15.4915H16.7897V18.5206H15.2319V19.9919H13.6741V21.5497H12.2028V23.1075H10.645V26.1366H9.17376V27.6078H7.61595V29.1656H6.05814V30.6369H4.58688V32.1947H3.02907V35.2238H1.55781V38.2528H0V51.4226H3.08118L1.86955 52.6343H4.41308L5.04774 53.2401H6.05814V53.3266H20.1508V50.9392H21.7086V49.4679H23.2664V47.9101H24.7377V44.881H26.382V43.3232H27.8533V42.1981H26.5335L18.831 49.8141H9.57069V49.7275H6.45508L4.55109 47.9101H3.51255V41.7654ZM29.4111 45.7107H32.902V41.7654H32.4402V43.3232H30.9689V44.881H29.4111V45.7107ZM32.4185 9.91687V8.35906H30.9473V9.91687H29.3895V11.3881H30.9473V9.91687H32.4185Z" fill="#BD8A96"/>
</svg>
