<svg width="224" height="88" viewBox="0 0 224 88" fill="none" xmlns="http://www.w3.org/2000/svg">
<g clip-path="url(#clip0_603_123)">
<path d="M11.0476 0.376953V17.6334H6.58308V0.376953H-0.00012207V43.405H6.58308V24.4907H11.0476V43.405H17.5551V0.376953H11.0476Z" fill="black"/>
<path d="M28.7541 43.8569H27.4677C22.2465 43.8569 19.4468 40.9934 19.4468 35.7185V27.128H25.9543V34.6636C25.9543 36.6228 26.5597 37.6778 28.073 37.6778C29.6621 37.6778 30.1918 36.6228 30.1918 33.9854V33.0057C30.1918 29.9162 29.8891 28.8612 27.5434 25.7716L23.4572 20.4214C20.6575 16.8043 19.8251 14.0915 19.8251 9.79622V8.43982C19.8251 2.63744 22.7762 0 27.9217 0H29.1324C34.5049 0 36.6236 2.33602 36.6236 7.4602V14.5436H30.2674V8.28911C30.2674 6.85736 29.9648 5.72702 28.3757 5.72702C26.7867 5.72702 26.484 6.70664 26.484 8.74124V9.57016C26.484 11.9815 26.938 13.3379 29.1324 16.1261L33.2942 21.4763C36.2453 25.3195 37.1533 27.5048 37.1533 32.3275V33.6839C37.229 40.0892 34.5049 43.8569 28.7541 43.8569Z" fill="black"/>
<path d="M54.0286 0.378906V6.63342H45.705V17.9367H52.2126V24.4173H45.705V36.851H54.407V43.4069H39.1218V0.378906H54.0286Z" fill="black"/>
<path d="M72.1129 35.3439H67.3457L66.4377 43.4069H60.6112L65.908 0.378906H73.7019L79.3014 43.4069H72.9452L72.1129 35.3439ZM71.3562 28.9387L69.6158 13.0386L67.9511 28.9387H71.3562V28.9387Z" fill="black"/>
<path d="M86.8674 43.4069H80.2842V0.378906H90.8778C95.2666 0.378906 97.461 2.26279 97.461 7.01019V14.6211C97.461 18.2382 95.7963 19.5946 94.5856 20.1221C96.0233 20.7249 97.461 21.9306 97.461 24.7941V39.8652C97.461 41.5984 97.8394 42.4273 98.0664 43.0301V43.3316H91.5589C91.2562 42.8794 90.9535 42.1259 90.9535 39.7899V26.9041C90.9535 25.0202 90.5752 24.1913 88.5321 24.1913H86.8674V43.4069ZM86.8674 18.0875H88.6078C90.4238 18.0875 90.9535 16.9571 90.9535 14.9979V8.96944C90.9535 7.08555 90.5752 6.18128 88.6078 6.18128H86.8674V18.0875Z" fill="black"/>
<path d="M110.78 6.63342V43.4069H104.273V6.63342H98.7488V0.378906H116.228V6.63342H110.78Z" fill="black"/>
<path d="M133.935 35.3439H129.168L128.259 43.4069H122.433L127.73 0.378906H135.448L141.048 43.4069H134.691L133.935 35.3439ZM133.178 28.9387L131.438 13.0386L129.773 28.9387H133.178Z" fill="black"/>
<path d="M148.084 0.376953L153.683 23.4358V0.376953H159.661V43.405H154.364L148.084 18.6884V43.405H142.106V0.376953H148.084Z" fill="black"/>
<path d="M162.082 0.378906H172.146C177.746 0.378906 179.486 3.54384 179.486 8.66802V34.8164C179.486 40.0913 177.519 43.4069 172.146 43.4069H162.082V0.378906ZM168.666 37.1524H170.255C172.222 37.1524 172.827 36.0974 172.827 33.8368V9.57228C172.827 7.08555 172.222 6.25664 170.557 6.25664H168.666V37.1524Z" fill="black"/>
<path d="M0 44.3086H10.064C15.6635 44.3086 17.4039 47.4735 17.4039 52.5977V78.7461C17.4039 84.021 15.4365 87.3366 10.064 87.3366H0V44.3086ZM6.5832 81.0068H8.17225C10.1396 81.0068 10.745 79.9518 10.745 77.6911V53.502C10.745 51.0152 10.1396 50.1863 8.47493 50.1863H6.5832V81.0068Z" fill="black"/>
<path d="M34.6573 44.3086V50.4878H26.258V61.7911H32.8412V68.347H26.258V80.7807H35.0356V87.2613H19.7505V44.3086H34.6573Z" fill="black"/>
<path d="M45.4767 87.7152H44.1903C38.9692 87.7152 36.1694 84.8517 36.1694 79.5768V70.9862H42.677V78.5218C42.677 80.481 43.2823 81.536 44.7957 81.536C46.3847 81.536 46.9144 80.481 46.9144 77.8436V76.864C46.9144 73.7744 46.6118 72.7194 44.266 69.6298L40.1042 64.2796C37.3045 60.6625 36.4721 57.9497 36.4721 53.6545V52.2981C36.4721 46.571 39.3475 43.9336 44.5687 43.9336H45.7794C51.1519 43.9336 53.2706 46.2696 53.2706 51.3938V58.4772H46.9144V52.2981C46.9144 50.8663 46.6118 49.736 45.0227 49.736C43.4337 49.736 43.131 50.7156 43.131 52.7502V53.5038C43.131 55.9151 43.585 57.2715 45.7794 60.0597L49.9412 65.4099C52.8923 69.2531 53.8003 71.4384 53.8003 76.2611V77.6175C53.9516 84.0228 51.2276 87.7152 45.4767 87.7152Z" fill="black"/>
<path d="M62.3493 44.3086H55.7661V87.3366H62.3493V44.3086Z" fill="black"/>
<path d="M70.9 87.8651C67.0409 87.8651 64.6195 84.4741 64.6195 80.0281V53.1262C64.6195 48.3034 66.5112 43.8574 72.7161 43.8574H74.0024C81.0397 43.8574 81.872 48.4541 81.872 53.5029V57.8736H75.5158V53.0508C75.5158 51.1669 75.0618 50.1119 73.3971 50.1119C72.0351 50.1119 71.354 51.1669 71.354 53.0508V78.2196C71.354 80.2542 72.1864 81.3091 73.4728 81.3091C75.1375 81.3091 75.8942 80.1788 75.8942 78.521V67.7451H72.9431V61.1892H82.099V87.3376H78.3912C78.3156 87.1115 77.7859 85.0016 77.2562 83.1177C76.8022 84.5494 74.6078 87.9404 71.2784 87.9404H70.9V87.8651Z" fill="black"/>
<path d="M90.2733 44.3086L95.8728 67.3674V44.3086H101.851V87.2613H96.5538L90.2733 62.5446V87.2613H84.3711V44.3086H90.2733Z" fill="black"/>
<path d="M118.95 87.7152H117.664C112.442 87.7152 109.643 84.8517 109.643 79.5768V70.9862H116.15V78.5218C116.15 80.481 116.755 81.536 118.269 81.536C119.858 81.536 120.388 80.481 120.388 77.8436V76.864C120.388 73.7744 120.085 72.7194 117.739 69.6298L113.577 64.2796C110.778 60.6625 109.945 57.9497 109.945 53.6545V52.2981C109.945 46.571 112.821 43.9336 118.042 43.9336H119.253C124.625 43.9336 126.744 46.2696 126.744 51.3938V58.4772H120.388V52.2981C120.388 50.8663 120.085 49.736 118.496 49.736C116.907 49.736 116.604 50.7156 116.604 52.7502V53.5038C116.604 55.9151 117.058 57.2715 119.253 60.0597L123.414 65.4099C126.365 69.2531 127.273 71.4384 127.273 76.2611V77.6175C127.425 84.0228 124.701 87.7152 118.95 87.7152Z" fill="black"/>
<path d="M140.064 78.5218V68.5749H146.496V78.5218C146.496 83.1185 144.982 87.7905 138.626 87.7905H137.188C130.605 87.7905 129.092 83.0431 129.092 78.7478V52.5241C129.092 48.1535 130.984 43.9336 136.961 43.9336H138.475C145.663 43.9336 146.496 48.681 146.496 52.9009V60.5872H140.064V53.0516C140.064 51.1677 139.458 50.1881 137.869 50.1881C136.28 50.1881 135.826 51.0924 135.826 53.0516V78.5971C135.826 80.481 136.432 81.536 137.945 81.536C139.458 81.4606 140.064 80.255 140.064 78.5218Z" fill="black"/>
<path d="M159.585 68.347H155.121V87.2613H148.613V44.3086H155.121V61.4897H159.585V44.3086H166.169V87.2613H159.585V68.347Z" fill="black"/>
<path d="M186.371 77.6921C186.371 83.7205 184.328 87.7897 178.048 87.7897H176.913C170.632 87.7897 168.438 83.7205 168.438 77.6921V53.729C168.438 47.7759 170.708 43.8574 176.837 43.8574H177.972C184.328 43.8574 186.371 47.7759 186.371 53.6536V77.6921ZM179.712 53.4276C179.712 51.1669 178.956 50.1119 177.442 50.1119C175.778 50.1119 175.096 51.2423 175.096 53.4276V78.1442C175.096 80.0281 175.626 81.4598 177.442 81.4598C179.183 81.4598 179.637 80.0281 179.637 78.1442V53.4276H179.712Z" fill="black"/>
<path d="M206.424 77.6921C206.424 83.7205 204.381 87.7897 198.101 87.7897H196.966C190.685 87.7897 188.491 83.7205 188.491 77.6921V53.729C188.491 47.7759 190.761 43.8574 196.89 43.8574H198.025C204.381 43.8574 206.424 47.7759 206.424 53.6536V77.6921V77.6921ZM199.69 53.4276C199.69 51.1669 198.933 50.1119 197.42 50.1119C195.755 50.1119 195.074 51.2423 195.074 53.4276V78.1442C195.074 80.0281 195.604 81.4598 197.42 81.4598C199.16 81.4598 199.614 80.0281 199.614 78.1442V53.4276H199.69Z" fill="black"/>
<path d="M215.203 44.3086V80.63H223.224V87.2613H208.62V44.3086H215.203Z" fill="black"/>
</g>
<defs>
<clipPath id="clip0_603_123">
<rect width="223.224" height="87.8646" fill="white"/>
</clipPath>
</defs>
</svg>
